/* XPM */
static char *_6498_29265c494abbd7568db3cd16fe6c5ec74d1cec4e430624a919336b9f96da90e5[] = {
/* columns rows colors chars-per-pixel */
"64 64 144 2 ",
"   c #000000",
".  c #010C05",
"X  c #0F0807",
"o  c #050D0A",
"O  c #0E0B08",
"+  c #110C09",
"@  c #021207",
"#  c #021609",
"$  c #031E0B",
"%  c #1A130E",
"&  c #091610",
"*  c #0B1C14",
"=  c #271D16",
"-  c #281E16",
";  c #03230D",
":  c #04280F",
">  c #042A10",
",  c #082E13",
"<  c #0F2D1F",
"1  c #102B1E",
"2  c #053414",
"3  c #093114",
"4  c #063C17",
"5  c #063F18",
"6  c #0D3D1B",
"7  c #2B2017",
"8  c #2F231A",
"9  c #292C1B",
"0  c #31251B",
"q  c #122E20",
"w  c #133223",
"e  c #1A3223",
"r  c #143B26",
"t  c #163A29",
"y  c #183E2C",
"u  c #3E2D22",
"i  c #333822",
"p  c #393A25",
"a  c #323D2C",
"s  c #413024",
"d  c #493628",
"f  c #433C28",
"g  c #513C2C",
"h  c #06441A",
"j  c #0C441C",
"k  c #074C1D",
"l  c #0A481F",
"z  c #08511F",
"x  c #0A4E21",
"c  c #144329",
"v  c #19422E",
"b  c #085721",
"n  c #095A22",
"m  c #1A4530",
"M  c #1C4933",
"N  c #1F5239",
"B  c #364330",
"V  c #20543B",
"C  c #20583D",
"Z  c #066626",
"A  c #096526",
"S  c #0A6A29",
"D  c #0B742C",
"F  c #0B7B2F",
"G  c #15712E",
"H  c #0C7E30",
"J  c #39783B",
"K  c #454532",
"L  c #5B5D3B",
"P  c #644A37",
"I  c #664B38",
"U  c #235C41",
"Y  c #256144",
"T  c #276748",
"R  c #286749",
"E  c #296C4C",
"W  c #2D7552",
"Q  c #2F7B56",
"!  c #307D58",
"~  c #705841",
"^  c #7E5E46",
"/  c #76784C",
"(  c #816047",
")  c #876F4E",
"_  c #A67B5B",
"`  c #A97C5C",
"'  c #0C8131",
"]  c #0D8C36",
"[  c #188034",
"{  c #0C9137",
"}  c #0E9338",
"|  c #0E9C3B",
" . c #119038",
".. c #0FA43F",
"X. c #379846",
"o. c #399B47",
"O. c #32835C",
"+. c #34885F",
"@. c #0FA740",
"#. c #0EAD42",
"$. c #10A740",
"%. c #10AD42",
"&. c #1EAE46",
"*. c #0EB043",
"=. c #10B043",
"-. c #21A745",
";. c #21AE47",
":. c #23AF48",
">. c #3DA94D",
",. c #3DA24B",
"<. c #22B148",
"1. c #3EB150",
"2. c #358C62",
"3. c #43B152",
"4. c #53B157",
"5. c #68B35D",
"6. c #93965F",
"7. c #9DAE6B",
"8. c #ABAA6D",
"9. c #A6B16E",
"0. c #ACB873",
"q. c #B3B674",
"w. c #B5B975",
"e. c #BABA77",
"r. c #BDB978",
"t. c #CE9971",
"y. c #D09A72",
"u. c #D8A077",
"i. c #DDA379",
"p. c #CDB97C",
"a. c #D5BA7F",
"s. c #E4AA7E",
"d. c #DABB81",
"f. c #E9AD80",
"g. c #EFBC87",
"h. c #E5BB84",
"j. c #F1B284",
"k. c #F1BA87",
"l. c #FAB688",
"z. c #F2BC88",
"x. c #FFBD8D",
"c. c #FFC08E",
"v. c #FFC290",
"b. c #368D63",
/* pixels */
"b.b.b.b.b.b.b.b.b.b.b.b.b.b.b.b.b.b.b.b.b.b.b.b.b.b.b.b.b.b.b.b.b.b.b.b.b.b.b.b.b.b.b.b.b.b.b.b.b.b.b.b.b.b.b.b.b.b.b.b.b.b.b.b.",
"b.b.b.b.b.b.b.b.b.b.b.b.b.b.b.b.b.b.b.b.b.b.b.b.b.b.b.b.b.b.b.b.b.b.b.b.b.b.b.b.b.b.b.b.b.b.b.b.b.b.b.b.b.b.b.b.b.b.b.b.b.b.b.b.",
"b.b.b.b.b.b.b.b.b.b.b.b.b.b.b.b.b.b.b.b.b.b.b.b.b.b.b.b.b.b.b.b.b.b.b.b.b.b.b.b.b.b.b.b.b.b.b.b.b.b.b.b.b.b.b.b.b.b.b.b.b.b.b.b.",
"b.b.b.b.b.b.b.b.b.b.b.b.b.b.b.b.b.b.b.W t q w w w w w w w w w w w w w w w w w w m 2.b.b.b.b.b.b.b.b.b.b.b.b.b.b.b.b.b.b.b.b.b.b.",
"b.b.b.b.b.b.b.b.b.b.b.b.b.b.b.b.b.b.b.U                                         & +.b.b.b.b.b.b.b.b.b.b.b.b.b.b.b.b.b.b.b.b.b.b.",
"b.b.b.b.b.b.b.b.b.b.b.b.b.b.b.b.b.b.b.U                                         & +.b.b.b.b.b.b.b.b.b.b.b.b.b.b.b.b.b.b.b.b.b.b.",
"b.b.b.b.b.b.b.b.b.b.b.b.b.b.b.b.b.b.b.U                                         & b.b.b.b.b.b.b.b.b.b.b.b.b.b.b.b.b.b.b.b.b.b.b.",
"b.b.b.b.b.b.b.b.b.b.b.b.b.b.b.b.b.b.b.U .     . h k k k k k k k k k k z k k k k x t w w v O.b.b.b.b.b.b.b.b.b.b.b.b.b.b.b.b.b.b.",
"b.b.b.b.b.b.b.b.b.b.b.b.b.b.b.b.b.b.b.U       @ | =.=.=.%.%.=.%.=.%.=.%.=.%.=.=.H       o W b.b.b.b.b.b.b.b.b.b.b.b.b.b.b.b.b.b.",
"b.b.b.b.b.b.b.b.b.b.b.b.b.b.b.b.b.b.b.U       @ } %.%.%.%.%.%.%.%.%.%.%.%.%.%.=.H       o W b.b.b.b.b.b.b.b.b.b.b.b.b.b.b.b.b.b.",
"b.b.b.b.b.b.b.b.b.b.b.b.b.b.b.b.b.b.b.Y       . | =.=.=.=.=.=.=.=.*.=.=.=.=.=.=.H       o Q b.b.b.b.b.b.b.b.b.b.b.b.b.b.b.b.b.b.",
"b.b.b.b.b.b.b.b.b.b.b.U t t t t t t t r k k k k A A A A A A A A A A A A A A A A n h k k h t t t t t t t t E b.b.b.b.b.b.b.b.b.b.",
"b.b.b.b.b.b.b.b.b.b.b.q               ; ..=.%.| @                               2 %.=.=.} .               M b.b.b.b.b.b.b.b.b.b.",
"b.b.b.b.b.b.b.b.b.b.b.q               ; ..%.%.| #                               , %.%.%.} .               M b.b.b.b.b.b.b.b.b.b.",
"b.b.b.b.b.b.b.b.b.b.b.<               ; %.=.=...#                               > #.*.=.} .               M b.b.b.b.b.b.b.b.b.b.",
"b.b.b.b.b.b.b.N y y y K P P I s       # A S S A h h h h h h h h h h h h h h h h z S S S n .     X g P P P B y y y Y b.b.b.b.b.b.",
"b.b.b.b.b.b.2.*       ( c.x.c._               @ } =.=.%.=...=.=.%.%.%.%.%.%.%.=.H               O y.c.x.x.g       w b.b.b.b.b.b.",
"b.b.b.b.b.b.2.*       ( c.x.c._               @ } =.%.%.=.=.=...%.%.%.%.%.%.%.%.F               O y.x.x.x.g       w b.b.b.b.b.b.",
"b.b.b.b.b.b.2.*       ( c.x.c._               . } %.%.%.%.%...=.%.%.%.%.%.%.%.%.F               + y.c.x.l.g       w b.b.b.b.b.b.",
"b.b.b.b.b.b.2.*       ( c.x.c._       . 4 5 5 k ..%.%.%.%.%.=.=.%.%.%.#.%.%.%.%.] h 5 h 2       + y.x.x.x.g       w b.b.b.b.b.b.",
"b.b.b.b.b.b.2.*       ( c.x.x._       ; ..%.%.%.%.%.%.=.=...%.%.%.%.%.%.%.%.%.%.%.%.%.%.} .     + y.c.x.x.g       w b.b.b.b.b.b.",
"b.b.b.b.b.b.2.*       ( c.x.v._       ; ..%.%.%.%.%.%...%.%.%.%.%.%.%.%.%.%.%.%.%.%.%.=.} .     + y.x.x.l.g       w b.b.b.b.b.b.",
"b.b.b.b.b.b.2.*       ( c.x.c._       ; ..%.%.%.%.%.%.%.%.%.%.%.%.%.%.%.%.%.%.%.%.%.#.%.} .     + y.c.x.x.g       w b.b.b.b.b.b.",
"b.b.b.b.b.b.2.*       ( x.x.c._       ; ..%.%.%.%.%.%.%.%.%.%.%.%.%.%.%.%.%.%.%.%.%.%.=.} .     + t.c.x.x.g       w b.b.b.b.b.b.",
"b.b.b.b.b.b.2.*       ( c.x.c._       ; ..%.%.%.%.%.%.%.%.%.%.%.%.%.%.%.%.%.%.%.%.%.%.#.} .     + y.c.x.x.g       w b.b.b.b.b.b.",
"b.b.b.b.b.b.2.*       ( c.x.c._       : ..%.%.%.%.%.%.%.%.%.%.%...%.%.%.%.%.%.%.%.%.%.%.} @     + y.x.x.x.g       w b.b.b.b.b.b.",
"b.b.b.b.b.b.2.*       ( v.x.v.`       ; ..%.%.%.%.%.%.%.%.%.%.%.=.=.=.=.%.%.%.%.%.%.%.%.} .     + y.x.x.x.g       w b.b.b.b.b.b.",
"b.b.b.b.b.b.2.*       ~ w.w.e./       ; ..%.%.%.%.%.%.%.=...%.%.] F D D { %.%.%.%.%.%.=.} .     O 6.q.q.q.p       w b.b.b.b.b.b.",
"b.b.b.b.b.b.2.;       n %.%.=.G       ; ..%.%.%.%.%.%.@.%.%.%.%.h       k =.=.%.%.%.%.%.} .     .  .%.%.%.2       w b.b.b.b.b.b.",
"b.b.b.b.b.b.2.*       n =.%.=.S       ; ..%.%.%.%.%.%.%.%.%.%.%.k       h =.%.%.%.%.%.%.} .     . ] %.%.@.4       w b.b.b.b.b.b.",
"b.b.b.b.b.b.2.*       n =.=.=.D       ; ..=.%.%.%.%.%.%.%.%.%.%.h       h =.%.%.%.%.%.%.{ .     . } =.=.#.2       w b.b.b.b.b.b.",
"b.b.b.b.b.b.b.w & & & x H H H A 3 2 3 k @.%.%.%.%.%.%.%.%.%.%.%.h       k %.%.%.%.%.%.#.| 4 2 , 2 S H H F 6 & & & m b.b.b.b.b.b.",
"b.b.b.b.b.b.b.2.+.+.2.q       4 $.$.%.%.%.%.%.%.%.%.%.%.%.#.%.=.h       k %.%.%.%.%.%.%.%.%.%.%.| ;       M b.+.+.2.b.b.b.b.b.b.",
"b.b.b.b.b.b.b.b.b.b.b.q       4 %.%.%.%.%.%.%.%.%.%.%.%.%.%.%.%.k       k %.%.%.%.%.%.%.%.%.%.%...$       M b.b.b.b.b.b.b.b.b.b.",
"b.b.b.b.b.b.b.b.b.b.b.q       4 %.=.=.=.*.=.=.=.%.=.=.=.=.%.=.=.h       k =.=.=.=.*.=.=.%.=.=.=...$       M b.b.b.b.b.b.b.b.b.b.",
"b.b.b.b.b.b.b.b.b.b.b.w       , H ' H ' ' ' ' ' H ' H ' ' ' ' ' z > , > b ' H ' ' ' ' ' H H ' H F 4 > , , c V V N E b.b.b.b.b.b.",
"b.b.b.b.b.b.b.b.b.b.b.q             .     .       .         .   A %.$.%.n     .     .     .     . ] %...@.4       w b.b.b.b.b.b.",
"b.b.b.b.b.b.b.b.b.b.b.q                                         A %.%.=.A                       . ] =.%.%.2       w b.b.b.b.b.b.",
"b.b.b.b.b.b.b.b.b.b.b.q                                         A =.%.=.A                       . ] #.%.%.2       w b.b.b.b.b.b.",
"b.b.b.b.b.b.b.T C C C a u u u 9 > > > > ; > > > > > > , : > > : F =.%.%.D ; > > : > > , ;       . ] %.%...4       w b.b.b.b.b.b.",
"b.b.b.b.b.b.2.*       ^ x.j.l.9.$.@.$.$.@.@.@.@.@.@.@.@.@.@.%.$.%.%.%.%...%.....@...%...] .     . ] %.%.%.4       w b.b.b.b.b.b.",
"b.b.b.b.b.b.2.*       ( v.x.x.0.%.%.%.%.%.%.%.%.%.%.%.#.%.%.%.%.%.%.%.%.%.%.%.%.=.%.%.=.{ @     . ] =.%.%.2       w b.b.b.b.b.b.",
"b.b.b.b.b.b.2.*       ( c.x.x.0.%.=.=.=.%.%.%.%.#.%.=.=.%.=.=.=.%.%.%.%.%.%.*.*.#.#.#.*.} .     . ] =.%.%.2       w b.b.b.b.b.b.",
"b.b.b.b.b.b.2.*       ( c.x.x.8.] ' ' } %.%.%.%. .' ] ' ] ' ] ' | %.%.%.#.#.#.*.&.3.3.3.o.3 ; ; , D ] ] ' :       w b.b.b.b.b.b.",
"b.b.b.b.b.b.2.*       ( c.x.c._ . .   > ..%.%.| ;   . .   . .   S %.#.%.%.%.*...4.g.z.z.p.-.....| ;   . .         w b.b.b.b.b.b.",
"b.b.b.b.b.b.2.;       ( c.x.c._       ; ..%.%.| #               A %.#.#.%.%.*.*.4.x.x.x.d.<.%.%...$               w b.b.b.b.b.b.",
"b.b.b.b.b.b.2.*       ( c.c.v.`       ; @.#.#.| #               Z *.*.#.#.*.#...4.x.x.x.d.:.%.%...$               w b.b.b.b.b.b.",
"b.b.b.b.b.b.2.q o o . ~ y.t.y.) ; ; ; 6 >.1.1.o.i 0 0 0 0 0 8 8 J 3.1.1.1.>.1.1.5.p.a.a.w.;.%.%...;       o @ o o y b.b.b.b.b.b.",
"b.b.b.b.b.b.b.O.! ! O.e + + X 6 ......>.h.k.k.k.j.j.j.f.j.j.j.j.k.z.k.z.z.z.z.z.w.:.&.&.&.%.%.%...$       v +.! ! +.b.b.b.b.b.b.",
"b.b.b.b.b.b.b.b.b.b.b.q       5 %.%.#.3.z.x.x.x.x.c.c.c.x.x.x.x.x.x.x.x.x.x.x.x.r.%.%.#.#.%.%.%.| ;       M b.b.b.b.b.b.b.b.b.b.",
"b.b.b.b.b.b.b.b.b.b.b.q       5 #.#.#.3.z.x.x.x.x.x.x.x.x.x.x.x.x.x.x.x.x.x.x.x.r.%.%.=.%.=.=.=...;       M b.b.b.b.b.b.b.b.b.b.",
"b.b.b.b.b.b.b.b.b.b.b.q       3 { { ] X.p.a.a.d.d.a.a.a.a.d.d.d.a.a.a.d.a.a.a.d.9. .{ ] } ] ] { ' #       M b.b.b.b.b.b.b.b.b.b.",
"b.b.b.b.b.b.b.b.b.b.b.q         . . . , -.;.;.;.&.;.;.;.;.;.;.;.;.;.;.;.;.;.;.<.H @ o o . . . . .         M b.b.b.b.b.b.b.b.b.b.",
"b.b.b.b.b.b.b.b.b.b.b.q               ; ..%.#.#.%.#.#.%.#.%.#.%.@.#.#.#.%.#.#.=.H                         M b.b.b.b.b.b.b.b.b.b.",
"b.b.b.b.b.b.b.b.b.b.b.q               ; @.#.%.%.%.%.=.%.%.%.=.%.=.%.=.%.=.=.=.=.F                         M b.b.b.b.b.b.b.b.b.b.",
"b.b.b.b.b.b.b.b.b.b.b.q               $ ] } } } } } } } } } } } } } } } } } } } G = = - - - 7 7 =         y E R T Q b.b.b.b.b.b.",
"b.b.b.b.b.b.b.b.b.b.b.q                 . @ . @ @ . @ . @ . @ . . @ . @ . @ . . f s.f.s.f.f.s.s.i.-         .     t b.b.b.b.b.b.",
"b.b.b.b.b.b.b.b.b.b.b.q                                                         d l.c.c.x.c.x.x.j.0               w b.b.b.b.b.b.",
"b.b.b.b.b.b.b.b.b.b.b.w                                                         d x.x.x.c.c.c.c.j.8               w b.b.b.b.b.b.",
"b.b.b.b.b.b.b.b.b.b.b.w o o o                                                   u u.i.i.i.i.i.i.t.-       o . o o t b.b.b.b.b.b.",
"b.b.b.b.b.b.b.b.b.b.b.! E W W t                                                 X % % % % % % % %         v W W W O.b.b.b.b.b.b.",
"b.b.b.b.b.b.b.b.b.b.b.b.b.b.b.m                                                                           M b.b.b.b.b.b.b.b.b.b.",
"b.b.b.b.b.b.b.b.b.b.b.b.b.b.b.m                                                                           M b.b.b.b.b.b.b.b.b.b.",
"b.b.b.b.b.b.b.b.b.b.b.b.b.b.b.m                                                                           M b.b.b.b.b.b.b.b.b.b."
};
