/* XPM */
static char *_7e1bff50f5d459091a8af05d1de99balZpLYXK1bPqpS3JE[] = {
/* columns rows colors chars-per-pixel */
"64 64 159 2 ",
"   c #010101",
".  c #090705",
"X  c #030A05",
"o  c #0A0906",
"O  c #070709",
"+  c #060D0A",
"@  c #0E0C09",
"#  c #100305",
"$  c #100807",
"%  c #100C09",
"&  c #021207",
"*  c #021409",
"=  c #09120E",
"-  c #021B0A",
";  c #17110C",
":  c #18120D",
">  c #0A1611",
",  c #0D1B14",
"<  c #1D1610",
"1  c #131C16",
"2  c #281E16",
"3  c #261C15",
"4  c #03230D",
"5  c #032A0F",
"6  c #0A2013",
"7  c #042D11",
"8  c #0D271E",
"9  c #12251C",
"0  c #13281E",
"q  c #053213",
"w  c #053B16",
"e  c #063F18",
"r  c #0A3D1A",
"t  c #2B2017",
"y  c #2F2B1D",
"u  c #32251C",
"i  c #37291E",
"p  c #392A1F",
"a  c #152B21",
"s  c #193226",
"d  c #163528",
"f  c #1A3629",
"g  c #1D3C2E",
"h  c #123A22",
"j  c #3C2C21",
"k  c #3C3E2E",
"l  c #412F23",
"z  c #413023",
"x  c #4A3729",
"c  c #543E2E",
"v  c #034117",
"b  c #06441A",
"n  c #09441B",
"m  c #074A1C",
"M  c #04541F",
"N  c #0A5722",
"B  c #095B23",
"V  c #214535",
"C  c #234837",
"Z  c #254C3A",
"A  c #27513E",
"S  c #28523F",
"D  c #385A30",
"F  c #384A2A",
"G  c #096426",
"H  c #046926",
"J  c #0A6C29",
"K  c #0B722B",
"L  c #0B7B2F",
"P  c #0C7E30",
"I  c #4B4131",
"U  c #574130",
"Y  c #5D4533",
"T  c #644735",
"R  c #644A37",
"E  c #664C38",
"W  c #6A4D3A",
"Q  c #704E3C",
"!  c #6D513C",
"~  c #625339",
"^  c #70533E",
"/  c #368D63",
"(  c #2C5A45",
")  c #2F624B",
"_  c #30634B",
"`  c #7E5E45",
"'  c #796848",
"]  c #885F48",
"[  c #846248",
"{  c #916C50",
"}  c #8D7351",
"|  c #957755",
" . c #9C7456",
".. c #A57759",
"X. c #A3795A",
"o. c #A97E5D",
"O. c #0C8332",
"+. c #0D8C35",
"@. c #068D34",
"#. c #0D9037",
"$. c #0E9639",
"%. c #0E9C3C",
"&. c #0FA43F",
"*. c #02AB3D",
"=. c #0FA740",
"-. c #0EAA40",
";. c #10AC42",
":. c #07B342",
">. c #03B942",
",. c #0BB945",
"<. c #11B345",
"1. c #11B947",
"2. c #12BD48",
"3. c #12C34B",
"4. c #14C84D",
"5. c #AB805E",
"6. c #AF8260",
"7. c #B58663",
"8. c #B88664",
"9. c #B78965",
"0. c #BB8B67",
"q. c #BF8C68",
"w. c #A49865",
"e. c #BA9A6C",
"r. c #85B466",
"t. c #88B567",
"y. c #BDB877",
"u. c #BDBC79",
"i. c #C08E69",
"p. c #C3906B",
"a. c #CD9670",
"s. c #CF9A72",
"d. c #D09771",
"f. c #D29C73",
"g. c #DA9E77",
"h. c #CFAD79",
"j. c #DFA57B",
"k. c #C5B679",
"l. c #C1BE7B",
"z. c #CDBA7D",
"x. c #D1BB7F",
"c. c #E0A67B",
"v. c #E6AB7E",
"b. c #91C26E",
"n. c #E9AD80",
"m. c #EEB083",
"M. c #E8BB85",
"N. c #F5B686",
"B. c #F7B788",
"V. c #F7BA89",
"C. c #FDBC8B",
"Z. c #FFBE91",
"A. c #D0C180",
"S. c #FFC18F",
"D. c #FFC592",
"F. c #FFCA95",
"G. c #FFCE9A",
"H. c #FFD39C",
"J. c #FFDAA1",
/* pixels */
"/ / / / / / / / / / / / / / / / / / / / / / / S / / / S S S / S S S S S S S S / S S S S S / / / / / / / / / / / / / / / / / / / ",
"/ / / / / / / / / / / / / / / / / / / / / / ( ( / ( ( ( ( ( ( ( ( ( ( ( ( ( ( ( ( ( ( ( ( / / / / / / / / / / / / / / / / / / / ",
"/ / / / / / / / / / / / / / / / / / / / ( / V V V V V V V V V V V V V V V V V V V V V V C / / / / / / / / / / / / / / / / / ( S ",
"/ / / / / / / / / / / / / / / / / / / / ( g                                             = ( S / / / / / / / / / / / / / / / / / ",
"/ / / / / / / / / / / / / / / / / / / / / V                                             > ( / / / / / / / / / / / / / / / / / / ",
"/ / / / / ( ( ( / / / / / ( / / ( ( / / ( V                                             = ( / ( / ( / / / / / / / / / / / / / / ",
"/ / / A Z Z Z Z / / / / / Z Z Z Z Z Z Z A g         X & & & & & & & & & & & & & - & & & , A Z Z Z A / / / / / / / / / / / / / / ",
"/ / ( 0       X Z / / ( f       X                   G <.&.=.;.&.;.=.;.&.;.&.;.=.&.&.&.-.O.        f ( / / / / / / / / / / / / / ",
"/ / ( 9         Z ( / ( f                       X   J 1.&.<.-.<.;.;.<.-.<.-.<.;.;.<.;.<.O.        f ( / / / / / / / / / / / / / ",
"/ / ( 9         Z ( / ( f                           G 2.;.;.;.;.;.;.;.;.;.;.;.;.;.;.;.<.O.        f ( / ( / / / / / / / / / / / ",
"/ / ( 9         Z / Z ( f   X X X   X X X           G <.&.&.&.-.;.<.;.;.;.;.;.;.;.;.;.<.O.    X   f ( Z A A / / / / / / / / / / ",
"/ / ( a         X O X   b &.$.$.%.%.$.%.&.L         X & & & - &.<.;.;.;.;.<.;.;.;.;.;.<.=.%.%.%.=.r   + X + A / / / / / / / S ( ",
"/ / ( 8                 v 2.;.<.<.<.;.;.1.+.                X &.;.;.;.;.;.<.<.;.;.<.;.;.;.<.<.;.2.e         / / / / / / / / / / ",
"/ / ( 9             X   b <.;.;.;.;.;.;.<.+.                X &.;.;.;.-.;.;.-.;.;.-.;.;.;.-.;.=.1.e       + A ( / / / / / / / / ",
"/ / ( 9                 e 1.;.;.<.;.;.;.<.+.                X &.<.;.<.<.;.;.;.;.<.;.<.<.<.;.;.;.1.e         A ( / ( / / / / / / ",
"/ / ( 9       X O.+.+.+.$.;.;.;.-.;.;.;.;.&.+.+.+.$.w       X - 4 4 * N 1.=.;.<.w - 4 * b <.;.;.-.$.+.+.#.O.= + = . s ( S / / / ",
"/ / ( 9       X &.1.<.<.<.;.;.;.;.;.;.;.;.;.<.<.<.3.m                 b 2.-.=.<.-       4 <.;.;.;.<.<.<.<.&.X       9 ( / / / / ",
"/ / ( 9       X %.;.;.=.;.;.;.;.;.<.;.;.;.<.&.;.&.1.n   X             m <.=.=.<.4   X   7 <.;.;.;.;.;.;.<.%.X       a ( / / / / ",
"/ / ( 8         =.1.<.<.<.;.<.;.;.;.;.;.;.<.<.;.&.2.v                 m 3.<.<.1.-       4 2.<.<.<.<.;.;.<.$.X       9 ( / / / / ",
"/ / / C g g g g q q q 5 B <.;.;.;.;.;.<.;.;.;.;.;.<.#.L L P K X       * q q q 7 | q.7.q.} 5 q q 7 P <.;.<.%.        9 ( A / / / ",
"/ / / / ( ( ( /         w 2.;.;.;.;.;.;.;.<.;.;.<.<.<.3.,.3.&.X                 g.H.S.H.d.        J 1.;.;.%.        0 ( / / / / ",
"/ / / / / / / A +   X   n <.&.;.;.;.;.;.&.;.;.&.&.&.&.&.&.&.&.X           X X   a.D.N.D.i.    .   J 1.;.<.%.X       0 ( / / / / ",
"/ / / / / / / A         e 3.<.1.<.1.1.1.1.1.1.1.1.1.1.&.&.1.&.X                 a.D.V.D.p.        J 1.;.<.%.X       9 ( S / / / ",
"/ / / / / / / / f s s f h b n n b b b b b b b b n v O.1.&.<.&.X       7 K G J H h.S.V.F.i.    X   J 1.=.;.%.X       9 ( / / / / ",
"/ / / / / / / / ( ( ( ) f                           G 1.;.;.&.X       m 4.<.1.1.A.Z.B.D.i.        J 1.=.<.%.X       0 ( / / / / ",
"/ / / / / / / / S S A / f   X   X           X . X   J <.;.-.%.X   X   m <.;.;.=.A.C.C.D.i.        J 1.;.<.%.        0 ( / / / / ",
"/ / / ( ( ( ( ( ( ( ( _ d                           H 4.<.2.&.X   X   v >.*.*.*.z.Z.V.F.p.        J 1.=.-.%.        9 ( / / / / ",
"/ / ( g 0 a a a a a a 8 k [ ` ` [ <       : [ ` ` ] D M N N M X       F b.r.t.r.M.C.C.D.p.    X   J 1.=.<.&.X   X   9 ( S / / / ",
"/ S ( 9                 T J.F.F.H.j       p H.F.D.J.W                 W G.C.Z.Z.C.C.C.F.i.        J 1.=.<.%.X       9 ( / / / / ",
"/ / ( 9         X   .   T D.V.V.S.p   .   u C.V.N.F.E   . . X         Y F.N.V.V.V.V.V.D.p.    X   J 1.=.;.%.X       9 ( A / / / ",
"/ / ( 9                 c F.V.C.D.p   X   u D.C.V.F.Y                 ` J.F.F.F.F.F.F.H.d.        K 4.<.1.&.        9 ( / / / / ",
"/ S ( 9         Y T R U  .D.C.C.D.j       u S.C.C.D.X.U T T Y .   .   j o. . . . . . ...' v n b v B J J J G 9 8 9 , g / / / / / ",
"/ / ( 9       o V.H.F.F.D.C.C.C.D.j       u D.C.C.C.D.F.F.G.C.%                         4 3.1.<.4.e         / ( ( ( / / / / / / ",
"/ / ( 9       o c.C.N.B.C.C.C.V.D.j   .   u S.C.C.C.C.N.B.C.v.%         . X   X   X .   7 -.;.&.<.e   X   + S / / / / / / / / / ",
"/ / ( 9       . B.F.D.F.D.Z.Z.Z.F.u       2 D.C.S.C.D.F.D.F.C.%                         4 2.<.<.3.b       + / / / / / / / / / / ",
"/ / ( s = , > 1 o.q.9.7.e.u.y.u.u.E l x l W D.C.C.S.f.7.9.q.5..       * q 7 q 7 q 7 q 7 n P L L O.7         / / / / / / / / / / ",
"/ / / / ( ( ( /         w >.*.=.*.A.F.F.D.D.C.C.C.F.Y             X   m 3.<.<.1.1.<.<.2.+.                  A / / / / / / / / / ",
"/ / / / / / / A .   .   n <.=.;.*.k.C.B.V.V.C.C.V.F.W   .             b <.=.;.;.-.=.;.<.O.                + / / / / / / / / / / ",
"/ / / / / / / A         b 3.<.<.:.A.D.D.D.D.D.D.S.H.W                 m 3.<.<.<.<.<.<.2.O.                  / / / / / / / / / / ",
"/ / / / / / / S > + = O r $.+.+.@.w.g.s.s.f.f.f.s.j.c                 w $.+.+.+.+.+.+.$.J         . = + + > / / / / / / / / / / ",
"/ / / / / / / / / / / ( f                                                                         f ( S / / / / / / / / / / / / ",
"/ / / / / / / / / / / ( f                                                                         f ( S / / / / / / / / / / / / ",
"/ / / / / / / / / / / ( f                                                                         f ( ( / ( / / / / / / / / / / ",
"/ / / / / / / / / / S ( f X X X O         . : : : : : : : : ;         X & X & & & & X & X         s S Z Z Z / / / / / / / / / / ",
"/ / / / / / / / / / / / / / A A / =       u C.N.N.N.N.B.N.V.v.@       b <.&.=.=.&.=.&.<.P             X   X / ( / / / / ( / / / ",
"/ / / / / / / / / / / / / / / / ( =   .   u D.C.S.S.S.C.C.S.N.%   X   b 2.;.;.<.-.<.;.1.O.                X S / / / / / / / / / ",
"/ / / / / / / / / / / / / / / / ( =       u S.C.C.C.C.C.C.C.m.%   X   m 1.=.;.;.;.;.;.1.O.                X S / / / / / / / / / ",
"/ / / / / / / / / / / / / / / / / =       u D.C.C.C.S.C.C.S.m.%       b 1.;.;.;.;.;.;.<.O.          . . X o S / S S / / / / / / ",
"/ / / / / / / / / / / / / / / / ( =       u S.C.C.C.C.S.C.S.m.%       b 1.;.;.;.;.;.;.<.O.        { N.j.v.f.@   +   a ( / / / / ",
"/ / / / / / / / / / / / / / / / ( =       u D.C.C.C.C.C.C.S.m.%   X   m 1.;.;.;.;.;.;.1.O.    .   o.G.C.F.m..       0 ( / / / / ",
"/ / / / / / / / / / / / / / / / ( =       u S.C.C.C.C.C.C.S.m.%       b 1.;.;.<.;.;.=.<.O.        X.F.N.C.v..     X 9 ( / / / / ",
"/ / / / / / / / / / / / / / ( / ( =       i D.S.S.S.S.D.S.S.N.$       b 1.;.;.;.<.<.<.1.O.    .   ..F.V.D.v..       0 ( / / / / ",
"/ / / / / / / / / / / ( g X > + =         . u u u u u u u u y O.+.+.+.$.<.;.;.-.w - 4 4 -         X.F.V.D.v..       9 ( A / / / ",
"/ / / / / / / / / / S ( f                                   X &.1.<.<.<.;.;.;.<.-                 X.F.V.C.v..       0 ( / / / / ",
"/ / / / / / / / / / S ( f     X   .           . .   X   .   + %.;.;.=.=.;.;.;.;.5             .   o.D.V.D.v..       9 ( / / / / ",
"/ / / / / / / / ( ( / _ f                                     ;.1.1.<.1.<.<.<.1.4                  .F.V.D.v..       9 ( / / / / ",
"/ / / / / / / / , , 1 + I q.6.9.7.7.7.7.7.7.7.7.7.7.7.7.7.8.o.r q q q q q q q q X       2 q.7.7.7.v.D.C.D.v..       9 ( / / / / ",
"/ / / / / / / /         T H.D.F.D.F.F.F.F.D.F.F.F.F.D.F.D.F.C.#                         l H.D.F.F.C.C.C.S.v..       a ( / / / / ",
"/ / / / / / / Z .       U D.N.V.V.V.B.B.B.V.B.V.N.B.V.V.N.C.v.%                         p C.B.V.N.B.V.V.C.v..       a ( / / / / ",
"/ / / / / / ( Z X   X   E J.F.F.F.F.F.F.F.F.F.F.F.F.F.F.F.G.C.%                         l H.F.F.F.F.F.F.G.B..       a ) / ( ( / ",
"/ / / / / / / / X       3 ! E E R W R E R E E W E E E E W W Y .                         : W E W E E E E W Y .       + a 1 8 1 Z ",
"/ / / / / / ( Z X                                                                                                             V ",
"/ / / / / / / S .                 .       .     .                                               .                             V ",
"/ / / / / / / S X                                                                                                             V "
};
