/* XPM */
static char *linkright1679129195[] = {
/* columns rows colors chars-per-pixel */
"64 64 159 2 ",
"   c #010101",
".  c #090705",
"X  c #030A05",
"o  c #0A0906",
"O  c #070709",
"+  c #060D0A",
"@  c #0E0C09",
"#  c #100305",
"$  c #100807",
"%  c #100C09",
"&  c #021207",
"*  c #021409",
"=  c #09120E",
"-  c #021B0A",
";  c #17110C",
":  c #18120D",
">  c #0A1611",
",  c #0D1B14",
"<  c #1D1610",
"1  c #131C16",
"2  c #281E16",
"3  c #261C15",
"4  c #03230D",
"5  c #032A0F",
"6  c #0A2013",
"7  c #042D11",
"8  c #0D271E",
"9  c #12251C",
"0  c #13281E",
"q  c #053213",
"w  c #053B16",
"e  c #063F18",
"r  c #0A3D1A",
"t  c #2B2017",
"y  c #2F2B1D",
"u  c #32251C",
"i  c #37291E",
"p  c #392A1F",
"a  c #152B21",
"s  c #193226",
"d  c #163528",
"f  c #1A3629",
"g  c #1D3C2E",
"h  c #123A22",
"j  c #3C2C21",
"k  c #3C3E2E",
"l  c #412F23",
"z  c #413023",
"x  c #4A3729",
"c  c #543E2E",
"v  c #034117",
"b  c #06441A",
"n  c #09441B",
"m  c #074A1C",
"M  c #04541F",
"N  c #0A5722",
"B  c #095B23",
"V  c #214535",
"C  c #234837",
"Z  c #254C3A",
"A  c #27513E",
"S  c #28523F",
"D  c #385A30",
"F  c #384A2A",
"G  c #096426",
"H  c #046926",
"J  c #0A6C29",
"K  c #0B722B",
"L  c #0B7B2F",
"P  c #0C7E30",
"I  c #4B4131",
"U  c #574130",
"Y  c #5D4533",
"T  c #644735",
"R  c #644A37",
"E  c #664C38",
"W  c #6A4D3A",
"Q  c #704E3C",
"!  c #6D513C",
"~  c #625339",
"^  c #70533E",
"/  c #368D63",
"(  c #2C5A45",
")  c #2F624B",
"_  c #30634B",
"`  c #7E5E45",
"'  c #796848",
"]  c #885F48",
"[  c #846248",
"{  c #916C50",
"}  c #8D7351",
"|  c #957755",
" . c #9C7456",
".. c #A57759",
"X. c #A3795A",
"o. c #A97E5D",
"O. c #0C8332",
"+. c #0D8C35",
"@. c #068D34",
"#. c #0D9037",
"$. c #0E9639",
"%. c #0E9C3C",
"&. c #0FA43F",
"*. c #02AB3D",
"=. c #0FA740",
"-. c #0EAA40",
";. c #10AC42",
":. c #07B342",
">. c #03B942",
",. c #0BB945",
"<. c #11B345",
"1. c #11B947",
"2. c #12BD48",
"3. c #12C34B",
"4. c #14C84D",
"5. c #AB805E",
"6. c #AF8260",
"7. c #B58663",
"8. c #B88664",
"9. c #B78965",
"0. c #BB8B67",
"q. c #BF8C68",
"w. c #A49865",
"e. c #BA9A6C",
"r. c #85B466",
"t. c #88B567",
"y. c #BDB877",
"u. c #BDBC79",
"i. c #C08E69",
"p. c #C3906B",
"a. c #CD9670",
"s. c #CF9A72",
"d. c #D09771",
"f. c #D29C73",
"g. c #DA9E77",
"h. c #CFAD79",
"j. c #DFA57B",
"k. c #C5B679",
"l. c #C1BE7B",
"z. c #CDBA7D",
"x. c #D1BB7F",
"c. c #E0A67B",
"v. c #E6AB7E",
"b. c #91C26E",
"n. c #E9AD80",
"m. c #EEB083",
"M. c #E8BB85",
"N. c #F5B686",
"B. c #F7B788",
"V. c #F7BA89",
"C. c #FDBC8B",
"Z. c #FFBE91",
"A. c #D0C180",
"S. c #FFC18F",
"D. c #FFC592",
"F. c #FFCA95",
"G. c #FFCE9A",
"H. c #FFD39C",
"J. c #FFDAA1",
/* pixels */
"/ / / / / / / / / / / / / / / / / / / / S / / / S / / / / / / / / S / / S S S / / / / / / / / / / / / / / / / / / / / / / / / / ",
"/ / / / / / / / / / / / / / / / / / / ( ( ( ( / ( / ( ( / ( / ( ( ( ( / ( ( ( ( ( / / / / / / / / / / / / / / / / / / ( / / / / ",
"/ / / / / / / / / / / / / / / / / / / Z V V V V V V V V V V V V V V V V V V V V V V / / / / / / / / / / / / / / / / / / / / / / ",
"/ / / / / / / / / / / / / / / / / / / =                                             V ( / / / / / / / / / / / / / / / / / / / / ",
"/ / / / / / / / / / / / / / / / / / / >                                             V / / / / / / / / / / / / / / / / / / / / / ",
"/ / / / / / / / / / / / / / / ( / / ( =                                             V ( / / / ( / / / / / / / / ( / ( / ( / / / ",
"/ / / / / / / / / / / / / / / Z A Z Z 6 X * & & & & & & & & & & & & * * * X         g Z Z Z Z Z Z Z Z / / / / / Z Z Z Z A / / / ",
"/ / / / / / / / / / / / / ( f         O.<.&.=.;.=.;.&.;.=.;.&.;.=.-.&.&.<.G           X         X     f ( / / Z O       9 ( / / ",
"/ / / / / / / / / / / / / ( f         O.1.-.<.;.<.;.<.;.<.;.<.;.;.;.;.;.1.G                           f ( S / Z         9 ( / / ",
"/ / / / / / / / / / / / / ( f         O.1.;.;.;.;.;.-.;.;.;.-.;.;.<.;.;.1.J                           f ( / ( Z         9 ( / / ",
"/ / / / / / / / / / S A A ( f   X X   O.<.;.;.;.;.;.<.;.;.;.;.;.;.&.&.&.<.G               X X     X   f / S A Z X       9 ( / / ",
"/ / / / / / / / / S = X O   e &.%.%.%.;.;.;.;.;.;.;.;.;.;.;.;.<.&.- & & & X         O.&.%.%.%.%.%.%.&.b   + O X         9 ( / / ",
"/ / / / / / / / / A X       v 2.;.<.;.;.;.;.;.;.;.;.<.-.;.;.;.;.&.X                 +.1.<.<.<.<.<.;.2.v                 9 ( / / ",
"/ / / / / / / / / A O       e 1.=.;.;.;.<.;.;.;.;.;.;.;.;.-.;.<.&.X                 O.1.=.;.;.;.-.-.1.b                 9 ( / / ",
"/ / / / / / / / / / O       e 1.;.;.;.;.-.<.;.<.;.;.;.;.;.<.;.1.&.X                 +.1.;.;.;.;.;.;.1.r                 8 ( / / ",
"/ / / / ( a + = + = O.+.+.+.%.;.;.;.1.v - 4 - w <.;.;.1.B * 4 4 -         w $.+.+.+.&.-.;.;.;.;.;.;.;.$.+.+.#.O.        9 ( / / ",
"/ / / S ( 0         &.1.<.<.1.;.;.&.1.4       - <.-.;.1.v                 m 3.;.<.1.;.;.<.;.;.;.;.<.-.<.<.<.<.=.X       9 ( / / ",
"/ / / / ( 0       X %.<.;.&.&.;.;.;.<.5   X   4 <.-.&.1.n                 n 1.=.;.;.;.;.;.;.;.;.;.;.;.;.;.;.;.%.        9 ( / / ",
"/ / / / ( 9         %.-.;.;.<.1.1.<.2.4       - 1.<.1.3.m                 e 1.;.;.;.<.;.;.;.;.;.;.;.;.<.<.<.1.=.        9 ( / / ",
"/ / / / ( 0       X %.<.;.<.L 5 q q 5 } i.7.i.| 7 q 7 q *       X K P P P #.<.;.;.;.;.;.;.;.;.;.;.;.1.B 5 q q q V g g g C / / / ",
"/ / / / ( 0       X %.<.-.1.J         a.H.D.G.g.                X &.2.<.1.<.;.;.;.;.;.;.;.;.;.;.;.;.1.w         / ( / ( ( / / / ",
"/ / / S ( 0         %.<.;.1.J         p.D.N.S.a.      X         X &.<.-.;.;.;.=.;.;.;.;.;.;.;.;.;.;.<.b   X   + A / / / / / / / ",
"/ / / / ( 0       X %.;.;.1.J         p.D.V.D.a.                X &.-.;.;.;.1.1.1.1.1.1.1.1.1.1.1.<.4.v         A / / / / / / / ",
"/ / / / ( 0         %.<.=.1.J         p.D.V.D.h.H J G K 7       X &.<.;.1.O.w b b b n v n v n v e v b h s s s f / / / / / / / / ",
"/ / / / ( 0       X %.<.;.1.J   X     p.F.V.Z.A.<.1.1.3.m       X &.<.&.2.G                           f _ ( ( ( / / / / / / / / ",
"/ / / A ( 0         %.<.&.1.J         p.D.C.C.A.=.;.=.1.b       X %.;.&.1.J   .   O           X X .   f / S S / / / / / / / / / ",
"/ / / / ( 0       X %.<.;.1.J         p.F.V.Z.A.*.*.*.:.b       X ;.2.1.4.H                           d _ ( ( ( ( ( ( ( ( / / / ",
"/ / / / ( 9         %.;.;.1.J         p.D.C.C.M.r.t.r.b.F   X     M B M M D ] ` ` [ :       < [ ` ` [ k 8 a 0 a a a a 0 g / / / ",
"/ / / / ( 9         %.<.&.1.J   X     p.D.C.C.C.Z.Z.Z.G.W                 W J.F.F.H.p   X   j H.F.D.J.R                 8 ( / / ",
"/ / / S ( 0       X %.;.&.1.J   X     i.D.V.V.C.V.V.N.D.E           X o   E D.N.V.C.u       p S.B.B.D.T   .   O         0 ( S / ",
"/ / / / ( 9         &.2.1.3.K         a.H.D.F.F.F.F.F.J.`                 Y G.V.C.S.u   .   j D.C.V.F.c                 9 ( / / ",
"/ / / S ( g , 8 8 9 G J J J B v b b v ' .. . . . . . .o.j         Y R R c X.D.C.C.D.u       j D.C.C.D. .U R R Y         9 ( S / ",
"/ / / / / ( ( ( ( /         w 3.1.<.3.4                         % C.F.F.F.D.C.C.C.D.u       j D.C.C.C.D.F.F.G.V.o       9 ( / / ",
"/ / / / / / / / / A O       e 1.&.=.;.7 .   X X X   X X         % n.C.B.V.V.C.S.C.Z.u   .   j D.V.C.C.V.V.B.C.c.o       9 ( / / ",
"/ / / / / / / / ( A X       v 3.<.<.2.4                         % C.F.D.D.D.C.C.C.D.2       u D.Z.Z.Z.D.F.D.F.N..       9 ( / / ",
"/ / / / / / / / / / X       7 O.L P O.v 7 7 7 7 q 7 q q &       o 5.0.0.7.g.D.C.C.D.! j x l ~ l.y.y.u.e.8.9.q.5.1 > , = s ( / / ",
"/ / / / / / / / / A X                 +.3.<.1.1.1.1.<.3.m                 Y G.V.C.C.D.D.D.D.A.*.*.*.,.w         / ( ( ( / / / / ",
"/ / / / / / / / / / X                 O.<.&.&.;.&.;.&.<.b             .   E F.V.C.C.C.C.V.C.k.-.;.;.1.n   X   O A / / / / / / / ",
"/ / / / / / / / / Z X                 +.1.<.<.1.<.1.<.3.m                 ! H.S.D.D.D.D.D.D.A.:.<.<.2.b         A / / / / / / / ",
"/ / / / / / / / / / > + = + X         J $.+.+.+.+.+.+.$.w                 c c.a.f.f.f.f.s.g.w.@.+.+.$.h O = + > / / / / / / / / ",
"/ / / / / / / / / / / / / ( f                                                                         f ( / / / / / / / / / / / ",
"/ / / / / / / / / / / / / ( f                                                                         f ( / / / / / / / / / / / ",
"/ / / / / / / / / / / / / ( f                                                                         f ( / / / / / / / / / / / ",
"/ / / / / / / / / / A Z Z / s         X & X & & & & X &           ; : : : : ; : : :           X O X   g ( / / / / / / / / / / / ",
"/ / / / / / / / / / O   X             P -.;.&.=.&.=.&.<.b       @ v.V.N.B.B.B.N.N.C.u       = / A A A / / / / / / / / / / / / / ",
"/ / / / / / / / / A X                 O.1.;.<.;.<.;.-.2.m   X   o N.D.C.C.C.S.S.C.D.u       = ( / / / / / / / / / / / / / / / / ",
"/ / / / / / / / / / X                 O.1.;.;.;.;.;.;.1.b       $ N.C.C.C.C.C.C.C.C.u   X   = / / / / / / / / / / / / / / / / / ",
"/ / / / / / / / / Z o . X .           O.<.;.;.;.;.;.;.2.b       % n.S.C.C.C.S.C.C.D.i       = ( / / / / / / / / / / / / / / / / ",
"/ / / / ( a   O X @ a.m.j.N.{         O.<.;.;.;.;.;.;.1.m       o N.S.C.C.S.C.C.C.S.u       > / / / / / / / / / / / / / / / / / ",
"/ / / / ( 9       O m.D.C.H.o.        O.<.;.;.;.;.;.;.2.n       % n.S.C.C.C.C.C.C.D.u   X   = ( / / / / / / / / / / / / / / / / ",
"/ / / S ( a       o v.S.N.F.X.  X     O.<.;.;.;.;.;.;.1.m       % m.S.C.C.C.C.C.C.S.u       = / / / / / / / / / / / / / / / / / ",
"/ / / / ( 9       . v.S.V.F.X.        O.2.<.;.<.;.;.;.1.b       $ N.D.S.S.D.D.C.S.D.i       = ( / / / / / / / / / / / / / / / / ",
"/ / / A ( 9   .   . v.S.C.F.X.  .     - 4 4 - w <.;.;.;.$.+.+.+.O.i u y u u u u u u .       O = = = O g ( / / / / / / / / / / / ",
"/ / / / ( 9       . v.D.B.F.X.                - ;.;.;.;.<.<.<.1.&.                                    f ( S / / / / / / / / / / ",
"/ / / / ( 9       . v.S.V.F.o.  X   X         4 ;.;.;.;.;.=.=.;.&.+   .   . .     .                   f ( S / S / / / / / / / / ",
"/ / / A ( a       . v.S.V.F. .                4 2.1.<.1.<.1.1.1.&.                                    f ) / ( ( / / / / / / / / ",
"/ / / A ( 0       . v.S.C.S.v.5.9.7.0.t       X q q q q q q q q r o.9.7.7.7.7.7.8.7.8.7.7.7.8.7.7.6.0.c * , , , / / / / / / / / ",
"/ / / / ( 0       . v.D.C.C.S.F.F.D.G.j   X                     # C.G.D.D.D.F.F.D.F.F.D.F.F.D.F.F.D.J.T         S / / / / / / / ",
"/ / / / ( 9       . v.C.V.C.V.B.N.N.S.p                         % v.C.B.B.B.B.B.V.B.B.V.N.V.V.V.B.N.D.Y   .   X S / / / / / / / ",
"/ ( ( ( ) a       . B.G.F.F.F.F.F.F.H.l                         % C.F.F.F.G.F.F.F.F.F.F.F.F.F.F.F.D.J.E       X S / / / / / / / ",
"Z 9 , 9 9 +         T W E E E E W E W :                         X T W E E E E E W E E R E E E E E E ! 3       X S ( / / / / / / ",
"V                                                                                                             O S / / / / / / / ",
"V                       .                                           .         X     .         .   .           X S / / / / / / / ",
"C                                                                                                             X S / / / / / / / "
};
