/* XPM */
static char *_678966180097[] = {
/* columns rows colors chars-per-pixel */
"64 64 21 1 ",
"  c #9BD4C3",
". c #9CD5C3",
"X c #B0DFBE",
"o c #B1E0BE",
"O c #AFDFBE",
"+ c #B2E0BE",
"@ c #AEDEBF",
"# c #9AD3C3",
"$ c #B2E1BE",
"% c #A0D7C2",
"& c #A1D7C2",
"* c #AADCC0",
"= c #ACDDBF",
"- c #ABDDBF",
"; c #B0E0BE",
": c #9DD5C3",
"> c #B3E1BE",
", c #9AD3C2",
"< c #A0DBC9",
"1 c #81AFA2",
"2 c white",
/* pixels */
"                                                   .Xooooooooooo",
"                                                   .Oooooooooooo",
"                                                   .X+oooooooooo",
"                                                   .@XOXXXXXXXXX",
"                                                    ............",
"                                                                ",
"                                                                ",
"                            ............                        ",
"                           .@XOXXXXXXOX@.                       ",
"                           .X+oooooooo+X.                       ",
"                           .X+oooooooo+X.                       ",
"                           .@XOXXXXXXOX@.                       ",
"                            ............                        ",
"                                                                ",
"                                                                ",
"                                                                ",
"                                                                ",
"                                                                ",
"                                                                ",
"............                                                ....",
"XXXXXXXXXOX@.                                              .@XOX",
"oooooooooo+X.                                              .X+oo",
"oooooooooo+X.                                              .X+oo",
"XXXXXXXXXOX@.                                              .@XOX",
"............                                                ....",
"                                                                ",
"                                                                ",
"                                                                ",
"                                                                ",
"                                                                ",
"                                                                ",
"                                    ................            ",
"                                   .@XOXXXXXXXXXXOX@.           ",
"                                   .X+oooooooooooo+X.           ",
"                                   .X+oooooooooooo+X.           ",
"                                   .@XOXXXXXXXXXXOX@.           ",
"                                    ................            ",
"                                                                ",
"                                                                ",
"                ........                                        ",
"               .@XOXXOX@.                                       ",
"               .X+oooo+X.                                       ",
"               .X+oooo+X.                                       ",
"               .@XOXXOX@.                                       ",
"                ........                                        ",
"                                                                ",
"                                                                ",
"                                                    ............",
"                                                   .@XOXXXXXXXXX",
"                                                   .Xooooooooooo",
"                            ############           .o$$$$$$$$$$$",
"                            %&&&&&&&&&&%           .*=----------",
"                           .o$+$$$$$$+$o.           ############",
"                           .Oo;oooooo;oO.                       ",
"                           :o>$$$$$$$$>o:                       ",
"                           .*=--------=*.                       ",
"                            ############                        ",
"                                                                ",
"                                                                ",
"                                                                ",
"                                                                ",
",,,,,,,,,,,,,,,,,,,,,,,,,,,,,,,,,,,,,,,,,,,,,,,,,,,,,,,,,,,,,,,,",
"<<<<<<<<<<<<<<<<<<<<<<<<<<<<<<<<<<<<<<<<<<<<<<<<<<<<<<<<<<<<<<<<",
"1111111111111111111111111111111111111111111111111111111111111111"
};
