/* XPM */
static char *_678983480720[] = {
/* columns rows colors chars-per-pixel */
"63 64 176 2 ",
"   c #010101",
".  c #030806",
"X  c #000008",
"o  c #050D09",
"O  c #07110C",
"+  c #08160F",
"@  c #010215",
"#  c #01011B",
"$  c #0A1917",
"%  c #0C2016",
"&  c #0E2419",
"*  c #010223",
"=  c #02032F",
"-  c #020334",
";  c #01013D",
":  c #1A4431",
">  c #1C4933",
",  c #1F503C",
"<  c #21573D",
"1  c #225A3F",
"2  c #020243",
"3  c #060E42",
"4  c #0B0B46",
"5  c #03034A",
"6  c #090948",
"7  c #091544",
"8  c #0B1748",
"9  c #11154B",
"0  c #030353",
"q  c #03035C",
"w  c #090959",
"e  c #15374C",
"r  c #173A4D",
"t  c #040461",
"y  c #050860",
"u  c #0C0C65",
"i  c #060669",
"p  c #0B0B69",
"a  c #0F1068",
"s  c #111169",
"d  c #040471",
"f  c #0D0D74",
"g  c #04057D",
"h  c #06087C",
"j  c #121275",
"k  c #13137C",
"l  c #1A197F",
"z  c #0F2361",
"x  c #112761",
"c  c #192C67",
"v  c #3D3D6B",
"b  c #1B4651",
"n  c #1D4A51",
"m  c #205157",
"M  c #225955",
"N  c #286A4A",
"B  c #2E765D",
"V  c #307E5A",
"C  c #255663",
"Z  c #235A62",
"A  c #296B62",
"S  c #317F63",
"D  c #454573",
"F  c #55567E",
"G  c #32825B",
"H  c #34885F",
"J  c #328361",
"K  c #368D63",
"L  c #379064",
"P  c #389365",
"I  c #389368",
"U  c #040585",
"Y  c #04058C",
"T  c #161684",
"R  c #18188A",
"E  c #050591",
"W  c #070894",
"Q  c #090995",
"!  c #070798",
"~  c #070899",
"^  c #08099A",
"/  c #222285",
"(  c #26258B",
")  c #0808AE",
"_  c #1E1DAB",
"`  c #0809B4",
"'  c #0909BC",
"]  c #2524B5",
"[  c #2A29B0",
"{  c #302FB0",
"}  c #3333B3",
"|  c #5C5C86",
" . c #42439D",
".. c #62629C",
"X. c #4142A1",
"o. c #6060A0",
"O. c #090AC6",
"+. c #0A0BCA",
"@. c #0F10CD",
"#. c #1112CC",
"$. c #0B0BD1",
"%. c #1414D3",
"&. c #1A1AD7",
"*. c #1D1DDA",
"=. c #2A29C4",
"-. c #2C2ACB",
";. c #2E2DD2",
":. c #2121DE",
">. c #312FDC",
",. c #2323E2",
"<. c #2827E0",
"1. c #2929E5",
"2. c #2C2CEA",
"3. c #302FE6",
"4. c #302FEC",
"5. c #3635E8",
"6. c #3434ED",
"7. c #3635F4",
"8. c #3837F6",
"9. c #3B3AF6",
"0. c #3735FD",
"q. c #3937FB",
"w. c #3B39FD",
"e. c #403EFD",
"r. c #4746D1",
"t. c #4C4BDE",
"y. c #6B6CDE",
"u. c #4847E9",
"i. c #504FE6",
"p. c #5251EC",
"a. c #5D5EEE",
"s. c #4343F5",
"d. c #4C4CF6",
"f. c #4443FD",
"g. c #4A48FD",
"h. c #5554F5",
"j. c #5857F4",
"k. c #5B5BF5",
"l. c #5352FC",
"z. c #5D5CFD",
"x. c #7072E4",
"c. c #7678EE",
"v. c #797BED",
"b. c #6364F6",
"n. c #6B6CF6",
"m. c #6F6DFE",
"M. c #7273F6",
"N. c #7678F6",
"B. c #7C7EF6",
"V. c #7979FB",
"C. c #7F81F6",
"Z. c #9D9DC1",
"A. c #A2A2C4",
"S. c #B8B8CB",
"D. c #8183F6",
"F. c #8687FC",
"G. c #9B9AF4",
"H. c #A09FFD",
"J. c #AFADF4",
"K. c #A4A3FD",
"L. c #B9B7FD",
"P. c #BAB9FA",
"I. c #C9CAD9",
"U. c #D3D3DD",
"Y. c #C4C3F5",
"T. c #C6C5FB",
"R. c #CCCCFE",
"E. c #D3D3F5",
"W. c #D1D1FF",
"Q. c #E0DFFE",
"!. c #E1E1FD",
"~. c #EFEFFE",
"^. c #F2F1F6",
"/. c #F8F8F6",
"(. c #F5F5FD",
"). c #FEFEFE",
/* pixels */
"K K K K K K K K K K K K K K K K K K K K K K K K K K K K K K K K K K K K K K K K K K K K K K K K K K K K K K K K K K K K K K K ",
"K K K K K K K K K K K K K K K K K K K K K K K K K K K P P L P P P P P L K K K K K K K K K K K K K K K K K K K K K K K K K K K ",
"K K K K K K K K K K K K K K K K K K K K K K K K K K K e e e e e r e r J K K K K K K K L K K K K K K K K K L K K K K K K K K K ",
"K K K K K K K K K K K K K K K K K K K K K K K K K K V ; ; ; ; ; ; ; 2 V K K K K K K K K K K K K K K K K K K K K K K K K K K K ",
"K K K K K K K K K K K K K K K K K K K K K K K G J J B 6 2 5 6 4 4 4 4 B J J J K K K K K K K K K K K K K K K K K K K K K K K K ",
"K K K K K K K K K K K K K K K K K K K K K K J 7 3 3 4 ;.>.>.5.I.U.U.I.9 3 3 7 J K K K K K K K K K K K K K K K K K K K K K K K ",
"K K K K K K K K K K K K K K K K K K K P P P H ; ; ; 2 8.w.w.g.(.).)./.6 ; - ; G P P P K K K K K K K K K K K K K K K K K K K K ",
"K K K K K K K K K K K K K K K K K L J n b b b k k T T 8.w.w.f.L.P.P.P.| F F | n b b n J K K K K K K K K K K K K K K K K K K K ",
"K K K K K K K K K K K K K K K K K K V 2 ; ; 5 8.w.w.w.w.w.w.w.w.w.w.f.(.).)./.4 2 ; 6 V K K K K K K K K K K K K K K K K K K K ",
"L K K K K K K K K K K K K K K K K K S ; 2 ; 5 8.w.w.w.w.w.w.w.w.w.w.g.(.).).^.4 2 ; 2 V K K K K K K K L K K K K K K K K K K L ",
"K K K K K K K K K K L K K K J 8 7 8 8 =.-.-.-.w.w.w.w.w.w.w.w.l.l.l.l.m.m.m.V.S.S.S.S.9 7 7 9 J K K H L K K K K K K K K K K K ",
"K K K K K K K K K K K P P P G ; - ; 5 8.w.w.w.w.w.w.w.w.w.w.w.z.b.z.z.w.0.0.e.(.).)./.4 ; - ; S P P L K K K K K K K K K K K K ",
"K K K K K K K K K K L M M M m a a u j 8.w.w.w.w.w.w.w.;.-.;.-.r.r.r.r.f.f.f.g.R.W.W.T.D C v v m M C Z K K K K K K K K K K K K ",
"K K K K K K K K K K J 2 ; ; 5 5.8.8.7.q.w.w.w.w.w.w.8.5 2 2 2 2 2 2 6 h.z.z.z.e.w.e.f.(.).(.^.s y y y S K K K K K K K K K K K ",
"K K K K K K K L L L J 2 ; ; 5 6.8.9.8.w.w.w.w.w.w.w.8.5 ; ; ; ; ; ; 5 j.z.z.z.w.w.w.f.(.).).^.s q t q J L L L K K K K K K K K ",
"K K K K K K G & % % $ i d d i T T T T 8.q.w.8.R T T T ] ] ] ] ^ ~ ~ Q / / / ( d.l.l.l.o.o.o...Z.Z.A.Z.c z x x J K K K K K K K ",
"K K K K K K G       X U Y E Y ; ; - 2 6.q.q.6.2 ; - 2 8.w.w.0.$.$.$.O.2 - ; 2 j.z.z.j.t q q a /.).).(.s t q t S K K K K K K K ",
"K K K K K K V       X U Y Y Y 5 5 5 0 ;.>.>.;.w w w u s.f.f.f.%.%.%.#.q 0 0 w t.i.i.i.k f f l ^.).).^.s t y y S K K K K K K K ",
"K K K K K K V       X U Y Y Y Y Y Y U 5 5 5 w 3.6.6.6.N.C.C.N.9.4.7.4.O.' O.' p i p f 5.7.7.e.(.).).^.s q t y S K K K K K K K ",
"K K K K K K G       X U Y Y Y E Y Y Y ; - ; 5 5.q.9.9.C.C.C.B.8.7.q.6.+.O.O.O.t q q i q.w.w.g.(.).)./.s t t y S K K K K K K K ",
"K K K K K K G       X U Y Y Y t t t y U U U Y :.,.:.,.h.k.k.k.k.k.k.k.<.:.:.:.Q ! ! ! _ _ _ [ !.(.~.!.a q y y S K K K K K K K ",
"K K K K K K G       X U Y Y Y 2 2 ; 2 ' +.+.O.O.O.O.O.7.7.7.9.C.D.D.C.w.8.8.7.+.+.+.O.q q q s E.!.E.E.s q t y S K K K K K K K ",
"K K K K K K V       X U Y Y U 2 ; ; 2 O.+.+.+.O.O.O.+.4.7.7.9.N.B.B.N.s.e.9.9.#.+.+.O.y t q s E.!.Q.E.s t q y S K K K K K K K ",
"K K K K K K V .     X U Y Y Y 2 ; 2 5 2.7.6.6.+.O.O.O.@.@.@.#.9.9.e.s.M.N.N.M.6.7.7.3.i t q a Y.W.W.Y.s t t y S K K K K K K K ",
"K K K K K K V       X U Y E Y 2 ; 2 2 6.8.8.7.+.O.O.O.O.O.O.+.7.8.8.9.B.D.D.B.9.q.8.6.i t t s Y.R.R.Y.s t t y S K K K K K K K ",
"K K K K K K V       X U Y Y Y ; ; ; 5 p.h.h.h.*.&.*.&.+.O.O.+.,.<.<.<.k.b.b.b.h.h.h.p.i t q s P.T.T.P.s t t y S K K K K K K K ",
"K K K K K K G       X U Y Y Y 2 ; ; 6 v.D.D.C.9.8.8.7.+.O.+.O.O.O.O.+.7.8.8.w.B.D.D.v.p t t s J.L.L.J.p t t y S K K K K K K K ",
"K K K K K K G       X U Y Y U ; 2 ; 6 v.C.D.B.9.8.q.8.+.O.+.+.O.+.O.+.7.7.8.8.B.B.B.c.u t q p J.L.L.J.s t q y S K K K K K K K ",
"K K K K K K G       X U Y Y Y 2 ; ; 5 v.D.D.B.M.M.M.n.6.2.4.2.O.O.O.O.%.%.#.%.s.s.s.e.u q t u G.H.K.G.p t t w S K K K K K K K ",
"K K K K K K G       X U Y Y U 2 ; ; 6 v.C.C.C.D.D.D.C.8.q.8.7.+.O.O.O.O.O.O.+.8.q.q.5.u t q u H.H.H.G.p t y y S K K K K K K K ",
"K K K K K K G       X U Y Y Y 2 2 ; 6 v.C.C.C.C.C.C.B.l.d.d.d.&.%.%.%.+.O.+.+.1.1.1.>.i t t p D.F.F.D.p t q y S K K K K K K K ",
"K K K K K K V       X U Y Y Y 2 ; ; 6 c.C.C.C.C.C.C.C.C.C.C.B.8.8.q.7.+.O.O.O.O.O.O.O.i t q p k.z.z.j.p t t y S K K K K K K K ",
"K K K K K K V       X U Y Y Y 2 ; ; 6 v.C.C.C.C.C.C.C.C.C.C.B.9.8.q.7.+.O.+.O.O.O.O.O.t t t i j.z.z.j.p t q y S K K K K K K K ",
"L K K K K L V .     X U Y Y U 2 ; 2 2 u.d.d.d.B.C.C.C.C.C.C.C.n.n.n.n.2.1.2.1.O.O.O.' t t t p j.z.z.h.p t t y S K K K K K K K ",
"H L K K K K V       X U Y Y U 2 ; 2 6 6.q.7.8.C.C.D.C.C.C.C.C.D.C.C.C.7.7.q.7.+.O.O.O.t t q p j.z.z.j.p t q y S K K K K K K K ",
"K L K K K K V .     X Y Y Y Y 2 ; ; 5 1.4.4.6.n.M.M.M.C.C.C.C.C.C.C.C.d.g.s.s.%.%.%.#.i t t p j.z.z.j.p t t y S K K K K K K K ",
"K K K K K K V       X U Y Y Y ; ; ; 2 O.+.O.+.7.q.9.9.C.C.C.C.C.C.C.C.C.C.C.B.8.8.8.6.i t y p j.z.z.j.p t t y S K K K K K K K ",
"K K K K K K V       X U E Y Y 2 2 ; 2 ' +.O.+.7.8.8.9.C.D.D.D.C.C.C.C.C.C.C.B.9.8.q.4.i q q i j.z.z.j.i q t y S K K K K K K K ",
"K K K K K K G       X U Y Y Y 2 ; ; 5 ' O.O.+.&.*.&.*.h.h.h.j.B.C.C.C.C.C.C.C.b.b.b.a.u t t p j.z.z.j.p t q y S K K K K K K K ",
"K K K K K K V       X U Y Y U 2 ; ; 2 O.+.O.+.O.+.O.+.7.8.8.8.B.C.C.C.C.C.C.C.C.D.D.v.p t q i j.z.z.j.t t t y S K K K K K K K ",
"K K K K K K V       X U Y Y U 5 5 5 0 ` ` ` ' O.O.O.+.2.7.7.7.M.N.B.N.C.C.C.B.x.x.x.y.k f f k k.z.z.j.i t t y S K K K K K K K ",
"K K K K K K V .     X U Y Y Y Y Y U U 5 2 5 0 ' O.O.O.+.+.+.@.8.9.9.9.C.D.B.v.j s p j p.h.j.j.z.z.z.j.p t t y S K K K K K K K ",
"K K K K L L V       X U Y Y Y E Y E Y 2 ; ; 2 O.+.+.+.+.O.O.+.7.9.9.9.C.D.F.B.y q q y k.z.b.z.z.z.z.j.p q y y S K K K K K K K ",
"K K K K H H V .     X U Y Y Y i t i t t t t t U U U Y O.+.+.+.,.,.,.:.X. . . .E Q Q Q { } } } k.z.z.j.p t t y S K K K K K K K ",
"K K K K L K V       X U Y Y Y 2 ; ; ; Y E E Y ; ; ; 2 O.$.+.+.$.+.+.O.2 ; - 2 O.+.O.O.t q q i j.z.z.j.u t t y S K K K K K K K ",
"K K K K K K V .     . g U U g 2 2 2 5 Y Y Y Y 2 2 2 2 ' O.O.O.O.O.O.' 5 2 2 5 O.O.O.O.i i t d p.j.j.p.p y w y S K K K K K K K ",
"K K K K K K H N N N N @ @ @ @ g g U U Y Y Y Y U U g U 0 0 0 0 0 0 0 q ) ` ` ` O.O.O.O.' ' ' ` f j j j Z A A A K K K K K K K K ",
"K K K K K L L P K K V       X Y E Y E Y Y Y Y Y Y Y Y ; - ; ; ; ; ; ; O.+.+.O.O.O.O.O.$.+.+.O.t t t y J L L P K K K K K K K K ",
"K K K K K K K K K K G & $ % $ w q 0 q Y Y Y Y Y Y E Y q q q q i d d d O.O.+.O.+.O.O.O.U h h f s x x x J K K K K K K K K K K K ",
"K K K K K K K K K K K L P P G       X U Y Y Y Y Y Y Y Y Y E E O.+.O.+.+.O.O.O.O.O.O.' X     . G K K K K K K K K K K K K K K K ",
"K K K K K K K K K K K K K K V       . U Y Y Y Y Y Y Y Y Y Y Y O.O.O.O.O.+.O.O.O.O.O.' X       V K K K K K K K K K K K K K K K ",
"K L K K K K K K K K K K K K K 1 < < < * * # * Y Y Y E Y Y Y E O.+.$.+.+.+.+.O.- = = = , < < 1 K K K K K K K K K K K K K K K K ",
"K K K K K K K K K K K K K K K P P P G       X U E E E Y Y Y E +.$.$.+.$.$.$.O.X       G I I I K K K K K K K K K K K K K K K K ",
"K K K K K K K K K K K K K K K K K K G + + + $ t t i i Y Y Y E +.+.+.+.! W W E $ + + + G K K K K K K K K K K K K K K K K K K K ",
"K K K K K K K K K K K K K K K K K K K J K K V   X   X U Y Y E O.$.$.O.X       V K K K L K K K K K K K K K K K K K K K K K K K ",
"K K K K K K K K K K K K K K K K K K K K K K G       X U E Y E $.$.+.+.X       V K K K K K K K K K K K K K K K K K K K K K K K ",
"K K K K K K K K K K K K K K K K K K K K K K H > > : : = = = = 2 2 2 6 : : : > H K K K K K K K K K K K K L K K K K K K K K K K ",
"K K K K K K K K K K K K K K K K K K K K K K K I I L G                 G L I L K K K K K K K K K K K K K K K K K K K K K K K K ",
"K K K K K K L K K K K K K K K K K K K K K K K K K K G O o o o o o o O G K K K K K K K K L K K K K K K K K K K K K K K K K K K ",
"K K K K K K K K K K K K K K K K K K K K K K K K K K K G G G G G G G G K K K K K K K K K K K K K K K K K K K K K K K K K K K K ",
"K K K K K K K K K K K K K K K K K K K K K K K K K K K K K K K K K K K K K K K K K K K K K K K K K K K K K K K K K K K K K K K ",
"K K K K K K K K K K K K K K K K K K K K K K K K K K K K K K K K K K K K K K K K K K K K K K K K K K K K K K K K K K K K K K K ",
"K K K K K K K K K K K K K K K K K K K K K K K K K K K K K K K K K K K K K K K K K K K K K K K K K K K K K K K K K K K K K K K ",
"K K K K K K K K K K K K K K K K K K K K K K K K K K K K K K K K K K K K K K K K K K K K K K K K K K K K K K K K K K K K K K K "
};
