/* XPM */
static char *_678902798160[] = {
/* columns rows colors chars-per-pixel */
"64 64 115 2 ",
"   c #5B6E5F",
".  c #637B5D",
"X  c #6E7E5C",
"o  c #76775C",
"O  c #727B5C",
"+  c #7F795E",
"@  c #566560",
"#  c #676D62",
"$  c #6B7561",
"%  c #857B4F",
"&  c #8E7B4E",
"*  c #957A4B",
"=  c #997F4C",
"-  c #8F625D",
";  c #89695D",
":  c #90625D",
">  c #996B5F",
",  c #857D51",
"<  c #A1715A",
"1  c #AA7859",
"2  c #9B6E60",
"3  c #A47763",
"4  c #A77B64",
"5  c #A97C62",
"6  c #67835C",
"7  c #6A835B",
"8  c #6D8A5C",
"9  c #75865E",
"0  c #738D5E",
"q  c #7B9D57",
"w  c #73935B",
"e  c #7D965D",
"r  c #739859",
"t  c #7A9B5C",
"y  c #7BA259",
"u  c #858153",
"i  c #888052",
"p  c #9A8B55",
"a  c #A88E45",
"s  c #AF9542",
"d  c #B09643",
"f  c #A58E54",
"g  c #A89153",
"h  c #83A55D",
"j  c #8AAE5D",
"k  c #8DB15D",
"l  c #BBA44E",
"z  c #BBA658",
"x  c #BDA85B",
"c  c #879C61",
"v  c #AD8366",
"b  c #B48762",
"n  c #B68962",
"m  c #B98D64",
"M  c #B48968",
"N  c #BC966B",
"B  c #BD986B",
"V  c #87A063",
"C  c #8BA961",
"Z  c #96AE67",
"A  c #98B067",
"S  c #9EBB65",
"D  c #9FB669",
"F  c #BDAD62",
"G  c #A2BF65",
"H  c #A0B769",
"J  c #A8BD6A",
"K  c #C1966A",
"L  c #C49A6C",
"P  c #C79E70",
"I  c #C89F70",
"U  c #C7A569",
"Y  c #C8A16D",
"T  c #C9A96B",
"R  c #C8B866",
"E  c #CBBC68",
"W  c #CAA274",
"Q  c #CEA678",
"!  c #D3AE7F",
"~  c #D1B271",
"^  c #A6C266",
"/  c #AFC56C",
"(  c #B0C56C",
")  c #B6CB6E",
"_  c #B9CE6E",
"`  c #D2C263",
"'  c #D5C86D",
"]  c #D8CB6F",
"[  c #D4C670",
"{  c #D9C173",
"}  c #DECC73",
"|  c #C1D570",
" . c #E3D375",
".. c #E6DC76",
"X. c #E6D97A",
"o. c #E8DC7A",
"O. c #EAE177",
"+. c #EAE278",
"@. c #D6B181",
"#. c #DAB687",
"$. c #DAB788",
"%. c #DCB98A",
"&. c #D7CC8C",
"*. c #D8CD8E",
"=. c #E1C784",
"-. c #E2CA88",
";. c #EADE8D",
":. c #EDE78E",
">. c #EEE88F",
",. c #EEEBAE",
"<. c #EFE8B7",
"1. c #F1EEB4",
"2. c #F0EEBB",
"3. c #F3F3C1",
"4. c None",
/* pixels */
"4.4.4.4.4.4.4.4.4.4.4.4.4.4.4.4.4.d d d d d d d d d d d d d d d d a * * * * * * * * * * * 4.4.4.4.4.4.4.4.4.4.4.4.4.4.4.4.4.4.4.",
"4.4.4.4.4.4.4.4.4.4.4.4.4.4.4.4.4.d d d d d d d d d d d d d d d d a * * * * * * * * * * * 4.4.4.4.4.4.4.4.4.4.4.4.4.4.4.4.4.4.4.",
"4.4.4.4.4.4.4.4.4.4.4.4.4.4.4.4.4.d d d s s d s d s s s d d d d d a * * * * * * * * * = * 4.4.4.4.4.4.4.4.4.4.4.4.4.4.4.4.4.4.4.",
"4.4.4.4.4.4.4.4.4.4.4.4.d d d s z &.*.*.*.*.*.*.*.*.*.*.' ` ` ` ` ` R R R R R R R R R E F * * * * * 4.4.4.4.4.4.4.4.4.4.4.4.4.4.",
"4.4.4.4.4.4.4.4.4.4.4.d d d d s x 2.3.3.3.3.3.3.3.3.3.3.:.+.+.+.+.+.+.+.o.+.+.+.+.+.+.+.E * * * * * * 4.4.4.4.4.4.4.4.4.4.4.4.4.",
"4.4.4.4.4.4.4.4.4.4.4.d d d d s x 2.3.3.3.3.3.3.2.3.3.3.:.o.+.+.+.+.+.o.+.+.+.+.+.+.+.+.E * * * * * * 4.4.4.4.4.4.4.4.4.4.4.4.4.",
"4.4.4.4.4.4.4.4.4.4.4.d d d d s x 2.3.3.3.3.3.3.3.3.3.3.>.O.O.o.+.+.+.+.+.+.+.+.+.+.+.+.E * * * * * * 4.4.4.4.4.4.4.4.4.4.4.4.4.",
"4.4.4.4.4.4.4.4.4.4.4.d d d d s z ,.1.1.1.1.1.2.2.1.<.<.;.o.o.o.o.o. ... . ...o.+.+.o.+.R * * * * * * 4.4.4.4.4.4.4.4.4.4.4.4.4.",
"4.4.4.4.4.4.4.4.4.4.4.d d d d s l o.+.+.:.+.-.%.%.-.%.%.%.%.%.%.%.#.Y I L U I  .O.+.o.O.E * * * * * * 4.4.4.4.4.4.4.4.4.4.4.4.4.",
"4.4.4.4.4.4.4.4.4.4.4.d d d d s l ..+.+.O.+.=.%.%.%.%.%.%.%.%.%.%.! L L L L L  .O.O.+.+.E * * * * * * 4.4.4.4.4.4.4.4.4.4.4.4.4.",
"4.4.4.4.4.4.4.4.4.4.4.d s s d d l ..O.+.O.O.=.$.%.%.%.%.%.%.%.%.$.! L L L L L  .+.+.+.+.E * * * * * * 4.4.4.4.4.4.4.4.4.4.4.4.4.",
"4.4.4.4.4.4.4.4.4.4.4.s s s s s l ..+.+.O.O.=.%.%.%.%.%.$.#.#.$.$.! L L L K L  .+.+.+.+.E * * * * * * 4.4.4.4.4.4.4.4.4.4.4.4.4.",
"4.4.4.4.4.4.4.4.4.4.4.= = = = * g ....+.+.+.=.%.%.%.%.%.Q P P P Y L m n m n m } O.+.+.+.` = * * * * * 4.4.4.4.4.4.4.4.4.4.4.4.4.",
"4.4.4.4.4.4.4.4.4.4.4.* * * * * f ..+.+.o.+.=.$.%.%.%.%.W L L L L K n n n n m } +.+.+.+.E * * * * * * 4.4.4.4.4.4.4.4.4.4.4.4.4.",
"4.4.4.4.4.4.4.4.4.4.4.* * * * * f ..+.+.+.+.=.%.%.%.%.%.W L L L L K b n n n m } +.+.+.+.E * * * * * * 4.4.4.4.4.4.4.4.4.4.4.4.4.",
"4.4.4.4.4.4.4.4.4.4.4.* * * * * f ..+.+.+.+.%.%.$.$.%.$.I L L L L K b n n n n } +.O.+.+.E * * * * * = 4.4.4.4.4.4.4.4.4.4.4.4.4.",
"4.4.4.4.4.4.4.4.4.4.4.* * * * * f ..+.+.+.+.~ W W W W W N m m m m n n n n n n } +.+.+.+.E * * * * * * 4.4.4.4.4.4.4.4.4.4.4.4.4.",
"4.4.4.4.4.4.4.4.4.4.4.* * * * * f ..+.O.O.+.~ L L L L L m n n n n n n n n n m } +.+.+.+.E * * * * * * 4.4.4.4.4.4.4.4.4.4.4.4.4.",
"4.4.4.4.4.4.4.4.4.4.4.* * * * * f ....+.o.+.~ L L L L L m n n n n n n n n n n } +.+...+.E * * * * * * 4.4.4.4.4.4.4.4.4.4.4.4.4.",
"4.4.4.4.4.4.4.4.4.4.4.* * * * * f ..+.O.+.+.~ K K L K K m n n n n n b n n n n } +.+.+.+.E * * * * * * 4.4.4.4.4.4.4.4.4.4.4.4.4.",
"4.4.4.4.4.4.4.4.4.4.4.* * * * * f ..+.+.+.+.{ ~ ~ ~ ~ ~ T U U U U U U U T T T  .+.+.+.+.E * * * * = * 4.4.4.4.4.4.4.4.4.4.4.4.4.",
"4.4.4.4.4.4.4.4.4.4.4.* * * * * f ..+.+.+.O.+.+.+.+.+.+.O.o.+.O...+.+.+.+.+.+.+.+.+.+.+.E * * * * * * 4.4.4.4.4.4.4.4.4.4.4.4.4.",
"4.4.4.4.4.4.4.4.4.4.4.* * * * * f ..+.+.+.+.O.+.+.+.+.+.+.O.O.+.+.+.+.+.+.+.+.+.+.+.+.+.E * * * * * * 4.4.4.4.4.4.4.4.4.4.4.4.4.",
"4.4.4.4.4.4.4.4.4.4.4.* * * * * f ..+.+.+.+.+.+.+.+.+.+.+.+.+.O.+.+.+.+.+.+.+.+.+.+.+.+.E * * * * * = 4.4.4.4.4.4.4.4.4.4.4.4.4.",
"4.4.4.4.4.4.4.4.4.4.4., & & , & p ' ] ] ] ] ] ] ] ] ] ] ] ] ] ` ] ] ] ] ] ] ] ] } ] ] } F % % & & & , 4.4.4.4.4.4.4.4.4.4.4.4.4.",
"6 6 6 6 6 6 7 6 6 6 6 6 7 7 7 6 9 * = = = = = = = = = = = = = a = = = = = = = = = = = = i 7 7 6 6 6 6 6 6 6 6 6 6 7 7 6 6 4.4.4.",
"6 6 6 6 6 6 6 6 6 6 6 6 6 6 6 6 7 * * * * * * * * * * * * * * * * * * * * * * * * * * * , 6 6 6 6 6 6 6 6 6 6 6 6 6 6 7 6 6 4.4.",
"6 7 6 7 6 6 6 6 6 6 6 6 . 6 6 6 9 * * * * * * * * * * * * * * * * * * * * * * * * * * * , 6 6 6 6 6 6 6 6 6 6 6 6 6 6 7 7 4.4.4.",
"6 6 6 6 6 8 0 0 0 0 0 0 0 0 0 0 9 & * & & & * & & * * * & i i i i * & * * * * & & & & * u 0 0 0 0 0 0 0 0 0 0 0 7 6 6 6 6 4.4.4.",
"6 6 6 6 6 Z _ _ ) ) ) _ ) ) ) _ J 7 7 7 7 7 7 7 7 7 7 7 w h q q h w 7 7 7 7 7 7 7 6 O 7 c _ ) _ ) ) ) ) ) ) ) ( 0 6 6 6 6 4.4.4.",
"6 6 6 6 6 Z | | | | | | | | | | ( 7 7 7 7 6 6 7 6 6 6 6 r y y y y r 6 6 7 6 7 6 6 6 6 6 V | | | | | | | | | | _ 0 6 7 6 6 4.4.4.",
"6 7 6 6 6 Z | _ | | | _ | | | | ( 7 6 6 7 6 6 6 6 6 6 6 r y q q y r 6 6 6 6 6 6 6 6 6 6 V | _ | | | | | | | | _ 0 6 6 6 6 4.4.4.",
"6 6 6 6 6 A | | | | | | | | | | ( 7 6 6 6 6 6 6 6 6 6 6 r r y y y r 6 6 6 6 6 6 6 6 6 6 c _ | | | | | | | | | _ 0 6 6 6 6 4.4.4.",
"6 6 6 6 6 D | | | | _ ( ^ ^ ^ ^ S t t t t t r q r r y y y y y y y q q y r r t t t q t t C ^ ^ ^ ^ ^ ) | | | | _ 0 6 6 6 6 4.4.4.",
"6 6 6 6 6 Z | | | | | ^ k k k j k k k k k k k k k k k k y y y r q y k k k k k k k k k k k k k k k k G _ | | | _ 0 6 6 6 6 4.4.4.",
"6 6 6 6 6 Z | | | | _ ^ k k k k k k k k k k k k k k k k y y y y y y k k k k k k k k k k k k k k k k ^ | | | | _ 0 6 6 6 6 4.4.4.",
"6 6 6 6 6 Z _ | | | | ^ k k k k k k k k k k k k k k k k y y y y y y k k k k k k k k k k k Z k k k k ^ | | | | _ 0 6 6 6 6 4.4.4.",
"6 6 6 6 6 Z H H D D H C h y y V V k k k k k k k k k k k t r r r r q k j k k k k k k k k j y y V y y C H H H H H 0 6 6 6 6 4.4.4.",
"4.4.4.4.4.4.8 6 6 6 7 6 6 6 6 6 8 j k k j k k k k k k k w 6 6 6 6 w k k k k k k k k k k y 6 6 6 6 6 6 6 6 6 6 6 4.4.4.4.4.4.4.4.",
"4.4.4.4.4.6 6 6 6 6 6 6 6 6 6 6 8 j k k k k k k k k k k w 6 6 6 6 0 k k k k k k k k k Z y 6 6 6 6 6 6 6 6 6 6 6 4.4.4.4.4.4.4.4.",
"4.4.4.4.4.6 6 6 6 6 7 6 6 6 6 6 w j k k k k k k k k k k r 7 7 6 6 w j k k k k k k k k k y 6 6 6 6 6 6 6 6 6 6 6 4.4.4.4.4.4.4.4.",
"4.4.4.4.4.4.7 6 6 6 6 X X O O O 9 y h V h h h h h h h h 8 . . . . 8 h h y V j h h h h h e O O O O O $ 6 6 6 6 8 4.4.4.4.4.4.4.4.",
"4.4.4.4.4.4.4.4.4.4.4.- - - - - ; 7 7 7 6 6 8 6 7 6 6 7   @ @ @     6 6 6 8 7 6 6 6 8 6 o - - - - ; - 4.4.4.4.4.4.4.4.4.4.4.4.4.",
"4.4.4.4.4.4.4.4.4.4.4.: : : : : ; 6 6 6 6 6 6 6 6 6 6 6   @ @ @ @   6 6 6 6 6 6 6 6 6 6 o : : : : : 2 4.4.4.4.4.4.4.4.4.4.4.4.4.",
"4.4.4.4.4.4.4.4.4.4.4.: : : : : ; 6 6 6 6 6 6 6 6 6 6 6   @ @   @   6 6 6 6 6 6 6 6 6 6 O 2 : : : : : 4.4.4.4.4.4.4.4.4.4.4.4.4.",
"4.4.4.4.4.4.4.4.4.4.4.: : : : : ; 9 0 9 0 9 9 9 9 9 9 9 # # # # # $ 9 9 9 9 9 9 9 0 9 9 + - : : : : : 4.4.4.4.4.4.4.4.4.4.4.4.4.",
"4.4.4.4.4.4.4.4.4.4.4.: : : : : 2 N B B B B B B B B N N N N K N N N N N B B B B B B B B v - : - : : : 4.4.4.4.4.4.4.4.4.4.4.4.4.",
"4.4.4.4.4.4.4.4.4.4.4.: - : : : 2 K L L L L L L L L L L L L L L K L L L L L L L L L L L v - : : : : : 4.4.4.4.4.4.4.4.4.4.4.4.4.",
"4.4.4.4.4.4.4.4.4.4.4.: : : : - 2 K L L L L L L L L L L L L L L L L L L L L L L L L L L M : : : : : : 4.4.4.4.4.4.4.4.4.4.4.4.4.",
"4.4.4.4.4.4.4.4.4.4.4.: : : : - 2 K L L L L L L L L L L L L K L L L L L L L L L L L L L M : : : : : : 4.4.4.4.4.4.4.4.4.4.4.4.4.",
"4.4.4.4.4.4.4.4.4.4.4.4.4.4.4.4.> 4 4 4 4 4 b n n n n n b b n n n b n n n n n 5 4 4 4 4 3 4.4.4.4.4.4.4.4.4.4.4.4.4.4.4.4.4.4.4.",
"4.4.4.4.4.4.4.4.4.4.4.4.4.4.4.4.4.- - - : : > 1 1 1 1 1 1 1 1 1 1 1 1 1 1 1 1 : : : - - - 4.4.4.4.4.4.4.4.4.4.4.4.4.4.4.4.4.4.4.",
"4.4.4.4.4.4.4.4.4.4.4.4.4.4.4.4.4.: : : : : < 1 1 1 1 1 1 1 1 1 1 1 1 1 1 1 1 > : : : : : 4.4.4.4.4.4.4.4.4.4.4.4.4.4.4.4.4.4.4.",
"4.4.4.4.4.4.4.4.4.4.4.4.4.4.4.4.4.: : : : : < 1 1 1 1 1 1 1 1 1 1 1 1 1 1 1 1 : : : : : : 4.4.4.4.4.4.4.4.4.4.4.4.4.4.4.4.4.4.4.",
"4.4.4.4.4.4.4.4.4.4.4.4.4.4.4.4.4.: : : : : 5 n b b b b b n n n b b b b n n n > - : : : : 4.4.4.4.4.4.4.4.4.4.4.4.4.4.4.4.4.4.4.",
"4.4.4.4.4.4.4.4.4.4.4.4.4.4.4.4.4.: : - : : M L L L L L L L K L L L L L L L K 2 - : : : : 4.4.4.4.4.4.4.4.4.4.4.4.4.4.4.4.4.4.4.",
"4.4.4.4.4.4.4.4.4.4.4.4.4.4.4.4.4.: : : : : M L L L L K L L L L L L L L L L L 2 - : : : : 4.4.4.4.4.4.4.4.4.4.4.4.4.4.4.4.4.4.4.",
"4.4.4.4.4.4.4.4.4.4.4.4.4.4.4.4.4.: : : : : M L L L L L L L L L L L L L L L L 2 - : : : : 4.4.4.4.4.4.4.4.4.4.4.4.4.4.4.4.4.4.4.",
"4.4.4.4.4.4.4.4.4.4.4.4.4.4.4.4.4.: : : - : v M M M M M M M M M n n M M M M M 2 : : : : 4.4.4.4.4.4.4.4.4.4.4.4.4.4.4.4.4.4.4.4.",
"4.4.4.4.4.4.4.4.4.4.4.4.4.4.4.4.4.4.4.4.4.4.: : : : > : : : : : : : : : : > : 4.4.4.4.4.4.4.4.4.4.4.4.4.4.4.4.4.4.4.4.4.4.4.4.4.",
"4.4.4.4.4.4.4.4.4.4.4.4.4.4.4.4.4.4.4.4.4.4.: : : : : : : : : : : : : : : : : 4.4.4.4.4.4.4.4.4.4.4.4.4.4.4.4.4.4.4.4.4.4.4.4.4.",
"4.4.4.4.4.4.4.4.4.4.4.4.4.4.4.4.4.4.4.4.4.4.: : : : : : : : : : : : : : : : : 4.4.4.4.4.4.4.4.4.4.4.4.4.4.4.4.4.4.4.4.4.4.4.4.4.",
"4.4.4.4.4.4.4.4.4.4.4.4.4.4.4.4.4.4.4.4.4.4.: : : : : : : : : : : : : : : : : 4.4.4.4.4.4.4.4.4.4.4.4.4.4.4.4.4.4.4.4.4.4.4.4.4.",
"4.4.4.4.4.4.4.4.4.4.4.4.4.4.4.4.4.4.4.4.4.4.4.4.4.4.4.4.4.4.4.4.4.4.4.4.4.4.4.4.4.4.4.4.4.4.4.4.4.4.4.4.4.4.4.4.4.4.4.4.4.4.4.4."
};