/* XPM */
static char *_678903111507[] = {
/* columns rows colors chars-per-pixel */
"64 64 221 2 ",
"   c #5D404F",
".  c #5E414F",
"X  c #583C4D",
"o  c #987161",
"O  c #B4896A",
"+  c #AE8468",
"@  c #AF8569",
"#  c #AD8468",
"$  c #B58A6B",
"%  c #89655D",
"&  c #563A4D",
"*  c #5C3F4E",
"=  c #624252",
"-  c #764C61",
";  c #794E63",
":  c #7A4F63",
">  c #754962",
",  c #B1876A",
"<  c #CCA26D",
"1  c #C79C6C",
"2  c #C89E6D",
"3  c #C69C6C",
"4  c #CEA46D",
"5  c #A47968",
"6  c #734862",
"7  c #7A5063",
"8  c #784E62",
"9  c #754C60",
"0  c #744C5F",
"q  c #754D60",
"w  c #70475F",
"e  c #AD8368",
"r  c #C2986C",
"t  c #C3996C",
"y  c #C99F6D",
"u  c #9F7666",
"i  c #6E455E",
"p  c #764D60",
"a  c #744C60",
"s  c #774E60",
"d  c #72495F",
"f  c #AD8469",
"g  c #C89E6C",
"h  c #A07666",
"j  c #784E60",
"k  c #71485F",
"l  c #6B425E",
"z  c #CDA36E",
"x  c #C69C6D",
"c  c #C79E6D",
"v  c #CEA46E",
"b  c #9F7667",
"n  c #69405E",
"m  c #AA8068",
"M  c #AA8168",
"N  c #A47864",
"B  c #A17462",
"V  c #A17562",
"C  c #A57A65",
"Z  c #A98068",
"A  c #AC8368",
"S  c #9F7566",
"D  c #734A60",
"F  c #9E7161",
"G  c #895B5B",
"H  c #8D5F5C",
"J  c #8D5E5C",
"K  c #8E5F5C",
"L  c #88595B",
"P  c #A87C64",
"I  c #CDA36D",
"U  c #B88E6A",
"Y  c #9F7261",
"T  c #8E605C",
"R  c #91645D",
"E  c #91635D",
"W  c #92645D",
"Q  c #C79D6D",
"!  c #C79D6C",
"~  c #B38969",
"^  c #C3986C",
"/  c #9E7261",
"(  c #90625D",
")  c #8C5E5C",
"_  c #A87B64",
"`  c #B38A69",
"'  c #CBA16E",
"]  c #A07362",
"[  c #8C5D5C",
"{  c #A97D64",
"}  c #CCA26E",
"|  c #CBA26E",
" . c #B78D6A",
".. c #A27662",
"X. c #A27562",
"o. c #A37763",
"O. c #95685E",
"+. c #8F615D",
"@. c #8F605D",
"#. c #986B5F",
"$. c #A47763",
"%. c #A47862",
"&. c #996D62",
"*. c #744B60",
"=. c #8E605D",
"-. c #885B5D",
";. c #8B5E5E",
":. c #8E615D",
">. c #97685C",
",. c #A2725A",
"<. c #A0705B",
"1. c #A0705A",
"2. c #A1715A",
"3. c #9E6E5B",
"4. c #94665C",
"5. c #9C6D5B",
"6. c #AE7C58",
"7. c #AB7A59",
"8. c #AC7B59",
"9. c #AC7A59",
"0. c #AD7C59",
"q. c #A77659",
"w. c #8F625D",
"e. c #AB7959",
"r. c #AD7C58",
"t. c #9B6C5B",
"y. c #A97859",
"u. c #AA7959",
"i. c #A5755A",
"p. c #A87859",
"a. c #A6755A",
"s. c #AA795A",
"d. c #AB7B5A",
"f. c #AB7A5A",
"g. c #AC7C5A",
"h. c #986A5D",
"j. c #90635E",
"k. c #92645E",
"l. c #91645E",
"z. c #91635E",
"x. c #92635C",
"c. c #A47254",
"v. c #A67353",
"b. c #A57253",
"n. c #A77453",
"m. c #916056",
"M. c #885858",
"N. c #8A5A57",
"B. c #895A57",
"V. c #895A58",
"C. c #895957",
"Z. c #8C5E5A",
"A. c #8F615C",
"S. c #956760",
"D. c #C9A582",
"F. c #CDA984",
"G. c #CCA883",
"H. c #CDA983",
"J. c #C3A185",
"K. c #C09D85",
"L. c #C19E85",
"P. c #C09E85",
"I. c #C09D84",
"U. c #C4A388",
"Y. c #AA8273",
"T. c #8C5D5A",
"R. c #90635D",
"E. c #8E605B",
"W. c #976B63",
"Q. c #E8D0A8",
"!. c #EED7AD",
"~. c #ECD5AB",
"^. c #EDD5AC",
"/. c #EED7AC",
"(. c #EFD7AB",
"). c #EDD5AA",
"_. c #F6E0B2",
"`. c #C3A187",
"'. c #976A62",
"]. c #E3C9A1",
"[. c #E8CFA6",
"{. c #E7CDA4",
"}. c #E7CEA5",
"|. c #E7CDA5",
" X c #E6CDA5",
".X c #E5CBA3",
"XX c #BF9C84",
"oX c #E9D0A8",
"OX c #ECD5AC",
"+X c #EDD6AC",
"@X c #EFD7AC",
"#X c #C3A188",
"$X c #94675F",
"%X c #C59F7C",
"&X c #C8A27E",
"*X c #C7A17D",
"=X c #C8A27D",
"-X c #BD987F",
";X c #B9957F",
":X c #BA957F",
">X c #B9947F",
",X c #BD9982",
"<X c #A67E70",
"1X c #8D5E5A",
"2X c #A97959",
"3X c #AE7D58",
"4X c #A77759",
"5X c #96675C",
"6X c #9F6F5B",
"7X c #9E6F5B",
"8X c #9D6E5B",
"9X c #94655C",
"0X c #8A5D5E",
"qX c #92635D",
"wX c #93655D",
"eX c #8C5F5D",
"rX c #84585E",
"tX c #85595E",
"yX c #81565F",
"uX c #734B60",
"iX c white",
/* pixels */
"        . X o O + @ @ @ @ @ @ @ @ @ @ @ @ @ @ @ @ @ @ @ @ @ @ @ @ @ @ @ @ @ @ @ @ @ @ @ @ @ @ @ @ @ @ @ @ @ # $ % & .     * = - ",
"; ; ; ; : > , < 1 2 2 2 2 2 2 2 2 2 2 2 2 2 2 2 2 2 2 2 2 2 2 2 2 2 2 2 2 2 2 2 2 2 2 2 2 2 2 2 2 2 2 2 2 2 3 4 5 6 7 ; ; ; 8 9 ",
"0 0 0 0 q w e 2 r t t t t t t t t t t t t t t t t t t t t t t t t t t t t t t t t t t t t t t t t t t t t t r y u i p 0 0 0 a 9 ",
"p p p p s d f g r t t t t t t t t t t t t t t t t t t t t t t t t t t t t t t t t t t t t t t t t t t t t t r y h w j p p p p 9 ",
"w w w w k l @ z x c c c c c c c c c c c c c c c c c c c c c c c c c c c c c c c c c c c c c c c c c c c c c x v b n k w w w k 9 ",
"m m m m m M N B V V V V V V V V V V V V V V V V V V V V V V V V V V V V V V V V V V V V V V V V V V V V V V V B C M m m Z A S D ",
"y y y y 2 z F G H J J J J J J J J J J J J J J J J J J J J J J J J J J J J J J J J J J J J J J J J J J J J J K L P v g y 2 I U D ",
"t t t t r x Y T R E E E E E E E E E E E E E E E E E E E E E E E E E E E E E E E E E E E E E E E E E E E E E W H P Q r t r ! ~ D ",
"t t t t ^ x / H E ( ( ( ( ( ( ( ( ( ( ( ( ( ( ( ( ( ( ( ( ( ( ( ( ( ( ( ( ( ( ( ( ( ( ( ( ( ( ( ( ( ( ( ( ( E ) _ Q r t r ! ` D ",
"2 2 2 2 Q ' ] J E ( ( ( ( ( ( ( ( ( ( ( ( ( ( ( ( ( ( ( ( ( ( ( ( ( ( ( ( ( ( ( ( ( ( ( ( ( ( ( ( ( ( ( ( ( E [ { } Q 2 Q |  .D ",
"........X.o.O.+.( ( ( ( ( ( ( ( ( ( ( ( ( ( ( ( ( ( ( ( ( ( ( ( ( ( ( ( ( ( ( ( ( ( ( ( ( ( ( ( ( ( ( ( ( ( ( @.#.$.X...X.%.&.*.",
") ) ) ) J ) +.( ( ( ( ( ( ( ( ( ( ( ( ( ( ( ( ( ( ( ( ( ( ( ( ( ( ( ( ( ( ( ( ( ( ( ( ( ( ( ( ( ( ( ( ( ( ( ( ( =.) J ) ) K -.*.",
"E E E E E E ( ( ( ( ( ( ( ( ( ( ( ( ( ( ( ( ( ( ( ( ( ( ( ( ( ( ( ( ( ( ( ( ( ( ( ( ( ( ( ( ( ( ( ( ( ( ( ( ( ( ( E E E E W ;.*.",
"( ( ( ( ( ( ( ( ( ( ( ( ( ( ( ( ( ( ( ( ( ( ( ( ( ( ( ( ( ( ( ( ( ( ( ( ( ( ( ( ( ( ( ( ( ( ( ( ( ( ( ( ( ( ( ( ( ( ( ( ( E ;.*.",
"( ( ( ( ( ( ( ( ( ( ( ( +.=.=.=.=.=.:.( ( ( ( ( ( ( ( ( ( ( ( ( ( ( ( ( ( ( ( ( ( ( ( ( =.=.=.=.=.=.( ( ( ( ( ( ( ( ( ( ( E ;.*.",
"( ( ( ( ( ( ( ( ( ( ( +.>.,.<.1.<.2.3.( ( ( ( ( ( ( ( ( ( ( ( ( ( ( ( ( ( ( ( ( ( ( ( E <.2.1.1.<.2.4.+.( ( ( ( ( ( ( ( ( E ;.*.",
"( ( ( ( ( ( ( ( ( ( ( =.5.6.7.8.9.0.q.w.( ( ( ( ( ( ( ( ( ( ( ( ( ( ( ( ( ( ( ( ( ( w.W e.8.8.8.7.r.>.:.( ( ( ( ( ( ( ( ( E ;.*.",
"( ( ( ( ( ( ( ( ( ( ( =.t.9.y.u.y.7.i.( ( ( ( ( ( ( ( ( ( ( ( ( ( ( ( ( ( ( ( ( ( ( w.W p.u.u.u.y.7.>.+.( ( ( ( ( ( ( ( ( E ;.*.",
"( ( ( ( ( ( ( ( ( ( ( =.t.8.u.u.u.7.a.( ( ( ( ( ( ( ( ( ( ( ( ( ( ( ( ( ( ( ( ( ( ( w.W y.u.u.u.u.7.>.+.( ( ( ( ( ( ( ( ( E ;.*.",
"( ( ( ( ( ( ( ( ( ( ( =.t.8.u.u.u.7.a.( ( ( ( ( ( ( ( ( ( ( ( ( ( ( ( ( ( ( ( ( ( ( w.W y.u.u.u.u.7.>.+.( ( ( ( ( ( ( ( ( E ;.*.",
"( ( ( ( ( ( ( ( ( ( ( =.t.8.u.u.u.7.a.( ( ( ( ( ( ( ( ( ( ( ( ( ( ( ( ( ( ( ( ( ( ( w.W y.u.u.u.u.7.>.+.( ( ( ( ( ( ( ( ( E ;.*.",
"( ( ( ( ( ( ( ( ( ( ( =.t.8.u.u.u.7.a.( ( ( ( ( ( ( ( ( ( ( ( ( ( ( ( ( ( ( ( ( ( ( w.W y.u.u.u.u.7.>.+.( ( ( ( ( ( ( ( ( E ;.*.",
"( ( ( ( ( ( ( ( ( ( ( =.t.8.u.u.u.7.a.( ( ( ( ( ( ( ( ( ( ( ( ( ( ( ( ( ( ( ( ( ( ( w.W y.u.u.u.u.7.>.+.( ( ( ( ( ( ( ( ( E ;.*.",
"( ( ( ( ( ( ( ( ( ( ( =.t.8.u.u.u.7.a.( ( ( ( ( ( ( ( ( ( ( ( ( ( ( ( ( ( ( ( ( ( ( w.W y.u.u.u.u.7.>.+.( ( ( ( ( ( ( ( ( E ;.*.",
"( ( ( ( ( ( ( ( ( ( ( =.t.8.u.u.u.7.a.( ( ( ( ( ( ( ( ( ( ( ( ( ( ( ( ( ( ( ( ( ( ( w.W y.u.u.u.u.7.>.+.( ( ( ( ( ( ( ( ( E ;.*.",
"( ( ( ( ( ( ( ( ( ( ( =.t.8.u.u.u.7.a.( ( ( ( ( ( ( ( ( ( ( ( ( ( ( ( ( ( ( ( ( ( ( w.W y.u.u.u.u.7.>.+.( ( ( ( ( ( ( ( ( E ;.*.",
"( ( ( ( ( ( ( ( ( ( ( =.t.8.u.u.u.7.a.( ( ( ( ( ( ( ( ( ( ( ( ( ( ( ( ( ( ( ( ( ( ( w.W y.u.u.u.u.7.>.+.( ( ( ( ( ( ( ( ( E ;.*.",
"( ( ( ( ( ( ( ( ( ( ( =.t.8.u.u.u.7.a.( ( ( ( ( ( ( ( ( ( ( ( ( ( ( ( ( ( ( ( ( ( ( w.W y.u.u.u.u.7.>.+.( ( ( ( ( ( ( ( ( E ;.*.",
"( ( ( ( ( ( ( ( ( ( ( =.t.8.u.u.u.7.a.( ( ( ( ( ( ( ( ( ( ( ( ( ( ( ( ( ( ( ( ( ( ( w.W y.u.u.u.u.7.>.+.( ( ( ( ( ( ( ( ( E ;.*.",
"( ( ( ( ( ( ( ( ( ( ( =.t.8.u.u.u.7.a.( ( ( ( ( ( ( ( ( ( ( ( ( ( ( ( ( ( ( ( ( ( ( w.W y.u.u.u.u.7.>.+.( ( ( ( ( ( ( ( ( E ;.*.",
"( ( ( ( ( ( ( ( ( ( ( =.t.8.u.u.u.7.a.( ( ( ( ( ( ( ( ( ( ( ( ( ( ( ( ( ( ( ( ( ( ( w.W y.u.u.u.u.7.>.+.( ( ( ( ( ( ( ( ( E ;.*.",
"( ( ( ( ( ( ( ( ( ( ( =.t.8.u.u.u.7.a.( ( ( ( ( ( ( ( ( ( ( ( ( ( ( ( ( ( ( ( ( ( ( w.W y.u.u.u.u.7.>.+.( ( ( ( ( ( ( ( ( E ;.*.",
"( ( ( ( ( ( ( ( ( ( ( =.t.8.u.u.u.7.a.( ( ( ( ( ( ( ( ( ( ( ( ( ( ( ( ( ( ( ( ( ( ( w.W y.u.u.u.u.7.>.+.( ( ( ( ( ( ( ( ( E ;.*.",
"( ( ( ( ( ( ( ( ( ( ( =.t.8.u.u.u.7.a.( ( ( ( ( ( ( ( ( ( ( ( ( ( ( ( ( ( ( ( ( ( ( w.W s.d.f.f.f.g.h.j.k.k.l.k.z.( ( ( ( E ;.*.",
"( ( ( ( ( ( ( ( ( ( ( =.t.8.u.u.u.7.a.( ( ( ( ( ( ( ( ( ( ( ( ( ( ( ( ( ( ( ( ( ( ( ( x.c.v.b.b.b.n.m.M.N.B.V.C.Z.E ( ( ( E ;.*.",
"( ( ( ( ( ( ( ( ( ( ( =.t.8.u.u.u.7.a.( ( ( ( ( ( ( ( ( ( ( ( ( ( ( ( ( ( ( ( ( ( ( A.S.D.F.G.G.G.H.J.K.L.P.I.U.Y.T.z.( ( E ;.*.",
"( ( ( ( ( ( ( ( ( ( ( =.t.8.u.u.u.7.a.( ( ( ( ( ( ( ( ( ( ( ( ( ( ( ( ( ( ( ( ( ( R.E.W.Q.!.~.^.^.^./.(.(.(.)._.`.C.k.( ( E ;.*.",
"( ( ( ( ( ( ( ( ( ( ( =.t.8.u.u.u.7.a.( ( ( ( ( ( ( ( ( ( ( ( ( ( ( ( ( ( ( ( ( ( R.T '.].[.{.}.}.}.|. X|.|..X).XXB.k.( ( E ;.*.",
"( ( ( ( ( ( ( ( ( ( ( =.t.8.u.u.u.7.a.( ( ( ( ( ( ( ( ( ( ( ( ( ( ( ( ( ( ( ( ( ( R.T '.].[.{.|.|.}.|. X X X.X).XXB.k.( ( E ;.*.",
"( ( ( ( ( ( ( ( ( ( ( =.t.8.u.u.u.7.a.( ( ( ( ( ( ( ( ( ( ( ( ( ( ( ( ( ( ( ( ( ( R.E.W.oX!.OX+X+X^./.@X@X@X)._.#XC.k.( ( E ;.*.",
"( ( ( ( ( ( ( ( ( ( ( =.t.8.u.u.u.7.a.( ( ( ( ( ( ( ( ( ( ( ( ( ( ( ( ( ( ( ( ( ( ( A.$X%X&X*X*X*X=X-X;X:X;X>X,X<X1Xz.( ( E ;.*.",
"( ( ( ( ( ( ( ( ( ( ( =.t.8.u.u.u.7.a.( ( ( ( ( ( ( ( ( ( ( ( ( ( ( ( ( ( ( ( ( ( ( ( x.c.v.b.b.b.n.m.M.N.B.V.C.Z.E ( ( ( E ;.*.",
"( ( ( ( ( ( ( ( ( ( ( =.t.8.u.u.u.7.a.( ( ( ( ( ( ( ( ( ( ( ( ( ( ( ( ( ( ( ( ( ( ( w.W s.d.f.f.f.g.h.j.k.k.l.k.z.( ( ( ( E ;.*.",
"( ( ( ( ( ( ( ( ( ( ( =.t.8.u.u.u.7.a.( ( ( ( ( ( ( ( ( ( ( ( ( ( ( ( ( ( ( ( ( ( ( w.W y.u.u.u.u.7.>.+.( ( ( ( ( ( ( ( ( E ;.*.",
"( ( ( ( ( ( ( ( ( ( ( =.t.8.u.u.u.7.a.( ( ( ( ( ( ( ( ( ( ( ( ( ( ( ( ( ( ( ( ( ( ( w.W y.u.u.u.u.7.>.+.( ( ( ( ( ( ( ( ( E ;.*.",
"( ( ( ( ( ( ( ( ( ( ( =.t.8.u.u.u.7.a.( ( ( ( ( ( ( ( ( ( ( ( ( ( ( ( ( ( ( ( ( ( ( w.W y.u.u.u.u.7.>.+.( ( ( ( ( ( ( ( ( E ;.*.",
"( ( ( ( ( ( ( ( ( ( ( =.t.8.u.u.u.7.a.( ( ( ( ( ( ( ( ( ( ( ( ( ( ( ( ( ( ( ( ( ( ( w.W y.u.u.u.u.7.>.+.( ( ( ( ( ( ( ( ( E ;.*.",
"( ( ( ( ( ( ( ( ( ( ( =.t.8.u.u.u.7.a.( ( ( ( ( ( ( ( ( ( ( ( ( ( ( ( ( ( ( ( ( ( ( w.W y.u.u.u.u.7.>.+.( ( ( ( ( ( ( ( ( E ;.*.",
"( ( ( ( ( ( ( ( ( ( ( =.t.8.u.u.u.7.a.( ( ( ( ( ( ( ( ( ( ( ( ( ( ( ( ( ( ( ( ( ( ( w.W y.u.u.u.u.7.>.+.( ( ( ( ( ( ( ( ( E ;.*.",
"( ( ( ( ( ( ( ( ( ( ( =.t.8.u.u.u.7.a.( ( ( ( ( ( ( ( ( ( ( ( ( ( ( ( ( ( ( ( ( ( ( w.W y.u.u.u.u.7.>.+.( ( ( ( ( ( ( ( ( E ;.*.",
"( ( ( ( ( ( ( ( ( ( ( =.t.8.u.u.u.7.a.( ( ( ( ( ( ( ( ( ( ( ( ( ( ( ( ( ( ( ( ( ( ( w.W y.u.u.u.u.7.>.+.( ( ( ( ( ( ( ( ( E ;.*.",
"( ( ( ( ( ( ( ( ( ( ( =.t.8.u.u.u.7.a.( ( ( ( ( ( ( ( ( ( ( ( ( ( ( ( ( ( ( ( ( ( ( w.W y.u.u.u.u.7.>.+.( ( ( ( ( ( ( ( ( E ;.*.",
"( ( ( ( ( ( ( ( ( ( ( =.t.8.u.u.u.7.a.( ( ( ( ( ( ( ( ( ( ( ( ( ( ( ( ( ( ( ( ( ( ( w.W y.u.u.u.u.7.>.+.( ( ( ( ( ( ( ( ( E ;.*.",
"( ( ( ( ( ( ( ( ( ( ( =.t.9.y.u.y.7.i.( ( ( ( ( ( ( ( ( ( ( ( ( ( ( ( ( ( ( ( ( ( ( w.W p.u.2Xu.y.7.>.+.( ( ( ( ( ( ( ( ( E ;.*.",
"( ( ( ( ( ( ( ( ( ( ( =.5.3X7.8.8.0.4Xw.( ( ( ( ( ( ( ( ( ( ( ( ( ( ( ( ( ( ( ( ( ( w.W 7.8.8.8.9.r.>.:.( ( ( ( ( ( ( ( ( E ;.*.",
"( ( ( ( ( ( ( ( ( ( ( +.5X6X3.3.3.7Xt.( ( ( ( ( ( ( ( ( ( ( ( ( ( ( ( ( ( ( ( ( ( ( ( E 8X3.3.3.3.7X9X+.( ( ( ( ( ( ( ( ( E ;.*.",
"( ( ( ( ( ( ( ( ( ( ( ( +.=.=.=.=.=.:.( ( ( ( ( ( ( ( ( ( ( ( ( ( ( ( ( ( ( ( ( ( ( ( ( =.=.=.=.=.=.w.( ( ( ( ( ( ( ( ( ( E ;.*.",
"( ( ( ( ( ( ( ( ( ( ( ( ( ( ( ( ( ( ( ( ( ( ( ( ( ( ( ( ( ( ( ( ( ( ( ( ( ( ( ( ( ( ( ( ( ( ( ( ( ( ( ( ( ( ( ( ( ( ( ( ( E ;.*.",
"( ( ( ( ( ( ( ( ( ( ( ( ( ( ( ( ( ( ( ( ( ( ( ( ( ( ( ( ( ( ( ( ( ( ( ( ( ( ( ( ( ( ( ( ( ( ( ( ( ( ( ( ( ( ( ( ( ( ( ( +.E 0X*.",
"W W W W W W W W W W W W W W W W W W W W W W W W W W W W W W W W W W W W W W W W W W W W W W W W W W W W W W W W W W W W qXwXeX*.",
"rXrXrXrXrXrXrXrXrXrXrXrXrXrXrXrXrXrXrXrXrXrXrXrXrXrXrXrXrXrXrXrXrXrXrXrXrXrXrXrXrXrXrXrXrXrXrXrXrXrXrXrXrXrXrXrXrXrXrXrXrXtXyX9 ",
"D D D D D D D D D D D D D D D D D D D D D D D D D D D D D D D D D D D D D D D D D D D D D D D D D D D D D D D D D D D D D D uX9 ",
"9 9 9 9 9 9 9 9 9 9 9 9 9 9 9 9 9 9 9 9 9 9 9 9 9 9 9 9 9 9 9 9 9 9 9 9 9 9 9 9 9 9 9 9 9 9 9 9 9 9 9 9 9 9 9 9 9 9 9 9 9 9 9 9 ",
"9 9 9 9 9 9 9 9 9 9 9 9 9 9 9 9 9 9 9 9 9 9 9 9 9 9 9 9 9 9 9 9 9 9 9 9 9 9 9 9 9 9 9 9 9 9 9 9 9 9 9 9 9 9 9 9 9 9 9 9 9 9 9 9 "
};
