/* XPM */
static char *e7aca602fa9342309b2f334e63d40acdHpE3llMhZip5yPUb[] = {
/* columns rows colors chars-per-pixel */
"64 64 57 1 ",
"  c #0C4E66",
". c #074B68",
"X c #094D68",
"o c #0F5366",
"O c #115666",
"+ c #135A66",
"@ c #1A5D62",
"# c #166167",
"$ c #196265",
"% c #1E6A65",
"& c #156E6E",
"* c #196D6B",
"= c #17706E",
"- c #1C736B",
"; c #136C70",
": c #236D63",
"> c #247566",
", c #257A67",
"< c #2D7C63",
"1 c #217669",
"2 c #247B69",
"3 c #327F61",
"4 c #75A63F",
"5 c #78A73D",
"6 c #76A83E",
"7 c #7AAA3C",
"8 c #3C855B",
"9 c #3C8E5F",
"0 c #3E905E",
"q c #2D8365",
"w c #2F8A67",
"e c #318463",
"r c #368D63",
"t c #398E61",
"y c #389063",
"u c #4C874F",
"i c #4D894F",
"p c #56954D",
"a c #5A974C",
"s c #57994F",
"d c #5C9B4D",
"f c #478451",
"g c #4D8F52",
"h c #428A59",
"j c #4C9556",
"k c #44925B",
"l c #499458",
"z c #519652",
"x c #549951",
"c c #659C46",
"v c #699E44",
"b c #639E49",
"n c #66A047",
"m c #6CA243",
"M c #66A048",
"N c #72A541",
"B c #76A940",
/* pixels */
"rrrrrrrrrrrrrrrrrrrrrrrrrrrrrrrrrrrrrrrrrrrrrrtrrrrrrrrrrrrrrrrr",
"rrrryrrrrrrtrrrrrrrrrrrrrtrrrrrr9990rrrrrrrrrrrrrrrrrrrrrrrrrrrr",
"rrrrrrrrrrrrrrrrrrrrrrrrrrrrrrr9nBNnrrrrrrrrrrrrrrrrrrrrtrrrrrtr",
"rrrrrrrrrrrrryrrrrrrrrrrt9rrrrr9nmNc9trrrrrrrrrrrrrrrrrrrrrrrrrr",
"rrrrrrrrrrrrrrrrrrrrrrr9Ncrrrrrrr0NNNn0rrrrrrrrrrrrrtrtrrrrrrrrr",
"trrrrrrrrrrrrrttttrrrrr9Nnrrrrrrrtcmnctrwrrrrrrrrrewrrwrrrrrrrrr",
"rrrrrtrrrrrrr0mmNbrrrtnNBntrrrrrrrrrtrrr1---rrrrtr1-----rrrrrrrr",
"rrrrrrrrrrrrrtmmBnttr9mNmctrrrrrrrrrrrrr*=11rrrrre1111=-ryrrrtrr",
"rrrrrrrrrrrrrttkNNnMrtNn0yrrrrrrrrrrrrre+@bb1*rr-1bvvc1-rrrrrrrr",
"ryrrrrrrrrrrrrrtmNNcrtNcrrrrtrrrrrrrrrre+@vv11re11vBNm1=rrrrrrrr",
"rrrrrrrrrrrtrrrrttttrr9trrrrrrrrrrrrrr1-*-thbb11bvmmNv@Owtrrrrrr",
"rrrrrrrrrrrrrrrrrrrrrrrrrrrrrrrrrrrrrw-*-1wrNn-1vNNmNc@Owtrrrrrr",
"rrrttrrrrrrrrrrrrrrrrtrrrrrtyrrrrrrr-1bbbb11t9++tkmmkt++eyrrrrtr",
"rrrrrrrrrrrrrrrrrrrrrrrrrrrrrrrrrrrr*1mNNv1=reOOwtvmrw++errrrrrr",
"rrrrrrrrrrrrttbncbrrrrrrrrrrrrrrrryr--,<9tre@+++rt99$@*-ryrrrrrr",
"rrrrrrrrrrrrrtNNBmrrrrrrrrrrrrrrrrrr--=-errrOoO+wrrwOo=1eyrrrrrr",
"rrrtbMnbrrrtcnNn00rrrrrrrrrryrrrrrrrewrerrrreq3etrree3wwrrrrrrrr",
"rrrkNNBnrrr9NBBnrrrrrrrrrrrrrrrrrrrryryrrrrryyyyrrryyyryrrrrrrrr",
"rrryhlmmcdrrh0k0rrrrrrrrtrrrrrrrrrrrrrrrrrrrrrrrrrrrrrrrrtdcbbrr",
"rrrrwtNNBvrrrwrrrrrrrrrrrrrrrrrrrrrrrrrrrrrrrrrrrrrrrrrrrrmNNNtr",
"rrrrrrkkk0rrrrrrrrrrrrrrrrrrrrrrrrrrryrrrrrrrrrrrrrrrrrtdcmml9tr",
"rrrrrrrrrrrrrryrrrrrrryrrrrrrrrrrrryrrrrrrrrrrrrrrrrrrrtNBNmtrrr",
"ryrrrrrrrtrtrrrrrrrrrrrrrrrrrytrrrrrrrrrrrrrrrrryrrrtrrtkhkkrrrr",
"rrrrrrrrrrrrrrrrrrrrrrrrrrrrrrrrrrrrrrrrrrrrtrrrrrrrrrrrwrrrrrrr",
"rrrrrrrrrrrrrrrrrrrrrrrrrrrrrrrrrrrrrrrrrrrrrrrrrrrtrrrrryyrrrrr",
"rrrrrrrrrrrrrrrryrrrtrrrrryrrrrrrrrrrrrrrrrrrrrrrrrrrryrrrrrrryr",
"rrrrrrrrrrrrrrtrrrrrrrrrrrrrrrrrrrrtrrryrrrrryrrrrrrrrrrrrrrrrrr",
"rrrrrrryrrryrrrrrrrrrrrrrrrrrrrrrrrrrrrrrrrrrrrrrrrrrrrrrrrrrrrr",
"rrrrrrrrrrrrrrrrrrrrrrrrrrrrrrrrrrrrrrrrrrrrrrrrrrrrrrrrrrrrrrrr",
"rrrrrrrrrrrrrrrrrrrrrrrrrrtrrrrrrrrrrrrrrryrrrrrrrrrrrrrrrrrrryr",
"ryrrrrrrrrrryrrrtrrryrrrrrrrrrrrrrryrrrrrrrtrrrrrrrrrrrrryrrrrrr",
"rrrrrrrrrrrrrrrrrrrrrrrrrrrrrrrytrrrrrrrrrrrrrrrrrryrrrrrrrrrrrr",
"rrrrrrrrrrrrrrrrrrrtrrrrrrrrrrrrrrrrrrrrrrrrrrrrrrrrrrrrrrrrrrrr",
"rrrrrryrrrrrrrrrrrrrrrrrrrrrrrrrrrrrrrryryrrrrrrrrrrrrrrrrrrrrrr",
"rrrrrrrrrrrrtrrrrrrrrrrrrrrrrrrrrrrrrrrrrrrrrrtrrrrrrrrrrryrrrtr",
"rrrrrrrrrrrrrrrrrrrrrrrrrrrrrrrrrrrrrrrrrrrrrrrrrryrrrrrrrrrrrrr",
"rrrrrrrrrrr9zjrrrrrrrrrryrrrrrrrryrrrrrrrrrrrrrrrrrrrryrrrrrrrrr",
"yrrrrrrrrrwr4nyryrrrrrrrrrrrrryyrrrrrrrrrrrrrrrrrrrrrrrrrrrrrrrr",
"rrrrrrrrw9jsmvrrrrrrrrrrrrrrqq<qrrrrrrrrrrrrtrrrrrrrtrrrrrrrrrrr",
"rrrrwrrrr0444mrrrryyytytrrrr;;;=rtrrrrrtrrrrrrrrrrrrrrrrrrrrrryr",
"rrrrzjr9r9vvxzrrrrqq2qqqrr<qhhh83qrrrrrrrrrrrrrrrrrrrrrtjjrrrrrr",
"rrr04nwrr94mrrrrrr&&&&&=tt;=N46m==rrrrrrtrrrrrrrrrrrrrrrNNtrrrrr",
"rrr0mnjjr9szrrrrqq888822>>8hmmmv8t2qrrrrrrrrrtrrrrrrrrjzmmtryttt",
"rrr0444mrrrrrrrr&>577mrr @NBNNBB7B--rrrrrrrrwrwrrrrrrrmBBmtrreww",
"rrr0sdmnrrtrrrrw--jpssjh+@vmdsguif**eyrrrrrtljjjllrrrtvndatrljjl",
"rrrrw04mrrrrrrrr-&&=wt5mo+NmrqX.XXXoerrrrrrtNBNNNNrwrtNNtwwrmNBB",
"rrrrrydxtrrrrrrr,222rtdp::dsre:%::$:rrrrrrrtadvmNvzlrrsdtrljvNba",
"rrrrrrrrrrrrrrytyryyrrwryywrrrrrrryyyrrrrrrrrrNBNNBNrrrrrtmBBmtw",
"rrrrrrrrrrrrrrqqeqqqrrrrrrrtrrrrrrrrrrrrrrrrrrdbbdddtryrrtsdddyr",
"rrrrrrrry0rr9r&&&*=-rrrrrrrrrrrrrrrrrryrrrrrrrrrrwrrrrrrrrrrrrrr",
"rrrrrrqqqwwwqw3333**rrrrrrrtkkkkkkrrrrrrrrrrrrrrrrrrrrrrrrtrrrrr",
"rrrrrr*&&&*&*>N45vO+rrrrrrrtNNNBBmrrrrrrrrrrrryrrrrrrrrrrrrrrrrr",
"rrrrwqq3<<2,&>v4bsO+rrrrrr9jnNNncdrerrrrrrrrrrrrrrrrrrryrrrrrrrr",
"yrrq*>666mrqo@mvywo+eryrrtNNBNNvrrryrrrrrrrrrrrrrrrrrrrrryrrrrry",
"rrrr->aabdk8O@bdq<+@yrrrrtbbbbbdtrrrrrrrryrrrrrrrrrrrrrrrrrrrrrr",
"rryw=-&-r94coOreoO=-rrrrrrrrrrrrrrrrrrrrrrrrrrrrrrrrrrrrrrrrrrrr",
"rrrr2-,2r9Ms$$rr$$11rrrrryrrrrrrrrrrrrrrrrrrrrrrrrrrrrrrrrrrrrrr",
"rrrrrrrrrrrrrrrrryrrrrrrrrrrrrrrrrrrryrrrrryrrrtrrrrrrrrrrrryrrr",
"rrrrrrrrrrrrrrrrrrrtyrrrrrrrrrrrrrrrrrrrrrrrrrrrrrrrrtrrrrrrrrrr",
"rrrrrrrrrrrrrrrrrrrrrrrrrrrrrrrrrrrrrrrrrrrrrrrrrrrrrrrrrrrrrrrr",
"rrrrrrrrrrrrrrrrrrrrrrrrrrrtrrryrrrrrrrrrrrrrtrrrrrrrrrrrrrrrrrr",
"rrrrrrrrrrrrrrrrrrrrrrrrrrrrrrrrrrrrrrrrrrrrrrrryrrrrrryrrryrrrr",
"rrrrrrrrrrrrrrrrrrrryrrrrrrrrrrtrrrrrrrrrrrrrrrrrrrrrrrrrrrrrrrt",
"rrrrrtrrrrrrrrrrrrrrrrrrrrrrrrrrrrrrryrrryrrrrrrrrrrrrrrrrrrrrrr"
};
