/* XPM */
static char *_678904683477[] = {
/* columns rows colors chars-per-pixel */
"64 64 128 2 ",
"   c #0F0C18",
".  c #15151C",
"X  c #1B1D1F",
"o  c #0B1221",
"O  c #101724",
"+  c #161A24",
"@  c #1B1E21",
"#  c #1D1E2A",
"$  c #1D2122",
"%  c #202122",
"&  c #242A26",
"*  c #29282A",
"=  c #322E2F",
"-  c #283028",
";  c #2D382B",
":  c #303C2D",
">  c #332E34",
",  c #373134",
"<  c #3D3637",
"1  c #453B3A",
"2  c #33402F",
"3  c #4F433D",
"4  c #455A3A",
"5  c #4B633E",
"6  c #5A4C42",
"7  c #615146",
"8  c #685649",
"9  c #6F5C4A",
"0  c #755B4A",
"q  c #795E4D",
"w  c #4F6940",
"e  c #546D42",
"r  c #5C7746",
"t  c #7C604D",
"y  c #607B47",
"u  c #85674F",
"i  c #866750",
"p  c #876951",
"a  c #886A51",
"s  c #906F54",
"d  c #9F6D5C",
"f  c #8E7156",
"g  c #877954",
"h  c #917457",
"j  c #917558",
"k  c #9C745C",
"l  c #947D5B",
"z  c #9A7A5D",
"x  c #A16F5D",
"c  c #A3725E",
"v  c #A9765F",
"b  c #A27B5B",
"n  c #AA7E5E",
"m  c #A77760",
"M  c #AB7560",
"N  c #A67E60",
"B  c #AD7B61",
"V  c #B07962",
"C  c #5E804C",
"Z  c #62814A",
"A  c #66894E",
"S  c #708E4F",
"D  c #678C51",
"F  c #6B9051",
"G  c #759351",
"H  c #789753",
"J  c #749D57",
"K  c #7D9658",
"L  c #779F58",
"P  c #7C9A59",
"I  c #74A357",
"U  c #76A358",
"Y  c #7AA55A",
"T  c #74A858",
"R  c #7CAA5A",
"E  c #8E865B",
"W  c #858D5A",
"Q  c #8A8C5A",
"!  c #93825B",
"~  c #9A825D",
"^  c #93895C",
"/  c #819359",
"(  c #8D955C",
")  c #879B5B",
"_  c #8A9C5B",
"`  c #A4815E",
"'  c #85A65A",
"]  c #8AA45C",
"[  c #84AD5B",
"{  c #8DAD5D",
"}  c #84B05C",
"|  c #8DB35E",
" . c #91B45E",
".. c #94B85F",
"X. c #A68361",
"o. c #AD8361",
"O. c #AE8A64",
"+. c #B38562",
"@. c #B58A62",
"#. c #BA8C64",
"$. c #BB8E68",
"%. c #A99662",
"&. c #BE9167",
"*. c #BD9269",
"=. c #8FB660",
"-. c #8EBA62",
";. c #93B760",
":. c #96B960",
">. c #9CBC61",
",. c #A1BF62",
"<. c #C29267",
"1. c #C19569",
"2. c #C9976A",
"3. c #C49A6C",
"4. c #CA9E6E",
"5. c #CCA06F",
"6. c #CFA270",
"7. c #D2A472",
"8. c #DAAA74",
"9. c #A4C263",
"0. c #AAC565",
"q. c #ADC867",
"w. c #AEC868",
"e. c #B2CB6A",
"r. c #B8CF6C",
"t. c #BDD26E",
"y. c #BFD470",
"u. c #C0D470",
/* pixels */
"@ @ X @ @ @ $ X .   5 R J L J U -   @ F U L U J J Y ;   . A U J L J J R 2   . C U J R 4     w R J L L J R 5   . X @ @ @ @ X @ @ ",
"@ X X $ @ @ . : e 4 G :.=.|  . .r 5 e '  . . . . ...r 5 w ' :. . . . ...Z 5 5 ' ..| :.S 5 5 H :.|  . .| ;.G 5 e ; . @ # @ @ $ X ",
"@ @ X $ % $ & e ;.[ :.0.0.9.0.0.=.} } 9.0.9.9.9.9.0.;.} } 9.0.0.0.9.0.9.;.[ } 9.9.0.0.>.} =.:.0.0.9.9.0.0.>.[ -.e & $ $ $ X X X ",
"@ X @ # # # D | 0.9.9.9.9.9.9.9.9.9.9.9.9.9.9.9.9.9.9.9.9.9.9.9.9.,.9.9.9.,.9.9.9.,.9.9.9.9.9.9.9.9.,.9.9.9.9.9.| D % # # $ X $ ",
"@ @ o 0 g Z  .,.9.9.9.9.9.9.9.,.9.9.9.r.r.t.r.t.e.9.9.9.9.,.w.t.r.t.e.9.9.9.9.,.0.t.t.w.,.9.9.0.r.r.e.,.9.9.9.9.,. .C g 0 o @ X ",
"X * 3 c %.R ,.9.9.9.9.9.9.9.0.0.q.e.0.y.u.u.u.u.t.q.9.9.9.0.e.u.u.u.y.w.0.9.9.0.t.u.y.e.0.w.0.e.u.u.t.w.9.9.9.9.9.,.T %.b 3 * @ ",
"# 1 <.v E U >.9.9.9.9.9.9.9.q.u.u.u.u.u.t.u.u.u.y.u.q.9.9.y.u.y.u.y.y.u.0.9.9.t.u.u.u.u.u.u.u.u.u.u.u.u.0.9.9.9.9.,.I ! v <.1 # ",
"O = n / ' ,.9.9.9.9.9.9.t.t.y.y.u.u.u.u.u.u.u.u.y.u.y.t.t.y.y.u.u.u.y.y.y.t.t.y.u.u.u.u.u.u.u.u.u.u.u.u.u.e.,.9.0...I l v &., o ",
"3 q v / [ 0.9.9.9.9.0.e.u.u.u.u.u.u.u.u.u.u.u.u.u.u.u.u.u.u.u.u.u.u.u.u.u.u.u.u.u.u.u.u.u.u.u.u.u.u.u.u.u.t.e.9.9.9. .( ^ ` u 1 ",
"a <.c / [ 9.9.9.9.9.t.u.u.u.u.u.u.u.u.u.u.u.u.u.u.u.u.u.u.y.u.u.u.u.u.u.u.u.u.u.u.u.u.u.u.u.u.u.u.u.u.u.u.u.u.9.9.9.0.} / c <.s ",
"p @.x / } 0.0.9.0.t.y.u.u.u.u.u.u.u.u.u.u.u.u.u.u.u.u.u.u.u.u.u.u.u.u.y.u.u.u.u.u.u.u.u.u.u.u.u.u.u.u.u.u.u.u.9.9.9.9.[ / x #.u ",
"a #.` ~ ( [ >.9.9.t.u.u.u.u.u.u.u.u.t.u.u.u.u.u.u.u.u.u.u.u.u.u.u.u.u.u.u.u.u.u.u.u.u.u.u.u.u.u.u.u.u.u.u.u.u.9.9.9.0.[ / x #.a ",
"a <.@.v l I >.9.9.t.u.u.u.u.u.u.u.u.u.u.u.u.u.u.u.u.u.u.u.u.u.u.u.u.u.y.u.u.u.u.u.u.u.u.u.u.u.u.u.u.u.u.u.u.u.9.9.9...] Q v #.p ",
"a #.@.v ! U >.0.0.y.u.u.u.u.u.u.u.u.u.u.u.u.u.u.u.u.u.u.u.u.u.u.u.u.u.u.u.u.u.u.u.u.u.u.u.u.u.u.u.u.u.u.u.u.t.9.9.,.Y ! v @.&.p ",
"a #.v Q ' >.9.w.t.y.u.u.u.u.u.u.u.u.u.u.u.u.t.u.u.u.u.u.u.u.u.u.y.u.u.u.u.u.u.t.u.u.u.u.u.u.u.t.u.u.u.u.u.u.u.9.9...I l M @.#.a ",
"a @.x K [ 0.9.e.u.y.u.u.u.u.u.u.u.u.u.u.u.u.u.u.u.u.u.u.u.u.u.u.u.u.u.u.u.u.u.u.u.u.u.u.u.u.u.u.u.u.u.u.u.u.u.e.0.9.{ ( ~ o.#.a ",
"a @.c K [ 9.9.w.u.u.u.u.u.u.u.u.u.u.u.u.u.u.u.u.u.u.u.u.u.u.u.u.u.u.u.u.u.u.u.t.u.u.u.u.u.u.u.u.u.u.u.u.u.u.u.u.r.9.0.} K x @.p ",
"a @.c / [ 0.9.w.u.u.u.u.u.u.u.u.u.u.u.u.u.u.u.u.u.u.u.u.u.u.u.u.u.u.u.u.u.u.u.u.u.u.u.u.u.u.u.u.u.u.u.u.u.u.u.u.w.9.0.[ / c @.p ",
"s 1.x / } 0.9.w.u.u.u.u.u.u.u.u.u.u.u.u.u.u.u.u.u.u.u.u.u.t.u.u.u.u.u.u.u.u.u.u.u.u.u.u.u.u.u.t.u.u.u.u.u.u.u.u.e.,.0.[ K c <.h ",
"j 2.m W ' >.9.w.y.y.y.u.u.u.u.u.u.u.u.u.u.u.u.u.u.u.u.u.u.u.u.u.u.u.u.u.u.u.u.u.u.u.u.u.u.u.u.u.u.u.u.u.u.u.u.u.w.9.9.[ / c 2.h ",
"f 5.3.B ! U >.9.9.t.y.u.u.u.u.u.u.u.u.u.u.u.y.u.u.u.u.u.u.u.u.u.u.u.u.u.u.u.u.u.u.u.t.u.u.u.u.u.u.u.u.u.u.u.u.u.w.9.0.} K c 3.j ",
"f 6.3.B ! U >.0.0.t.y.y.u.u.u.u.y.u.u.u.u.u.u.u.u.u.u.u.u.u.u.u.u.u.u.t.u.u.u.u.u.u.u.u.u.u.u.u.u.u.u.u.u.u.u.q.0.9.[ Q ` @.4.f ",
"j 6.3.B ! U >.0.0.t.u.u.u.u.u.u.u.u.u.u.u.u.u.u.t.u.u.u.u.u.u.u.u.u.u.u.u.u.u.u.u.u.u.u.u.u.u.u.u.u.u.u.u.u.t.9.9.>.I l B 3.6.j ",
"j 5.3.B ! U >.9.0.u.u.u.u.u.u.u.u.u.u.u.y.u.u.u.u.u.u.u.u.u.u.u.u.u.u.u.u.u.u.u.u.u.u.u.u.u.u.u.u.u.u.u.u.u.t.9.0.>.U ! B 3.6.f ",
"j 4.@.M l I >.9.9.t.u.u.u.u.u.u.u.u.u.u.u.u.u.u.u.u.u.u.u.u.u.u.u.u.u.u.u.u.u.u.u.u.u.u.u.u.u.u.u.u.u.t.u.u.t.9.9.>.I l m #.5.j ",
"f *.B ^ ( | 9.9.9.t.u.u.u.u.u.u.u.u.u.y.u.u.u.u.u.u.u.u.u.u.u.u.u.u.u.u.u.u.t.u.u.u.u.u.u.t.u.u.u.u.u.u.u.u.u.t.0.>.| ( ! B *.f ",
"a +.m K } q.9.9.0.y.u.u.u.u.u.u.u.u.u.u.u.u.t.u.u.u.u.u.u.u.u.u.u.u.u.u.u.u.u.u.u.y.u.u.u.u.u.u.u.u.u.u.u.u.u.u.e.9.0.} K d @.a ",
"a #.x K [ 9.,.w.u.u.u.u.u.u.u.u.u.u.u.u.u.u.u.u.u.u.u.u.t.u.u.u.u.u.u.u.u.u.u.u.u.u.u.u.u.u.u.u.u.u.u.u.u.u.u.u.w.9.0.[ K v @.a ",
"a #.x / [ 0.9.e.u.u.u.u.u.u.u.u.u.t.u.u.u.u.u.u.u.u.u.u.u.u.u.u.u.y.u.u.u.u.u.u.u.u.u.u.u.u.t.u.u.u.u.u.u.u.u.u.w.,.0.} / c #.a ",
"i #.x / [ 9.,.w.u.u.u.u.u.u.u.u.u.u.u.u.u.u.u.u.t.u.u.u.u.u.u.u.u.u.u.u.u.u.u.u.u.u.u.u.u.u.u.u.u.u.u.u.u.u.u.u.e.9.9.[ K x #.a ",
"a #.x K [ 9.9.e.u.u.u.u.u.u.u.u.u.u.u.u.u.u.u.u.u.u.u.u.u.u.u.u.u.u.u.u.u.u.u.u.u.u.u.u.u.u.u.u.u.u.u.u.u.u.u.u.w.9.0.[ K x #.i ",
"a #.x K } q.,.e.u.u.u.u.u.u.u.u.u.u.u.u.u.u.u.u.u.u.u.u.u.u.u.u.u.u.u.u.u.u.u.u.u.u.u.u.u.u.u.u.u.u.u.u.u.u.u.u.e.>.[ E N &.$.i ",
"a $.o.^ _ ..,.q.e.u.u.u.u.u.u.u.u.u.u.u.u.u.u.u.u.u.u.u.u.u.u.u.u.u.u.u.u.u.u.u.u.u.u.u.u.u.u.u.u.u.u.u.u.u.u.u.e.>.I ! v 3.2.a ",
"a 1.3.B l U >.9.0.t.u.u.u.u.u.u.u.u.u.t.u.u.u.u.u.u.u.u.u.u.u.u.u.u.u.u.u.u.u.u.u.u.u.u.u.u.u.u.u.u.u.u.u.u.u.u.e.>.Y ! V 3.5.j ",
"h 4.3.B ! I ,.9.9.y.u.u.u.u.u.u.u.u.u.u.u.u.u.u.u.u.t.u.u.u.u.u.t.u.u.u.u.u.u.u.u.u.u.u.u.t.u.u.u.u.u.u.u.u.u.u.e...Y ! B 3.5.j ",
"h 5.3.V ! I >.9.9.y.u.u.u.u.u.u.u.u.u.u.u.u.u.u.u.u.u.u.u.u.u.u.u.u.u.u.u.u.u.u.u.u.u.u.u.u.u.u.u.u.u.u.u.u.u.e.q.>.Y l B 3.2.f ",
"h 2.*.X.E R ,.9.0.t.u.u.u.u.u.u.u.u.u.u.u.u.u.u.u.u.u.u.u.u.u.u.u.u.u.u.u.u.u.t.u.u.u.u.y.u.u.u.u.u.u.u.u.u.u.9.9.>.R E X.*.&.i ",
"a #.c / [ 0.9.9.9.t.u.u.u.u.u.u.u.u.u.u.u.u.u.u.u.u.u.u.u.u.u.u.u.u.u.u.u.u.u.u.u.u.u.u.u.u.u.u.u.u.u.u.u.u.t.9.9.9.0.[ K c #.a ",
"a #.c K [ 9.9.q.t.y.u.u.u.u.u.u.u.u.u.u.u.u.u.u.u.u.u.u.u.u.u.t.u.u.u.u.u.u.u.u.t.u.u.u.u.u.u.u.u.u.t.u.u.u.y.t.q.,.0.[ / x #.a ",
"a +.m / [ 0.,.e.u.u.u.u.u.u.u.u.u.u.u.u.u.u.t.u.u.u.u.u.u.u.u.u.u.u.u.u.u.u.u.u.u.u.u.u.u.u.u.u.u.u.u.u.u.u.u.u.e.,.0.[ K x #.a ",
"a #.m K [ 9.,.e.u.u.u.u.u.u.u.u.u.u.u.u.u.u.u.u.u.u.u.u.u.u.u.u.u.u.u.u.u.u.u.u.u.u.u.u.u.u.u.u.u.u.u.u.u.u.u.u.e.,.9.[ / c #.a ",
"h 1.x K [ q.9.w.u.u.u.u.u.u.u.u.u.u.u.u.u.u.u.u.u.u.u.u.u.u.u.u.u.u.u.t.u.u.u.u.u.u.u.u.u.u.u.u.u.u.u.u.u.u.u.u.e.9.0.} K d 1.h ",
"h 4.+.^ ( ;.>.e.u.u.u.u.u.u.u.u.u.u.u.u.u.u.u.u.u.u.u.u.u.u.u.u.u.u.u.u.u.u.u.u.u.u.t.u.u.u.u.u.u.u.u.u.u.u.y.e.0.9.| _ ^ +.4.j ",
"h 5.3.M l I >.e.y.y.u.u.u.u.u.u.t.u.u.u.u.u.u.u.u.u.u.u.u.u.u.u.u.u.u.u.u.u.u.u.u.u.u.u.u.u.u.u.u.y.u.u.u.u.y.9.9.>.I l V 3.4.j ",
"f 4.3.B E U >.0.0.t.y.u.u.u.u.u.u.u.u.u.u.u.u.u.u.u.u.u.u.u.u.u.u.u.u.u.u.u.u.u.u.u.u.u.u.u.u.u.u.u.u.u.y.u.y.9.0.>.U ! B 3.6.f ",
"j 6.3.B l U >.9.0.t.y.y.u.u.t.u.u.u.u.u.u.u.u.t.u.u.u.u.u.u.u.u.u.u.u.u.u.u.u.u.u.u.u.u.u.u.u.u.u.u.u.u.y.y.y.0.9.>.U ! B 3.6.j ",
"j 6.1.B ! U >.0.9.t.u.u.u.u.u.u.u.u.u.u.u.u.u.u.u.u.u.u.u.u.u.u.u.u.u.u.u.t.u.u.u.u.u.u.u.u.u.u.u.u.u.y.y.y.y.9.9.>.U ! B *.6.h ",
"j 3.@.m ! I >.9.0.t.u.u.u.u.u.u.u.u.u.u.u.u.u.u.u.u.u.u.u.u.u.u.u.u.u.u.u.u.u.u.u.u.u.u.u.u.t.u.u.u.u.u.y.y.y.0.0.>.U ! B @.3.f ",
"a $.m Q ' >.9.9.9.y.y.y.y.u.y.u.u.u.u.u.u.u.u.u.u.u.u.u.u.u.u.u.u.u.u.u.u.u.u.u.t.u.u.u.u.u.u.u.u.u.y.u.y.u.u.0.9.9.>.' Q c 3.j ",
"a #.c K } 0.9.9.0.e.y.u.u.u.u.u.u.u.u.u.u.u.u.u.u.u.u.u.u.u.u.u.u.u.u.u.u.u.u.u.u.u.u.u.u.u.u.u.u.u.u.u.u.t.r.9.9.9.0.} K c 1.h ",
"a #.c K [ 9.9.9.9.,.e.y.u.u.u.u.u.u.u.u.u.u.u.u.u.u.u.u.u.u.u.u.u.u.u.u.u.u.u.u.u.u.u.u.u.u.u.u.u.u.u.y.y.e.,.9.9.9.9.} K x @.a ",
"j 1.x K } 0.,.9.9.9.9.q.u.u.u.u.u.u.u.u.u.u.u.u.u.u.u.u.u.u.u.u.u.u.u.u.u.u.u.u.u.u.u.u.y.u.u.u.u.u.u.u.0.9.9.9.9.9.9.} / v @.a ",
"j 3.d K } 0.9.9.9.9.9.9.e.w.e.w.u.u.u.u.u.u.u.u.u.t.u.u.u.u.u.u.u.u.u.u.u.u.u.u.u.u.u.u.u.u.u.y.e.e.w.e.0.9.9.9.9.9.0.} K x &.a ",
"j 3.m W ' ,.,.9.9.9.9.9.0.9.,.9.e.t.t.t.t.t.t.u.u.u.t.t.t.t.u.u.u.u.u.u.t.t.t.u.u.u.t.t.t.t.u.r.9.9.,.9.9.9.9.9.9.9.,.' W m 3.z ",
"h 5.3.B ! I 9.0.9.9.9.9.9.0.0.0.9.9.9.9.9.0.9.e.u.u.q.9.9.t.u.u.u.u.u.u.q.,.9.r.u.u.9.9.9.9.9.9.9.0.0.0.9.,.9.9.9.,.T ! m 3.4.h ",
"z 7.1.1.O.! ' ;.0.9.9.0.0.| R [ 9.0.9.0...[ 9.0.w.q.0.9.0.0.e.u.u.u.t.q.q.9.9.q.w.q.q...[ 0.9.9.0.| R [ ,.0.9.0.;.' ! O.&.3.7.z ",
"9 ` 3.3.$.v W ] :.:.:.:.:._ / /  .....>.{ / :.,.9.9.9.9.:.,.0.t.r.r.r.,.....0.,.9.,.,.] / ..:.:...) / /  .:.:.>.] W v $.3.3.` 9 ",
". < 4.#.+.@.v ^ I U L U I ~ x v K U P I ^ c J  .9.9.9...J >.9.9.9.9.9.0.[ ' 0.9.9.,.Y E c Y U L U l v c K I U I E M @.@.@.4.< O ",
"# 1 2.#.@.@.+.` l z z z z n @.+.` z z l ` +.k _ R [ R ) z ' -.0.9.0.,.R ^ ^ R R R R l O.&.z z z z ` +.+.b z z z N +.@.@.@.2.1 @ ",
"X = 0 ` #.+.&.$.+.B B B v +.@.@.B v n +.@.&.@.! W Q W ^ v E _ |  . .{ W b ` Q W W Q o.&.2.+.+.+.V @.#.@.B B n o.#.&.$.$.n 0 > @ ",
"X $ o a @.@.*.3.3.&.@.@.#.@.@.@.#.#.#.3.3.3.3.+.v c v n #.m ! J P J K v @.+.v v v v 1.3.3.4.3.1.@.@.@.@.#.#.@.3.3.3.*.&.u O @ X ",
"@ @ $ $ 7 8.5.5.*.2.#.@.@.+.#.2.3.&.+.+.&.3.3.3.*.3.@.+.+.3.@.k k k b 3.@.+.@.+.#.3.3.3.3.3.&.@.@.@.+.@.*.3.3.3.5.6.8.7 # $ $ @ ",
"X X $ + = 8 3 l 5.5.<.#.&.*.2.5.3.3.3.#.&.<.<.<.<.<.$.$.3.4.3.$.$.$.&.4.4.<.@.#.#.<.&.<.&.<.#.#.#.#.<.<.3.5.3.6.f 6 8 = X @ X @ ",
"$ $ X X $ + O 6 *.` ` z b ` O.O.O.O.@.b b z b b z b b b O.O.O.O.O.@.O.O.@.` b b b z b b b z b b b b b @.O.O.O.*.6 o + X @ @ @ @ "
};