/* XPM */
static char *_58d39c6976d4b0bbeb8463eb1841cf1VGphgb2qCEvq723g[] = {
/* columns rows colors chars-per-pixel */
"64 64 191 2 ",
"   c #010100",
".  c #090405",
"X  c #010A04",
"o  c #0C0906",
"O  c #0C000B",
"+  c #0E0B08",
"@  c #011206",
"#  c #001B01",
"$  c #021508",
"%  c #02190A",
"&  c #0B180C",
"*  c #15110C",
"=  c #1B130F",
"-  c #131A06",
";  c #0E0010",
":  c #150012",
">  c #1B0016",
",  c #1D0119",
"<  c #1E1610",
"1  c #16090A",
"2  c #241A14",
"3  c #2A1F17",
"4  c #291513",
"5  c #21031C",
"6  c #03240E",
"7  c #012A0C",
"8  c #002A05",
"9  c #00320E",
"0  c #042B11",
"q  c #0A2913",
"w  c #043113",
"e  c #063F18",
"r  c #053D17",
"t  c #142F16",
"y  c #2B2118",
"u  c #2B2616",
"i  c #34241C",
"p  c #33291C",
"a  c #38291F",
"s  c #302B17",
"d  c #2C0125",
"f  c #172B21",
"g  c #3A2A20",
"h  c #2F3B22",
"j  c #2F2E26",
"k  c #463427",
"l  c #493427",
"z  c #4C312D",
"x  c #064219",
"c  c #074C1D",
"v  c #004214",
"b  c #104C1F",
"n  c #095C23",
"m  c #065A21",
"M  c #1B4C2E",
"N  c #0B6E2A",
"B  c #066426",
"V  c #0C7E30",
"C  c #0B7A2E",
"Z  c #327B3A",
"A  c #73533E",
"S  c #6C503B",
"D  c #63623F",
"F  c #4C0042",
"G  c #368D63",
"H  c #530048",
"J  c #5F0052",
"K  c #368D63",
"L  c #6E005E",
"P  c #368D63",
"I  c #730063",
"U  c #368D63",
"Y  c #7E0F71",
"T  c #7C1562",
"R  c #7A5A43",
"E  c #706243",
"W  c #77754C",
"Q  c #8A0C7B",
"!  c #86634A",
"~  c #8D694E",
"^  c #8B644B",
"/  c #946953",
"(  c #9B7355",
")  c #92664E",
"_  c #0C8533",
"`  c #0D8D36",
"'  c #039435",
"]  c #0E9539",
"[  c #0E9D3B",
"{  c #069837",
"}  c #12963A",
"|  c #119C3C",
" . c #138E38",
".. c #20983F",
"X. c #00A63B",
"o. c #0FA43E",
"O. c #03AC3E",
"+. c #09AB3F",
"@. c #12A23F",
"#. c #00B23F",
"$. c #259D42",
"%. c #359B46",
"&. c #0FA740",
"*. c #0CAC40",
"=. c #12A640",
"-. c #10AC42",
";. c #19AE45",
":. c #05B140",
">. c #0DB243",
",. c #0BB945",
"<. c #11B345",
"1. c #11B947",
"2. c #12BE49",
"3. c #19B347",
"4. c #29AF4A",
"5. c #24AE49",
"6. c #34AE4D",
"7. c #29B54C",
"8. c #36B24F",
"9. c #39B350",
"0. c #38B952",
"q. c #4A9B4C",
"w. c #40A24C",
"e. c #40AF51",
"r. c #5CA354",
"t. c #41B252",
"y. c #56B358",
"u. c #62A958",
"i. c #66B25C",
"p. c #69B55E",
"a. c #12C149",
"s. c #B58663",
"d. c #BA8A66",
"f. c #A99365",
"g. c #80AA61",
"h. c #81B565",
"j. c #CA966F",
"k. c #D29A73",
"l. c #DEA57A",
"z. c #D4A878",
"x. c #D8B87F",
"c. c #D0B77C",
"v. c #CEB17A",
"b. c #E6AB7F",
"n. c #E6A87D",
"m. c #9E0489",
"M. c #368D63",
"N. c #368D63",
"B. c #AB0294",
"V. c #B5019C",
"C. c #B8009F",
"Z. c #368D63",
"A. c #C100A6",
"S. c #368D63",
"D. c #368D63",
"F. c #368D63",
"G. c #368D63",
"H. c #368D63",
"J. c #368D63",
"K. c #368D63",
"L. c #368D63",
"P. c #368D63",
"I. c #368D63",
"U. c #368D63",
"Y. c #368D63",
"T. c #368D63",
"R. c #368D63",
"E. c #368D63",
"W. c #368D63",
"Q. c #368D63",
"!. c #DBBA80",
"~. c #EAAD81",
"^. c #E7AF80",
"/. c #F3AD83",
"(. c #E2BD84",
"). c #E9BB85",
"_. c #EEB183",
"`. c #F4B686",
"'. c #FFB68A",
"]. c #F5BB88",
"[. c #FDBC8C",
"{. c #F9B487",
"}. c #FFBE91",
"|. c #DEC184",
" X c #EBC389",
".X c #E3C687",
"XX c #FFC18F",
"oX c #FFC492",
"OX c #FFCA96",
"+X c #FFCC99",
"@X c #FFD19B",
/* pixels */
"T.T.T.T.T.T.T.T.T.T.T.T.T.T.R.T.T.T.T.T.T.T.E.V.  .                           O P.R.T.T.T.T.T.T.T.T.T.T.T.T.T.T.T.T.T.T.T.T.T.T.",
"T.T.T.T.T.T.T.T.T.T.T.T.T.T.T.T.T.T.T.T.Y.Y.R.V.                              O P.T.Y.T.T.T.R.T.T.T.T.T.T.T.T.T.T.T.T.T.R.T.T.T.",
"T.T.T.T.R.T.T.T.T.T.T.T.T.T.T.T.T.T.T.T.R.R.W.Z.                              . U.W.R.R.T.T.T.T.T.T.T.T.T.T.T.T.T.T.T.T.T.T.T.T.",
"T.T.T.T.T.T.T.T.T.T.T.T.T.T.T.T.T.T.R.K.Z.Z.F.Q 8 0 0 0 0 0 0 6 0 7 0 0 0 0 0 q V.S.Z.A.U.T.T.T.T.T.T.T.T.T.T.T.T.T.T.T.T.T.T.T.",
"T.T.T.T.T.T.T.T.T.T.T.T.T.T.T.T.T.T.E.m.      9 2.<.<.<.<.1.1.<.<.<.<.<.<.<.1.*.X       H.R.T.T.T.T.T.T.T.T.T.T.T.T.T.T.T.T.T.T.",
"T.T.T.T.T.T.T.T.T.T.T.Y.T.Y.Y.T.Y.Y.E.M.  .   w <.-.&.-.*.=.=.-.-.*.-.-.-.&.-.| @     . H.R.Y.T.Y.T.T.Y.T.T.T.T.T.T.T.T.T.T.T.T.",
"T.T.R.T.T.T.T.T.T.T.T.R.E.R.E.E.R.R.W.B.      w 2.<.<.<.<.1.<.<.<.<.<.<.<.1.1.-.X       P.E.R.E.E.E.R.R.R.T.T.T.T.T.T.T.T.T.T.T.",
"T.T.T.T.T.T.T.T.T.T.T.K.A.S.S.S.S.A.G.Y 8 q 6 x ` _ _ _ _ _ _ _ _ _ _ _ _ _ _ _ w 6 6 0 B.F.S.S.S.S.S.S.L.R.T.T.T.T.T.T.R.T.T.T.",
"T.T.T.T.T.T.T.T.T.Y.E.I               x 2.-.2.C                                 o.1.<.>.#               V.E.Y.T.T.T.T.T.T.T.T.T.",
"T.T.T.T.T.T.T.T.T.Y.E.U   . .     X   e <.o.<.C                               X [ <.-.=.%       .   .   Z.R.Y.T.T.T.T.T.T.T.T.T.",
"T.T.T.T.T.T.T.R.R.R.Q.U               x a.<.2.C                                 o.1.<.<.%               Z.W.R.R.R.T.T.T.T.T.T.R.",
"T.T.T.T.T.T.R.J.S.S.G.T s g g <       w ] _ ` N 6 7 6 6 7 6 6 6 6 6 7 6 6 6 6 0 V ` ` _ @       y g g s N.F.S.S.L.T.T.T.T.T.T.T.",
"T.T.T.T.T.Y.E.K       ! @X[.@X~   X           w 1.-.>.<.<.<.<.<.<.<.1.<.<.<.<.*.X               k.OX[.+Xk       M.E.T.T.T.T.T.T.",
"T.T.T.T.T.Y.E.K   .   ! OX`.OX~               w 1.=.-.-.-.-.-.-.-.-.-.-.-.*.-.=.@               j.oX].oXk   .   M.E.Y.T.T.T.T.T.",
"T.T.T.T.T.T.E.K   .   ! OX`.OX~   X           0 1.-.-.-.>.-.-.-.*.-.-.-.-.-.-.=.                j.oX[.oXk   .   M.E.Y.T.T.T.T.T.",
"R.T.T.T.T.Y.E.K   .   ! OX].OX~       X 6 6 % c 1.-.-.-.-.-.-.-.-.-.-.-.-.-.-.*.w 6 6 6         j.oX[.OXk   .   M.E.T.T.T.T.T.T.",
"T.T.T.T.T.T.E.K   .   ! OX`.OX~   X   x 2.-.<.-.<.-.*.-.-.-.<.-.-.-.-.-.-.-.-.-.<.<.<.<.%       j.oX[.oXk   .   M.E.T.T.T.T.T.T.",
"T.T.T.T.T.Y.E.K   .   ! OX`.+X~   X   e 1.-.-.-.-.-.-.-.-.-.-.o.*.-.<.-.-.<.-.*.-.*.-.-.%       j.oX].OXk   .   M.E.Y.T.T.T.T.T.",
"T.T.T.T.T.T.E.K   .   ! OX`.OX~   X   e 1.*.-.-.-.-.-.-.1.<.1.1.-.-.-.-.-.-.-.-.-.-.-.-.%       j.oX].oXk   .   M.E.Y.T.T.T.T.T.",
"T.T.T.T.T.Y.W.K   .   ! OX].OX~   .   e 1.-.-.-.-.-.>.o.` ` _ ` -.<.-.*.<.-.-.<.-.-.-.*.%       j.oX[.oXk   .   M.E.T.T.T.T.T.T.",
"T.T.T.T.T.T.E.K   .   ! OX`.OX~   X   e 1.-.-.-.-.-.<._       % -.-.-.-.-.-.-.-.-.*.-.-.%       j.OX{.OXk   .   M.E.Y.T.T.R.T.T.",
"T.T.T.T.T.Y.E.K   .   ! OX].OX~   X   x 1.o.-.-.-.-.1._       % -.-.-.+.-.-.-.o.-.-.-.-.%       j.XX].oXk   .   M.E.T.T.T.T.T.T.",
"T.T.T.T.T.T.E.K   .   ^ +X'.+X)       e 2.<.<.1.1.>.a.`       % <.1.3.<.1.<.<.<.<.1.1.<.@       k.OX[.OXl   .   M.E.T.T.T.T.T.T.",
"T.T.T.T.T.Y.E.K   .   E .Xc..XW X q % x ] ` ` ` ` ` ] N       $ ` ` ` ` ` ` ` ` ` ` ` ` w % % % f.|.c..Xg   .   M.E.Y.T.T.T.T.T.",
"T.R.T.T.T.T.E.K       n ,.o.*.>.<.<.a.N                                                 } <.-.<.*.*.*.>.w   .   M.E.T.T.T.T.T.T.",
"T.T.T.T.T.Y.E.K   .   n 1.-.-.-.o.o.1.N                                               X } <.-.-.-.-.-.<.0       M.E.Y.T.T.T.T.T.",
"T.T.T.T.T.Y.E.K       m a.>.3.-.+.o.,.B                                                 ' +.+.+.<.<.<.2.9       M.E.Y.T.T.T.T.R.",
"T.T.T.T.T.T.E.U > d d M [ ` ` =.9.6.e...4 y y =       . y 3 3 y y y y 2         2 y 3 y %.9.8.9.} `  .} f d d > V.E.Y.T.T.T.T.T.",
"T.T.T.T.R.T.T.T.T.T.W.U   .   A OX'.[.XXXX[.OXs.  X   a oX[.XX[.[.[.oXb..     o ~.oXXX[.[.[.'.oXg   .   Z.E.T.T.T.T.T.T.T.T.T.T.",
"T.T.T.T.T.T.T.T.T.Y.E.U   o   A OX].[.[.[.'.OXs.  .   a oX[.[.[.[.[.XXb.o     o ~.XX[.[.[.[.[.XXp   .   V.E.Y.T.T.T.R.T.T.T.T.T.",
"T.T.T.T.T.T.T.R.R.R.W.U   .   A OX[.[.}.[.].oXs.  .   a XX[.[.[.[.[.XXb..     o ~.XX[.[.[.}.[.oXi       Z.W.T.R.T.T.T.T.T.T.T.T.",
"T.T.T.T.T.T.T.P.H.G.P.P # & X D  Xx.!.).XX[.OXs.      a oX[.[.[.[.[.XXb.o     o b.XX[.[.(.!.x..Xh @ & # m.K.H.H.I.R.T.T.T.T.T.T.",
"T.T.T.T.T.T.E.K   .   n 1.-.-.-.-.-.:.i.}.].OXs.  X   g oX[.[.[.[.[.XXb.o     o ~.XX'.[.7.+.-.-.-.-.-.1.w       M.E.T.T.T.T.T.T.",
"T.T.T.T.T.Y.E.K       n 1.-.-.*.-.-.O.i.}.`.oXs.  .   g XX[.[.XX[.[.XXb.o     o ~.XX[.[.6.+.-.-.-.-.o.<.0   .   M.E.Y.T.T.T.T.T.",
"T.T.T.T.T.Y.E.K   .   n 2.-.<.<.<.<.:.p.}.[.OXs.      p oX[.[.[.XX[.XXb.        /.oX[.}.8.>.<.1.<.<.<.2.0       M.E.Y.T.T.T.T.R.",
"T.T.T.T.T.T.E.K       c [ ] ] ] ] } ' r.).!.(.f.= 3 < l XX[.[.[.[.[.XX~.y 2 2 y v.(.!.!.$.{ } ` ] ] ] ] 0   .   M.E.T.T.T.T.T.T.",
"T.T.T.T.T.Y.E.K                       x 1.=.*.y.[.[.[.[.[.[.[.[.[.[.[.[.[.[.[.].5.*.=.-.%                   .   M.E.T.T.T.T.T.T.",
"T.T.T.T.T.Y.E.K   .                   e 1.-.O.y.}.[.'.[.[.[.[.[.[.[.[.[.[.[.[.].5.*.-.-.%                       M.E.Y.T.T.T.T.T.",
"T.T.T.R.R.R.W.K                       x 2.<.:.y.oXXXXXXXoXXXoXXXXXoXXXoXXXXXoXXX7.<.<.<.%                       M.E.Y.T.T.T.T.T.",
"T.T.R.P.J.J.L.P - 2 2 * % $ $ X       w o.] ' q.b.l.l.l.l.l.l.n.l.l.l.l.l.l.l.z.| ] ] ] @       @ $ $ %     .   M.E.T.T.T.T.T.T.",
"T.T.E.G   .   ( OX`.}.p.+.;.1.n                         .         X             X               _ <.=.<.0       M.E.T.T.T.T.T.T.",
"T.Y.E.G   .   ( OX[.}.h.O.=.1.B   X                                                             ` <.*.1.w   .   M.E.Y.T.T.T.T.T.",
"T.Y.E.G   .   ( OX`.}.h.O.;.a.n                                                                 _ 1.-.<.w   .   M.E.Y.T.T.T.T.R.",
"T.T.R.G   .   ( OX{.}.p.' } o.m       X $ @ $ $ $ $ $ $ $ $ $ $ $ @ $ @         = = 2 2 < < < =  .<.*.1.0       B.E.T.T.T.T.T.T.",
"T.Y.R.G   .   ( OX`.OXR   .           e 1.o.-.-.-.&.-.-.=.-.-.-.=.-.-.] X     o b.[.[.].].'.[.'.e.+.*.1.w   .   M.E.T.T.T.T.T.T.",
"T.T.E.G   .   ( OX`.OXR               x 1.-.-.-.<.*.-.-.-.-.-.>.;.-.>.[       o ~.XX[.[.[.[.[.oXe.+.=.<.0       M.E.Y.T.T.T.T.T.",
"T.T.E.F       ( +X[.@XR   X           e ,.+.*.*.*.*.*.*.*.*.+.*.*.+.*.[ X     o ~.XX[.[.[.[.[.[.0.:.;.1.w       M.E.Y.T.T.T.T.T.",
"T.Y.E.K O 5 ; / `.l.].S       X @ $   b 7.4.4.4.4.4.4.4.4.4.4.5.4.4.7.$.      + ~.XX'.XX[.[.[.XXw.{ ] o.f , , O B.E.T.T.T.T.T.T.",
"T.T.T.Y.U.U.R.K X O .         c 1.@.X.i.[.].[.].[.].[.].[.XX].XX[.].XXb..     o b.XX[.[.[.[.[.XXa   . X V.R.U.U.T.T.T.T.T.T.T.T.",
"T.T.T.T.T.T.E.K   .           c 2.=.O.p.}.[.[.[.[.[.[.[.[.[.[.[.[.[.XXb.o     o b.XX[.[.[.[.[.XXi       Z.E.T.T.T.T.T.T.T.T.T.T.",
"T.T.T.T.T.Y.E.K               m 2.-.#.p.oXXXoXXXXXoXoXXX[.[.[.[.[.[.oX~..     o `.oXXXXXXXXXXXoXs       C.E.Y.T.T.T.T.T.T.T.T.T.",
"T.T.T.T.T.Y.E.I . > > .       x -.| { r./.b.b.b.b.b.b.^.).).).).).(.).v.& X X & k.~.b.b.b.b.b.~.z : , O Z.R.T.R.T.T.T.T.T.T.T.T.",
"T.T.T.T.T.T.T.Y.U.I.R.I   .       X   X o . o . . o . q 3.;.3.;.;.;.;.;.&.o.-.o.& . o o . o . X S.T.U.U.Y.T.T.T.T.T.T.T.T.R.T.T.",
"T.R.T.T.T.T.T.T.T.T.W.U                               6 >.o.+.o.*.-.*.*.-.-.-.o.X               D.R.T.T.T.T.T.T.T.T.T.T.T.T.T.T.",
"T.T.T.T.T.T.T.T.R.T.W.U                               6 1.<.<.<.<.<.<.<.<.<.1.-.X               F.E.R.R.T.T.T.T.T.T.T.T.T.T.T.T.",
"T.T.T.T.T.T.R.U.P.K.Y.L   .     @ @ X + * * * * * * 1 t o.[ [ | | [ | | [ [ [ ] X               Z.I.K.P.Y.T.T.T.T.T.T.T.T.T.T.T.",
"T.T.T.T.T.Y.E.L   O O .       c >.@.X.u.'.`.`.`.`.`.[.d.  X   X   X X   X X   X                 . O O   Z.R.T.T.R.T.T.T.T.T.T.T.",
"T.T.T.T.T.Y.E.K               c 2.-.O.i.oX[.[.[.[.[.OXj.                                                Z.E.Y.T.T.T.T.T.T.T.T.T.",
"T.T.T.T.T.Y.E.K               c 2.;.#.p.oX[.}.oX[.[.OXj.                                                V.E.Y.T.T.T.T.T.R.T.T.T.",
"T.T.T.T.T.T.E.I   > : .       x *.@.{ u.{.~.~.~._.~.].d.                                        O : : . Z.R.T.T.T.T.T.T.T.T.T.T.",
"T.T.T.T.T.T.T.U.I.L.R.I         X X   X + + + + + + + o                                         S.Y.L.U.Y.R.T.T.T.T.T.T.T.T.T.T.",
"T.T.T.T.T.T.T.R.R.T.E.U   .                                                                     F.E.T.R.T.T.T.T.T.T.T.T.T.T.T.T.",
"T.T.R.T.T.T.T.T.T.Y.E.U   .                                                                     D.R.Y.T.T.T.T.T.R.T.T.T.T.T.T.T.",
"T.T.T.T.T.T.T.T.T.Y.E.U                                                                         D.R.T.T.T.T.T.T.T.T.T.T.T.T.T.T."
};
