/* XPM */
static char *_678902807068[] = {
/* columns rows colors chars-per-pixel */
"64 64 95 2 ",
"   c #775450",
".  c #7F5854",
"X  c #8E615C",
"o  c #8F615C",
"O  c #8F615D",
"+  c #8F625D",
"@  c #93655B",
"#  c #90625D",
"$  c #91625D",
"%  c #91635D",
"&  c #91645D",
"*  c #93655C",
"=  c #92645D",
"-  c #93645D",
";  c #93655D",
":  c #92645E",
">  c #94655C",
",  c #94665C",
"<  c #95665C",
"1  c #96675C",
"2  c #96685C",
"3  c #97685C",
"4  c #97695C",
"5  c #976C5E",
"6  c #9B6B5B",
"7  c #9B6C5B",
"8  c #9C6C5B",
"9  c #9C6D5B",
"0  c #9D6D5B",
"q  c #9D6E5B",
"w  c #9E6E5B",
"e  c #9E6F5B",
"r  c #9F6F5B",
"t  c #98695C",
"y  c #9A6B5C",
"u  c #9A6C5F",
"i  c #9F705B",
"p  c #A37359",
"a  c #A0705A",
"s  c #A0715A",
"d  c #A1715A",
"f  c #A0705B",
"g  c #A2725A",
"h  c #A3725A",
"j  c #A3735A",
"k  c #A4735A",
"l  c #A77659",
"z  c #A77759",
"x  c #A4745A",
"c  c #A5755A",
"v  c #A6755A",
"b  c #A6765A",
"n  c #A7765A",
"m  c #A87758",
"M  c #A87759",
"N  c #A97858",
"B  c #A97859",
"V  c #A97959",
"C  c #AA7858",
"Z  c #AA7959",
"A  c #AB7959",
"S  c #AB7A59",
"D  c #9C6F61",
"F  c #9D7061",
"G  c #A07465",
"H  c #A77B63",
"J  c #AA7E64",
"K  c #AA7E65",
"L  c #A27768",
"P  c #AF8265",
"I  c #B78A67",
"U  c #B98C67",
"Y  c #B78C68",
"T  c #B88D69",
"R  c #C2986B",
"E  c #C3986C",
"W  c #C3996C",
"Q  c #C49A6C",
"!  c #C59B6C",
"~  c #C69C6C",
"^  c #C19975",
"/  c #C9A37F",
"(  c #CAA47F",
")  c #CFA97B",
"_  c #D1AB7C",
"`  c #D2AC7D",
"'  c #CAA480",
"]  c #D9B688",
"[  c #DAB789",
"{  c #DBB889",
"}  c #DCB98A",
"|  c #DCBA8B",
" . c #DDBA8B",
".. c #DEBB8B",
"X. c None",
/* pixels */
"X.X.X.X.X.X.X.X.X.X.X.X.X.X.X.X.X.X.X.X.X.X.X.X.X.X.X.X.X.X.X.X.X.X.X.X.X.X.X.X.X.X.X.X.X.X.X.X.X.X.X.X.X.X.X.X.X.X.X.X.X.X.X.X.",
"X.X.X.X.X.# # # # # # # # # # # # # # # # # # # # # # # # # # # # # # # # # # # # # # # # # # # # # # # # # # # # # # X.X.X.X.X.",
"X.X.X.X.X.O # # # # # # # # # # # # # # # # # # # # # # # # # # # # # # # # # # # # # # # # # # # # # # # # # # # # # X.X.X.X.X.",
"X.X.X.X.X.X O O O O O O O O O O O O O O O O O O O O O O O O O O O O O O O O O O O O O O O O O O O O O O O O O O O O O X.X.X.X.X.",
"  . X.X.5 J K K K K K K K K K K K K K K K K K K K K K K K K K K K K K K K K K K K K K K K K K K K K K K K K K K K K H X.X.X.X.X.",
"# # # O F W ! ! ! ! ! ! ! ! ! ! ! ! ! ! ! ! ! ! ! ! ! ! ! ! ! ! ! ! ! ! ! ! ! ! ! ! ! ! ! ! ! ! ! ! ! ! ! ! ! ! ! ~ T & # # # # ",
"# # # O F E Q Q Q Q Q Q Q Q Q Q Q Q Q Q Q Q Q Q Q Q Q Q Q Q Q Q Q Q Q Q Q Q Q Q Q Q Q Q Q Q Q Q Q Q Q Q Q Q Q Q Q ! Y & # # # # ",
"# # # O F E Q Q Q Q Q Q Q Q Q Q Q Q Q Q Q Q Q Q Q Q Q Q Q Q Q Q Q Q Q Q Q Q Q Q Q Q Q Q Q Q Q Q Q Q Q Q Q Q Q Q Q ! Y & # # # # ",
"# # # O F E Q Q Q Q Q Q Q Q Q Q Q Q Q Q Q Q Q Q Q Q Q Q Q Q Q Q Q Q Q Q Q Q Q Q Q Q Q Q Q Q Q Q Q Q Q Q Q Q Q Q Q ! Y & # # # # ",
"# # # O F E Q Q Q Q Q Q Q Q Q Q Q Q Q Q Q Q Q Q Q Q Q Q Q Q Q Q Q Q Q Q Q Q Q Q Q Q Q Q Q Q Q Q Q Q Q Q Q Q Q Q Q ! Y & # # # # ",
"# # # O F E Q Q Q Q Q Q Q Q Q Q Q Q Q Q Q Q Q Q Q Q Q Q Q Q Q Q Q Q Q Q Q Q Q Q Q Q Q Q Q Q Q Q Q Q Q Q Q Q Q Q Q ! Y & # # # # ",
"# # # O D R Q Q Q Q Q Q Q Q Q Q Q Q Q Q Q Q Q Q Q Q Q Q Q Q Q Q Q Q Q Q Q Q Q Q Q Q Q Q Q Q Q Q Q Q Q Q Q Q Q Q Q Q Y & # # # # ",
"# # # O G ) _ _ _ _ _ _ _ _ _ _ _ _ _ _ _ _ _ _ _ _ _ _ _ _ _ _ _ _ _ _ _ _ _ _ _ _ _ _ _ _ _ _ _ _ _ _ _ _ _ _ _ ` ^ : # # # # ",
"# # # o L [  .| | | | | | | | | | | | | | | | | | | | | | | | | | | | | | | | | | | | | | | | | | | | | | | | | | ..' : # # # # ",
"# # # o L [ } } } } } } } } } } } } } } } } } } } } } } } } } } } } } } } } } } } } } } } } } } } } } } } } } } }  .( : # # # # ",
"# # # o L ] { { { { { { { { { { { { { { { { { { { { { { { { { { { { { { { { { { { { { { { { { { { { { { { { { { { } / : # # # # ",
"# # # O u I U U U U U U U U U U U U U U U U U U U U U U U U U U U U U U U U U U U U U U U U U U U U U U U U U U U U P % # # # # ",
"# # # # 1 m N N N N N N N N N N N N N N N N N N N N N N N N N N N N N N N N N N N N N N N N N N N N N N N N N N N C p % # # # # ",
"# # # # 2 B Z Z Z Z Z Z Z Z Z Z Z Z Z Z Z Z Z Z Z Z Z Z Z Z Z Z Z Z Z Z Z Z Z Z Z Z Z Z Z Z Z Z Z Z Z Z Z Z Z Z Z Z k % # # # # ",
"# # # # 2 B Z Z Z Z Z Z Z Z Z Z Z Z Z Z Z Z Z Z Z Z Z Z Z Z Z Z Z Z Z Z Z Z Z Z Z Z Z Z Z Z Z Z Z Z Z Z Z Z Z Z Z Z k % # # # # ",
"# # # # 2 B Z Z Z r 6 7 7 7 7 7 7 7 7 7 7 7 7 7 7 7 7 7 7 7 7 7 7 7 7 7 7 7 7 7 7 7 7 7 7 7 7 7 7 7 7 7 7 7 x Z Z Z k % # # # # ",
"# # # # 2 B Z Z B 1 O # # # # # # # # # # # # # # # # # # # # # # # # # # # # # # # # # # # # # # # # # # O r A Z Z k % # # # # ",
"# # # # 2 B Z Z B 2 # # # # # # # # # # # # # # # # # # # # # # # # # # # # # # # # # # # # # # # # # # # # i A Z Z k % # # # # ",
"# # # # 2 B Z Z B 2 # # # # % % % % % % % % % % % % % # # # # # # # # # # % % % % % % % % % % % % % # # # # i A Z Z k % # # # # ",
"# # # # 2 B Z Z B 2 # # # t k j j j j j j j j j j j j < # # # # # # # # 7 k j j j j j j j j j j j d = # # # i A Z Z k % # # # # ",
"# # # # 2 B Z Z B 2 # # + 7 S Z Z Z Z Z Z Z Z Z Z Z Z 2 # # # # # # # # f S Z Z Z Z Z Z Z Z Z Z S z ; # # # i A Z Z k % # # # # ",
"# # # # 2 B Z Z B 2 # # + 6 Z Z Z Z Z Z Z Z Z Z Z Z B 1 O # # # # # # # i A Z Z Z Z Z Z Z Z Z Z Z l ; # # # i A Z Z k % # # # # ",
"# # # # 2 B Z Z B 2 # # + 6 Z Z Z Z Z Z Z Z Z Z Z Z B t = - - - - - - = s Z Z Z Z Z Z Z Z Z Z Z Z l ; # # # i A Z Z k % # # # # ",
"# # # # 2 B Z Z B 2 # # + 6 Z Z Z Z Z Z Z Z Z Z Z Z Z M n n n n n n n n B Z Z Z Z Z Z Z Z Z Z Z Z l ; # # # i A Z Z k % # # # # ",
"# # # # 2 B Z Z B 2 # # + 6 Z Z Z Z Z Z Z Z Z Z Z Z Z Z Z Z Z Z Z Z Z Z Z Z Z Z Z Z Z Z Z Z Z Z Z l ; # # # i A Z Z k % # # # # ",
"# # # # 2 B Z Z B 2 # # O 6 Z Z Z Z Z Z Z Z Z Z Z Z Z Z Z Z Z Z Z Z Z Z Z Z Z Z Z Z Z Z Z Z Z Z Z l ; # # # i A Z Z k % # # # # ",
"# # # # 2 B Z Z B 3 % % $ 7 B B B B B B B B B B B B B B B B B B B B B B B B B B B B B B B B B B B b > % % % f Z Z Z k % # # # # ",
"# # # # 2 B Z Z Z v x x x e 1 1 1 1 1 1 1 1 1 1 1 1 1 1 1 1 1 1 1 1 1 1 1 1 1 1 1 1 1 1 1 1 1 1 1 4 h x x x M Z Z Z k % # # # # ",
"# # # # 2 B Z Z Z Z Z Z S i O # # # # # # # # # # # # # # # # # # # # # # # # # # # # # # # # # O - z S Z Z Z Z Z Z k % # # # # ",
"# # # # 2 B Z Z Z Z Z Z A r # # # # # # # # # # # # # # # # # # # # # # # # # # # # # # # # # # # - l Z Z Z Z Z Z Z k % # # # # ",
"# # # # 2 B Z Z Z Z Z Z Z d ; * * * * * * * * * * * * * * * * * * * * * * * * * * * * * * * * * ; 1 z Z Z Z Z Z Z Z k % # # # # ",
"# # # # 2 B Z Z Z Z Z Z Z B z z z z z z z z z z z z z z z z z z z z z z z z z z z z z z z z z z z M Z Z Z Z Z Z Z Z k % # # # # ",
"# # # # 2 B Z Z Z Z Z Z Z Z Z Z Z Z Z Z Z Z Z Z Z Z Z Z Z Z Z Z Z Z Z Z Z Z Z Z Z Z Z Z Z Z Z Z Z Z Z Z Z Z Z Z Z Z k % # # # # ",
"# # # # 2 B Z Z Z Z Z Z Z Z Z Z Z Z Z Z Z Z Z Z Z Z Z Z Z Z Z Z Z Z Z Z Z Z Z Z Z Z Z Z Z Z Z Z Z Z Z Z Z Z Z Z Z Z k % # # # # ",
"# # # # 2 B Z Z Z c j j j j j j j j j j j j j j j j j j j j j j j j j j j j j j j j j j j j j j j j j j j j z Z Z Z k % # # # # ",
"# # # # 2 B Z Z B 3 # % % % % % % % % % % % % % % % % % % % % % % % % % % % % % % % % % % % % % % % % % % # f A Z Z k % # # # # ",
"# # # # 2 B Z Z B 2 # # # # # # # # # # # # # # # # # # # # # # # # # # # # # # # # # # # # # # # # # # # # i A Z Z k % # # # # ",
"# # # # 2 B Z Z B 2 # # # # # # # # # # # # # # # # # # # # # # # # # # # # # # # # # # # # # # # # # # # # i A Z Z k % # # # # ",
"# # # # 2 B Z Z B 2 # # # , 7 7 7 7 7 7 7 7 7 7 7 7 6 - # # # # # # # # 2 7 7 7 7 7 7 7 7 7 7 7 7 y % # # # i A Z Z k % # # # # ",
"# # # # 2 B Z Z B 2 # # + 7 A Z Z Z Z Z Z Z Z Z Z Z Z 2 # # # # # # # # i S Z Z Z Z Z Z Z Z Z Z Z z ; # # # i A Z Z k % # # # # ",
"# # # # 2 B Z Z B 2 # # + 6 Z Z Z Z Z Z Z Z Z Z Z Z B 2 # # # # # # # # i A Z Z Z Z Z Z Z Z Z Z Z l ; # # # i A Z Z k % # # # # ",
"# # # # 2 B Z Z B 2 # # + 6 Z Z Z Z Z Z Z Z Z Z Z Z B 1 O # # # # # # O r A Z Z Z Z Z Z Z Z Z Z Z l ; # # # i A Z Z k % # # # # ",
"# # # # 2 B Z Z B 2 # # + 6 Z Z Z Z Z Z Z Z Z Z Z Z V 9 3 t t t t t t 4 g Z Z Z Z Z Z Z Z Z Z Z Z l ; # # # i A Z Z k % # # # # ",
"# # # # 2 B Z Z B 2 # # + 6 Z Z Z Z Z Z Z Z Z Z Z Z Z Z Z Z Z Z Z Z Z Z Z Z Z Z Z Z Z Z Z Z Z Z Z l ; # # # i A Z Z k % # # # # ",
"# # # # 2 B Z Z B 2 # # + 6 Z Z Z Z Z Z Z Z Z Z Z Z Z Z Z Z Z Z Z Z Z Z Z Z Z Z Z Z Z Z Z Z Z Z Z l ; # # # i A Z Z k % # # # # ",
"# # # # 2 B Z Z B 1 O # O 6 S Z Z Z Z Z Z Z Z Z Z Z Z Z Z Z Z Z Z Z Z Z Z Z Z Z Z Z Z Z Z Z Z Z S z - O # O r A Z Z k % # # # # ",
"# # # # 2 B Z Z Z i 8 9 8 0 w w w w w w w w w w w w w w w w w w w w w w w w w w w w w w w w w w w w 9 9 9 8 x Z Z Z k % # # # # ",
"# # # # 2 B Z Z Z Z Z Z S i O # # # # # # # # # # # # # # # # # # # # # # # # # # # # # # # # # + - z A Z Z Z Z Z Z k % # # # # ",
"# # # # 2 B Z Z Z Z Z Z A i # # # # # # # # # # # # # # # # # # # # # # # # # # # # # # # # # # # ; l Z Z Z Z Z Z Z k % # # # # ",
"# # # # 2 B Z Z Z Z Z Z A i # # # # # # # # # # # # # # # # # # # # # # # # # # # # # # # # # # # ; l Z Z Z Z Z Z Z k % # # # # ",
"# # # # 2 B Z Z Z Z Z Z Z b a s s s s s s s s s s s s s s s s s s s s s s s s s s s s s s s s s a g B Z Z Z Z Z Z Z k % # # # # ",
"# # # # 2 B Z Z Z Z Z Z Z Z Z Z Z Z Z Z Z Z Z Z Z Z Z Z Z Z Z Z Z Z Z Z Z Z Z Z Z Z Z Z Z Z Z Z Z Z Z Z Z Z Z Z Z Z k % # # # # ",
"# # # # 2 B Z Z Z Z Z Z Z Z Z Z Z Z Z Z Z Z Z Z Z Z Z Z Z Z Z Z Z Z Z Z Z Z Z Z Z Z Z Z Z Z Z Z Z Z Z Z Z Z Z Z Z Z k % # # # # ",
"# # # # 2 Z Z Z Z Z Z Z Z Z Z Z Z Z Z Z Z Z Z Z Z Z Z Z Z Z Z Z Z Z Z Z Z Z Z Z Z Z Z Z Z Z Z Z Z Z Z Z Z Z Z Z Z S x % # # # # ",
"X.X.X.X.@ 0 q q q q q q q q q q q q q q q q q q q q q q q q q q q q q q q q q q q q q q q q q q q q q q q q q q q q 7 X.X.X.X.X.",
"X.X.X.X.X.# # # # # # # # # # # # # # # # # # # # # # # # # # # # # # # # # # # # # # # # # # # # # # # # # # # # # + X.X.X.X.X.",
"X.X.X.X.X.# # # # # # # # # # # # # # # # # # # # # # # # # # # # # # # # # # # # # # # # # # # # # # # # # # # # # # X.X.X.X.X.",
"X.X.X.X.X.# # # # # # # # # # # # # # # # # # # # # # # # # # # # # # # # # # # # # # # # # # # # # # # # # # # # # + X.X.X.X.X.",
"X.X.X.X.X.X.X.X.X.X.X.X.X.X.X.X.X.X.X.X.X.X.X.X.X.X.X.X.X.X.X.X.X.X.X.X.X.X.X.X.X.X.X.X.X.X.X.X.X.X.X.X.X.X.X.X.X.X.X.X.X.X.X.X."
};
