/* XPM */
static char *_678901933898[] = {
/* columns rows colors chars-per-pixel */
"64 64 247 2 ",
"   c #010101",
".  c #020B03",
"X  c #0C0B0A",
"o  c #0B0804",
"O  c #130B06",
"+  c #150C08",
"@  c #041204",
"#  c #071708",
"$  c #1B130B",
"%  c #171615",
"&  c #28160D",
"*  c #291A14",
"=  c #371C14",
"-  c #341A0F",
";  c #032405",
":  c #042D04",
">  c #0A2D09",
",  c #07280C",
"<  c #063606",
"1  c #0A340A",
"2  c #0A3C0B",
"3  c #063809",
"4  c #083B11",
"5  c #173315",
"6  c #3A2317",
"7  c #232F12",
"8  c #2C2C2A",
"9  c #252424",
"0  c #333433",
"q  c #3B3B3B",
"w  c #3A3936",
"e  c #333129",
"r  c #1F2122",
"t  c #49261B",
"y  c #47271A",
"u  c #522A1C",
"i  c #592A15",
"p  c #5B341C",
"a  c #502C14",
"s  c #652D13",
"d  c #693418",
"f  c #743D1D",
"g  c #793A1E",
"h  c #542C20",
"j  c #523124",
"k  c #763E20",
"l  c #0C430C",
"z  c #08480A",
"x  c #10460E",
"c  c #0B4B11",
"v  c #0B4814",
"b  c #0C5314",
"n  c #0B5A18",
"m  c #115313",
"M  c #175B15",
"N  c #114914",
"B  c #27541D",
"V  c #0D6A1E",
"C  c #09661B",
"Z  c #186419",
"A  c #08731D",
"S  c #24711A",
"D  c #2E4B2D",
"F  c #0C6D22",
"G  c #166924",
"H  c #0D7425",
"J  c #0E7927",
"K  c #0E7B29",
"L  c #047825",
"P  c #127C26",
"I  c #157927",
"U  c #376822",
"Y  c #237628",
"T  c #2D6F31",
"R  c #195922",
"E  c #5C4518",
"W  c #524F17",
"Q  c #74401B",
"!  c #655219",
"~  c #6A6317",
"^  c #57492D",
"/  c #664925",
"(  c #7B4321",
")  c #754826",
"_  c #695724",
"`  c #725234",
"'  c #516F24",
"]  c #6A702B",
"[  c #346269",
"{  c #4B4B4B",
"}  c #444542",
"|  c #575856",
" . c #545249",
".. c #675E52",
"X. c #587050",
"o. c #67734F",
"O. c #636363",
"+. c #686B68",
"@. c #767575",
"#. c #747468",
"$. c #4A567A",
"%. c #834A24",
"&. c #85562C",
"*. c #845533",
"=. c #876527",
"-. c #976836",
";. c #997439",
":. c #8D672E",
">. c #A47D3D",
",. c #A3763B",
"<. c #90731A",
"1. c #986A44",
"2. c #9E7245",
"3. c #8D6E53",
"4. c #A77A46",
"5. c #A47A58",
"6. c #B07C4A",
"7. c #957D69",
"8. c #8E5D4C",
"9. c #19831E",
"0. c #31851E",
"q. c #0E832B",
"w. c #0C872B",
"e. c #11852B",
"r. c #16882A",
"t. c #16902D",
"y. c #288926",
"u. c #338B23",
"i. c #2C9527",
"p. c #379727",
"a. c #348D3B",
"s. c #3BA326",
"d. c #3DA429",
"f. c #3DAD29",
"g. c #36A429",
"h. c #3DB32B",
"j. c #49912A",
"k. c #42A529",
"l. c #45AA2A",
"z. c #45A826",
"x. c #47B22B",
"c. c #59A42D",
"v. c #7B8838",
"b. c #308842",
"n. c #6D8250",
"m. c #50A44E",
"M. c #5EA266",
"N. c #9A9310",
"B. c #8A8738",
"V. c #979431",
"C. c #B38C3A",
"Z. c #B99835",
"A. c #B19133",
"S. c #BEA032",
"D. c #A4AA09",
"F. c #C9B817",
"G. c #D1BD16",
"H. c #C4AB28",
"J. c #CCB726",
"K. c #D3BA34",
"L. c #C7983E",
"P. c #AAD310",
"I. c #DACA16",
"U. c #CBD90C",
"Y. c #E7DF0C",
"T. c #E6DB15",
"R. c #D5E707",
"E. c #EAE10D",
"W. c #F1EB0C",
"Q. c #FFFE00",
"!. c #FAF608",
"~. c #F8EB14",
"^. c #F0D828",
"/. c #FAEC27",
"(. c #AC8448",
"). c #B58647",
"_. c #B58F53",
"`. c #8F8670",
"'. c #A38A6B",
"]. c #AB9477",
"[. c #B79A78",
"{. c #AB926B",
"}. c #A0A77B",
"|. c #C9994A",
" X c #CD9B50",
".X c #D6A84C",
"XX c #DAA754",
"oX c #D1AE49",
"OX c #E2AC55",
"+X c #E9B456",
"@X c #F6BC5A",
"#X c #C5A57A",
"$X c #D4AD7C",
"%X c #DCAF6A",
"&X c #E2BE7C",
"*X c #ECC54F",
"=X c #143F98",
"-X c #2C519A",
";X c #135AA6",
":X c #49659A",
">X c #586B92",
",X c #0285B6",
"<X c #77B585",
"1X c #46A9B9",
"2X c #12BEF9",
"3X c #06C4FF",
"4X c #858785",
"5X c #939795",
"6X c #92908F",
"7X c #B3A691",
"8X c #8CBBAB",
"9X c #AEAFB1",
"0X c #B79A80",
"qX c #CAAD88",
"wX c #D7B58B",
"eX c #C3B994",
"rX c #DDBC93",
"tX c #D5B896",
"yX c #CEAF8B",
"uX c #E2BB8E",
"iX c #E4C498",
"pX c #F3D69F",
"aX c #D3CBAD",
"sX c #E6CCA4",
"dX c #EAD5AE",
"fX c #F3D5A8",
"gX c #F6DDB3",
"hX c #F3CFA0",
"jX c #FCE5BB",
"kX c #DFC191",
"lX c #C9DAC9",
"zX c #D2D3CD",
"xX c #E6DACA",
"cX c #D6E6D8",
"vX c #FEECC3",
"bX c #F8E7C5",
"nX c #FFF5CC",
"mX c #FFF6CA",
"MX c #FFFDD5",
"NX c #E9E5D0",
"BX c #D5DDED",
"VX c #E9EAE9",
"CX c #FDFDFD",
"ZX c #F5F7F4",
"AX c #EAEFF0",
"SX c #DFE1E8",
"DX c None",
/* pixels */
"DXDXDXDXDXDXDXDXDXDXDXDXDXDXDXDXDXDXDXDXDXDXDXDXDXDXDXDXDXDXDXDXDXDXDXDXDXDXDXDXDXDXDXDXDXDXDXDXDXDXDXDXDXDXDXDXDXDXDXDXDXDXDXDX",
"DXDXDXDXDXDXDXDXDXDXDXDXDXDXDXDXDXDXDXDXxXzXxXNXcXcXcXcXlXcXcXcXcXcXcXlXlXlXDXDXDXDXDXDXDXDXDXDXDXDXDXDXDXDXDXDXDXDXDXDXDXDXDXDX",
"DXDXDXDXDXDXDXDXDXDXDXDXDXDXDXDXDXDX_.>.6.` &.` T b.T D B D m.m.m.m.m.a.Y I <XDXDXDXDXDXDXDXDXDXDXDXDXDXDXDXDXDXDXDXDXDXDXDXDXDX",
"DXDXDXDXDXDXDXDXDXDXDXDXDXDXDXDXDXAX5.-.1.f s E I L C < < c i.s.g.p.s.i.K A M.DXDXDXDXDXDXDXDXDXDXDXDXDXDXDXDXDXDXDXDXDXDXDXDXDX",
"DXDXDXDXDXDXDXDXDXDXDXDXDXDXDXsXxXxX|.Z.S.&.%.=.T i.S l 2 M d.l.k.k.l.p.r.P m.DXDXDXDXDXDXDXDXDXDXDXDXDXDXDXDXDXDXDXDXDXDXDXDXDX",
"DXDXDXDXDXDXDXDXDXDXDXDXDX,.,. XXX%XW.Q.!.).4.B.z.x.j.x 3 M d.l.k.k.k.p.k.l.k.p.p.y.G C DXDXDXDXDXDXDXDXDXDXDXDXDXDXDXDXDXDXDXDX",
"DXDXDXDXDXDXDXDXDXDXDXDX[.:.2.XXOXOX!.Q.Q.C.1.B.l.x.p.x < M s.k.k.k.k.k.k.k.k.k.l.i.L V DXDXDXDXDXDXDXDXDXDXDXDXDXDXDXDXDXDXDXDX",
"DXDXDXDXDXDXDXDXDXDXDXeXK.F.J.|.|.|.H.G.J._.|.).k.l.p.x 3 M d.k.d.k.k.k.k.k.k.k.l.p.i.y.M.<X8XM.DXDXDXDXDXDXDXDXDXDXDXDXDXDXDXDX",
"DXDXDXDXDXDXDXDXDXDX:.-.T.Q.Q.C.-.2.2.1.4.XX+X.Xj.h.j.x < M d.z.k.k.k.k.k.k.k.k.k.k.k.z.r.C A z : ; DXDXDXDXDXDXDXDXDXDXDXDXDXDX",
"DXDXDXDXDXDXDXDXDXDX-.2.T.Q.!.C.2.,.>.;.>. XOX|.j.g.u.x < M d.z.k.k.k.k.p.k.k.k.k.k.k.l.y.K q.b 2 2 DXDXDXDXDXDXDXDXDXDXDXDXDXDX",
"DXDXDXDXDXDXDXDX[.K.I.I.F.Z.S.|. X X X X.X^.^.T.U.U.P.S y.S Z M Y k.k.d.k.k.k.k.k.k.k.k.p.p.p.I C V X.X.DXDXDXDXDXDXDXDXDXDXDXDX",
"DXDXDXDXDXDXDX:.;.I.Q.Q.Z.8.4..X+X+X+XOX+X!.Q.Q.Q.Q.R.z.x.u.< : M k.k.k.z.k.k.z.k.k.k.k.k.l.x.y.K q.z : : DXDXDXDXDXDXDXDXDXDXDX",
"DXDXDXDXDXDXqX-.4.I.Q.!.Z.,.,. X+XXXOXXX+X~.Q.Q.W.!.R.s.f.u.2 3 S z.z.z.d.d.s.s.d.d.k.k.k.k.l.y.J K m 2 2 DXDXDXDXDXDXDXDXDXDXDX",
"DXDXDXDXDXDX[.f ` F.Q.!.oX.X.X-.%.%.4.).(.E.Q.W.S.C.V.z.l.0.l 3 Z z.z.u.m m m m x S l.k.k.d.l.y.J K H H F T } DXDXDXDXDXDXDXDXDX",
"DXDXDXDXDXDX].i p H.Q.!.^.+X+X%.s d -.2.>.W.Q.W.4.1.B.z.f.y.3 : B x.x.S : < < < : Z x.k.k.l.l.y.K J K e.q.z : < DXDXDXDXDXDXDXDX",
"DXDXDXDXDXDX7X` 8.H.Y.Y..X XXX-.) *.4.).(.T.W.Y.Z.Z.V.j.c.j.b N Z p.k.y.m m m M m S f.s.p.d.s.r.K J J J K b 2 l DXDXDXDXDXDXDXDX",
"DXDXDXDXDXDXDXDXVX`.d ) -.,.,.$XwXwXwXwXyX(.4.A.E.!.U.;.(.V.s.h.0.l 2 S k.k.d.d.l.i.P K I P P K J K J K K b 2 l DXDXDXDXDXDXDXDX",
"DXDXDXDXDXDXDXDXAX7.a s -.).4.qXrXwXwXwXwX4.1.C.W.Q.E.>.4.B.f.x.0.< : Z x.x.l.l.x.i.K K J J K H K K K K J v 3 2 DXDXDXDXDXDXDXDX",
"DXDXDXDXDXDXDXDXDX7X7.'...) ) #XrXyXiXiXiX_.'._.W.Q.E.(.4.B.a.g.y.b b Z u.u.u.i.p.y.K J K J K K K K K K K C b n DXDXDXDXDXDXDXDX",
"DXDXDXDXDXDXDXDXDXDXDXZX{   X {.uXyXgXvXjXkXwX&X~.Q.E.;.4.] I K J K q.V 2 2 b J H K K J J K K K K K H K K K q.K N ; 7 DXDXDXDXDX",
"DXDXDXDXDXDXDXDXDXDXDXVX{   X #XiXrXvXmXmXuXyX&XW.Q.E.C.4.v.I H K q.q.F 2 2 M w.K K J K K K K K K K e.K K K K e.c < B DXDXDXDXDX",
"DXDXDXDXDXDXDXDXDXDXDXVX{   X *.6.2.#.O.#.aXgXiX/.Q.E.;.4.:.' ' U n C b l l c Z n G K J K K K K K K K K K H K K c 4 B DXDXDXDXDX",
"DXDXDXDXDXDXDXDXDXDXDXVX{   o i f d o     aXMXgX/.Q.Y.C.4.-.Q %.E 2 2 2 l l l 2 1 n q.J K K K K K K K K K K K K c < B DXDXDXDXDX",
"DXDXDXDXDXDXDXDXDXDXDXDX{   o p Q f $   + aXmXgX/.Q.T.4.4.-.g ( W 2 2 2 2 1 1 1 > n q.K K K q.K q.K K K K K K K c 3 B DXDXDXDXDX",
"DXDXDXDXDXDXDXDXDX4Xw } 7.{.'.$.$.:X9X9X9XbXnXfXZ.A.Z. X.XC.f d ` {.{.}.eXeXeXeXeXn.N b b c b 4 , ; v b c H q.K c 2 l D q DXDXDX",
"DXDXDXDXDXDXDXDXDXO.    '.fXiX:X=X;XAXCXCXnXvXdX4.1.6.OX@X|.f s 1.iXrXfXnXmXnXmXMX{.1 x l l x o     : l 2 F q.K c 2 2 .   9 DXDX",
"DXDXDXDXDXDXDXDXDX+.  O '.iXyX:X-X-XBXCXZXvXjXgX6.-.(..X+XL.Q s 1.rXyXiXjXjXjXgXvX`.> l 2 l l , X % 1 l l V K K c 2 l @   8 DXDX",
"DXDXDXDXDXDXDXDXDX+.  X '.iXyX:X=X-XBXCXCXvXvXdX&.f :.E.!.G.Q s 5.bXjXgXjXvXwX4._./   . X . @ 5XDXDXw   @ 2 c v z l 2 @   8 DXDX",
"DXDXDXDXDXDXDXDXDX+.  o '.hXtX:X=X-XBXCXCXbXvXdX&.s =.W.Q.F.d i 5.nXvXvXvXMXkX-.).E           9XDXDXw     < x l l l l @   8 DXDX",
"DXDXDXDXDXDXDXDXDX@.9 0 3.[.[.>X:X:XSXCXCXbXvXdX*.i =.W.Q.I.*.g 7.lXzXdXhXjX#X&.;.j     % 0 9 9XDXDXO.9 0 5 3 < l l 2 @   8 DXDX",
"DXDXDXDXDXDXDXDXDXDXDXDX .O % ].tXyXbXbXbXjXvXdX*.s &.W.Q.^.wX$X8X2X3X1X,.)._ O O o     4XVXVXDXDXDXDXDXDXq     2 l 2 @   8 DXDX",
"DXDXDXDXDXDXDXDXDXDXDXDXq   o #XhXrXgXbXjXjXnXdX) i =.~.Q.^.rXuX8X3X3X1X).)._           4XDXDXDXDXDXDXDXDXq     2 b 2 .   9 DXDX",
"DXDXDXDXDXDXDXDXDXDXDXDX4X .O.3.5.3.sXfXhXpXgXsX2.-.(.F.F.J.*X*X}.;X,X-X~ _ / j p ! ~ W 7XDXDXDXDXDXDXDXDXDXX.O.5 > 5 | | DXDXDX",
"DXDXDXDXDXDXDXDXDXDXDXDXDXDXDX8   O [.rXqXyXqXwXyXkX#X) u <.W.Q.N.. X   o   W +X+X^.Q.!.pXDXDXDXDXDXDXDXDXDXDXDXD   9 DXDXDXDXDX",
"DXDXDXDXDXDXDXDXDXDXDXDXDXDXDXe   X 7XhXkXiXiXiXiXsX$X) d <.!.Q.D.          / @X+X^.Q.!.pXDXDXDXDXDXDXDXDXDXDXDXDXo % DXDXDXDXDX",
"DXDXDXDXDXDXDXDXDXDXDXDXDXDXDX5X6X6X..^ ] o.X.o.X.n. .6 & W ^./.N.    @ , ; 7 _ _ ~ ~ ~ 7XDXDXDXDXDXDXDXDXDXDXDXDXDXDXDXDXDXDXDX",
"DXDXDXDXDXDXDXDXDXDXDXDXDXDXDXDXDXZX8     < < < < 3 :     y XX@X;.    # b c >           4XDXDXDXDXDXDXDXDXDXDXDXDXDXDXDXDXDXDXDX",
"DXDXDXDXDXDXDXDXDXDXDXDXDXDXDXDXDXVX8   X 2 l 2 z z 3 .   j oX*X;.. . # l l :     X X % 5XDXDXDXDXDXDXDXDXDXDXDXDXDXDXDXDXDXDXDX",
"DXDXDXDXDXDXDXDXDXDXDXDXDXDXDX| 0 } R C C F H F F J b .   7 j.j.y.C C b l l >     O.DXDXDXDXDXDXDXDXDXDXDXDXDXDXDXDXDXDXDXDXDXDX",
"DXDXDXDXDXDXDXDXDXDXDXDXDXDXDXr     F w.q.K K q.K w.V @   ; L L L L w.C l x >     @.DXDXDXDXDXDXDXDXDXDXDXDXDXDXDXDXDXDXDXDXDXDX",
"DXDXDXDXDXDXDXDXDXDXDXDXDXDXDX^ $ 7 H q.H K H K J K F .   5 a.b.T a.a.G 1 v ,     +.DXDXDXDXDXDXDXDXDXDXDXDXDXDXDXDXDXDXDXDXDXDX",
"DXDXDXDXDXDXDXDXDXDXDXDX| X 5 F.!.E.u.H K K K K J q.V @   { cXAXAXAXZX5X  .       @.DXDXDXDXDXDXDXDXDXDXDXDXDXDXDXDXDXDXDXDXDXDX",
"DXDXDXDXDXDXDXDXDXDXDXDX{   O E.Q.Q.i.L q.K K K J e.V @   | CXDXDXDXCX9X          @.DXDXDXDXDXDXDXDXDXDXDXDXDXDXDXDXDXDXDXDXDXDX",
"DXDXDXDXDXDXDXDXDXDXDXDXq   O D.R.U.0.G Y I K K H e.V @   } zXzXzXzXcX4X    . # # O.DXDXDXDXDXDXDXDXDXDXDXDXDXDXDXDXDXDXDXDXDXDX",
"DXDXDXDXDXDX4X  X X X o       G r.I / f f Y J H K w.F @   $ y y y y h *     , w.w.x X X >XDXDXDXDXDXDXDXDXDXDXDXDXDXDXDXDXDXDXDX",
"DXDXDXDXDXDX4X              . F q.K E g f I w.e.w.w.V .   + y h y y u *     4 w.w.c     6XDXDXDXDXDXDXDXDXDXDXDXDXDXDXDXDXDXDXDX",
"DXDXDXDXDXDX4X    & 6 6 O   . F e.H ' _ ' U U U U U B .   + t h h p p h & - 7 n b v 1 4 #.DXDXDXDXDXDXDXDXDXDXDXDXDXDXDXDXDXDXDX",
"DXDXDXDXDXDX4X    a &.) &   . F q.I s.k.k._ g f Q ( d o   + t t u g k ( ( %.a     4 w.w.<   o DXDXDXDXDXDXDXDXDXDXDXDXDXDXDXDXDX",
"DXDXDXDXDXDX4X    y %.( $     F t.e.k.z.k.) g Q f %.p O   + t t a d d s d d y     l w.q.4   o DXDXDXDXDXDXDXDXDXDXDXDXDXDXDXDXDX",
"DXDXDXDXDXDX4X    y ( f y & * 1 2 2 p.k.d.' ' ' ' ' ' m c 4 & + ^ #X#X[.5._.`     4 e.q.4   . DXDXDXDXDXDXDXDXDXDXDXDXDXDXDXDXDX",
"DXDXDXDXDXDX4X    a %.( p u u o     u.x.l.f.f.f.f.l.g.e.t.V .   ..MXMXjXrXfX`.    4 e.t.4     DXDXDXDXDXDXDXDXDXDXDXDXDXDXDXDXDX",
"DXDXDXDXDXDX4XX % y ) Q i t t O   O p.l.d.z.k.k.d.l.s.P e.n .    .bXxXdXtXuX3.    4 w.q.5 % % DXDXDXDXDXDXDXDXDXDXDXDXDXDXDXDXDX",
"DXDXDXDXDXDXDXDXDX| + * = u u 6 = 6 5 > > I y.r.r.y.V ; ; #     % w w 0 e e *     . ; # @.DXDXDXDXDXDXDXDXDXDXDXDXDXDXDXDXDXDXDX",
"DXDXDXDXDXDXDXDXDXO.    - h u h h h       F w.K q.q.V @                                 5XDXDXDXDXDXDXDXDXDXDXDXDXDXDXDXDXDXDXDX",
"DXDXDXDXDXDXDXDXDX+.9 0 6 y y y y = 8 0 0 R J H H J n @               . o o O o O o   . 6XDXDXDXDXDXDXDXDXDXDXDXDXDXDXDXDXDXDXDX",
"DXDXDXDXDXDXDXDXDXDXDXDX{   X X o % DXDXDX0 . # @ @ X       o .       + t t t 6 t *   o 5XDXDXDXDXDXDXDXDXDXDXDXDXDXDXDXDXDXDXDX",
"DXDXDXDXDXDXDXDXDXDXDXDXw           DXDXDX9                           $ h h h h h &     6XDXDXDXDXDXDXDXDXDXDXDXDXDXDXDXDXDXDXDX",
"DXDXDXDXDXDXDXDXDXDXDXDX@.{ { | { | DXDXDX+.} { { { { { { { { { 0     + = = = = * j { { DXDXDXDXDXDXDXDXDXDXDXDXDXDXDXDXDXDXDXDX",
"DXDXDXDXDXDXDXDXDXDXDXDXDXDXDXDXDXDXDXDXDXDXDXDXDXDXDXDXDXDXDXDXDX  o   .         @.DXDXDXDXDXDXDXDXDXDXDXDXDXDXDXDXDXDXDXDXDXDX",
"DXDXDXDXDXDXDXDXDXDXDXDXDXDXDXDXDXDXDXDXDXDXDXDXDXDXDXDXDXDXDXDXDX                +.DXDXDXDXDXDXDXDXDXDXDXDXDXDXDXDXDXDXDXDXDXDX",
"DXDXDXDXDXDXDXDXDXDXDXDXDXDXDXDXDXDXDXDXDXDXDXDXDXDXDXDXDXDXDXDXDXO.O.+.O.+.O.O.O.DXDXDXDXDXDXDXDXDXDXDXDXDXDXDXDXDXDXDXDXDXDXDX",
"DXDXDXDXDXDXDXDXDXDXDXDXDXDXDXDXDXDXDXDXDXDXDXDXDXDXDXDXDXDXDXDXDXDXDXDXDXDXDXDXDXDXDXDXDXDXDXDXDXDXDXDXDXDXDXDXDXDXDXDXDXDXDXDX",
"DXDXDXDXDXDXDXDXDXDXDXDXDXDXDXDXDXDXDXDXDXDXDXDXDXDXDXDXDXDXDXDXDXDXDXDXDXDXDXDXDXDXDXDXDXDXDXDXDXDXDXDXDXDXDXDXDXDXDXDXDXDXDXDX",
"DXDXDXDXDXDXDXDXDXDXDXDXDXDXDXDXDXDXDXDXDXDXDXDXDXDXDXDXDXDXDXDXDXDXDXDXDXDXDXDXDXDXDXDXDXDXDXDXDXDXDXDXDXDXDXDXDXDXDXDXDXDXDXDX"
};