/* XPM */
static char *_678901922527[] = {
/* columns rows colors chars-per-pixel */
"64 64 253 2 ",
"   c #010101",
".  c #0B0B0A",
"X  c #060804",
"o  c #160C08",
"O  c #061806",
"+  c #15120F",
"@  c #131414",
"#  c #1C1B1B",
"$  c #0E1010",
"%  c #24150C",
"&  c #281A15",
"*  c #3A1D15",
"=  c #072309",
"-  c #06340D",
";  c #0D3810",
":  c #322B16",
">  c #292A28",
",  c #3C3C3B",
"<  c #383535",
"1  c #33362A",
"2  c #561E03",
"3  c #4A2B1B",
"4  c #482619",
"5  c #522B1C",
"6  c #552917",
"7  c #5D341A",
"8  c #4F260F",
"9  c #652D14",
"0  c #6B3214",
"q  c #6D3A1C",
"w  c #67361A",
"e  c #733C1D",
"r  c #773719",
"t  c #66290C",
"y  c #433B38",
"u  c #4F3424",
"i  c #6F3C21",
"p  c #0B460E",
"a  c #0B4817",
"s  c #174A13",
"d  c #095617",
"f  c #16410D",
"g  c #2F5119",
"h  c #07681B",
"j  c #09711C",
"k  c #2D731C",
"l  c #145923",
"z  c #3C453B",
"x  c #325528",
"c  c #0C6820",
"v  c #037429",
"b  c #0C7B29",
"n  c #087826",
"m  c #127C29",
"M  c #157926",
"N  c #126C22",
"B  c #2D712D",
"V  c #5C421B",
"C  c #77431E",
"Z  c #6C461A",
"A  c #544C2B",
"S  c #694725",
"D  c #794826",
"F  c #79522A",
"G  c #6F5432",
"H  c #497B3E",
"J  c #4C7224",
"K  c #41711E",
"L  c #333A46",
"P  c #403E40",
"I  c #334F6E",
"U  c #2F4456",
"Y  c #484847",
"T  c #5C5B5B",
"R  c #555454",
"E  c #4F514F",
"W  c #695950",
"Q  c #516F4E",
"!  c #68645D",
"~  c #445163",
"^  c #596177",
"/  c #626262",
"(  c #696A69",
")  c #727272",
"_  c #823E22",
"`  c #8C6C1C",
"'  c #834823",
"]  c #8B5B29",
"[  c #865835",
"{  c #915930",
"}  c #986837",
"|  c #9C7338",
" . c #926F30",
".. c #A57C3E",
"X. c #A6783C",
"o. c #A67034",
"O. c #865716",
"+. c #976948",
"@. c #9C7244",
"#. c #8E6F56",
"$. c #A27543",
"%. c #A57A43",
"&. c #A77A49",
"*. c #A7744F",
"=. c #917B67",
"-. c #885E41",
";. c #0C852B",
":. c #14822A",
">. c #178529",
",. c #109331",
"<. c #2D9328",
"1. c #3A9E29",
"2. c #379927",
"3. c #2E8B2D",
"4. c #3DA329",
"5. c #3BA628",
"6. c #3DB529",
"7. c #35851F",
"8. c #6EAF18",
"9. c #42972A",
"0. c #56922B",
"q. c #788A36",
"w. c #6E9130",
"e. c #41A329",
"r. c #45AB2A",
"t. c #47AA28",
"y. c #44B12B",
"u. c #47B42A",
"i. c #56A82F",
"p. c #73A52F",
"a. c #2E8C45",
"s. c #4D8141",
"d. c #7B837A",
"f. c #9C8B11",
"g. c #B1AC08",
"h. c #8C9132",
"j. c #B6982C",
"k. c #AB863B",
"l. c #B28C3B",
"z. c #B38939",
"x. c #B39334",
"c. c #B99736",
"v. c #AB902C",
"b. c #BCA22C",
"n. c #A1AD38",
"m. c #95B41D",
"M. c #CEB416",
"N. c #C3A92A",
"B. c #CCB22C",
"V. c #E2BF39",
"C. c #A4CA13",
"Z. c #A9D30F",
"A. c #9EC117",
"S. c #C1C100",
"D. c #D9C91B",
"F. c #DFD115",
"G. c #D4CC0E",
"H. c #E5DB12",
"J. c #E8DB15",
"K. c #E3D711",
"L. c #ECE50E",
"P. c #ECE70B",
"I. c #F3EC0A",
"U. c #FEFE01",
"Y. c #F8F407",
"T. c #F6E61C",
"R. c #F2DC25",
"E. c #EBCA39",
"W. c #EBD527",
"Q. c #E7D623",
"!. c #AC8145",
"~. c #B88B45",
"^. c #AE885A",
"/. c #B28B5B",
"(. c #B8934E",
"). c #B89569",
"_. c #A78974",
"`. c #B79A79",
"'. c #AF8C67",
"]. c #A79D5E",
"[. c #CC9A4F",
"{. c #D4A34E",
"}. c #DCA656",
"|. c #DEB248",
" X c #E2AC57",
".X c #EAB359",
"XX c #ECB650",
"oX c #C49E76",
"OX c #C6A47A",
"+X c #CCA876",
"@X c #FABD62",
"#X c #F5CD41",
"$X c #FDC063",
"%X c #123D96",
"&X c #214995",
"*X c #2E4F89",
"=X c #046E96",
"-X c #375CA3",
";X c #266296",
":X c #4C6890",
">X c #516FA9",
",X c #5F6A85",
"<X c #2B9AB8",
"1X c #7084AC",
"2X c #5D9496",
"3X c #1FAED8",
"4X c #00C8FF",
"5X c #3BCAF4",
"6X c #858684",
"7X c #9A988C",
"8X c #979693",
"9X c #B6A996",
"0X c #BAB5A8",
"qX c #B6B6B7",
"wX c #ACA9A7",
"eX c #AF9B8A",
"rX c #C8AB86",
"tX c #D3AD85",
"yX c #D4B48B",
"uX c #D9B48B",
"iX c #D8B589",
"pX c #DCBC92",
"aX c #D6BC96",
"sX c #CBB194",
"dX c #E1BE94",
"fX c #C4BCB3",
"gX c #DEC498",
"hX c #E3C498",
"jX c #D5C6AC",
"kX c #E6CAA3",
"lX c #ECD4AB",
"zX c #E9DCB8",
"xX c #F4DCB3",
"cX c #F5DEB9",
"vX c #F8DAAC",
"bX c #FEE5BB",
"nX c #FEE9BE",
"mX c #F8E2B8",
"MX c #EEE2B6",
"NX c #D7D6D3",
"BX c #E4D7CA",
"VX c #FFEBC2",
"CX c #F8E8C8",
"ZX c #FFF4C9",
"AX c #FFFED5",
"SX c #FBFAD7",
"DX c #F4E9D6",
"FX c #DAE3F0",
"GX c #FFFFFD",
"HX c #F7F7F4",
"JX c #EEEDEA",
"KX c #C5D3E7",
"LX c None",
/* pixels */
"LXLXLXLXLXLXLXLXLXLXLXLXLXLXLXLXLXLXLXLXLXLXLXLXLXLXLXLXLXLXLXLXLXLXLXLXLXLXLXLXLXLXLXLXLXLXLXLXLXLXLXLXLXLXLXLXLXLXLXLXLXLXLXLX",
"LXLXLXLXLXLXLXLXLXLXLXLXLXLXLXLXLXLXLXLXLXLXLXLXLXLXLXLXLXLXLXLXLXLXLXLXLXLXLXLXLXLXLXLXLXLXLXLXLXLXLXLXLXLXLXLXLXLXLXLXLXLXLXLX",
"LXLXLXLXLXLXLXLXLXLXLXLXLXLXLXLXLXLXLXLXLXLXLXLXLXLXLXLXLXLXLXLXLXLXLXLXLXLXLXLXLXLXLXLXLXLXLXLXLXLXLXLXLXLXLXLXLXLXLXLXLXLXLXLX",
"LXLXLXLXLXLXLXLXLXLXLXLXLXLXLXLXLXLXLXLXLXLXLXLXLX>   X h j j h j j X   # LXLXLXLXLXLXLXLXLXLXLXLXLXLXLXLXLXLXLXLXLXLXLXLXLXLXLX",
"LXLXLXLXLXLXLXLXLXLXLXLXLXLXLXLXLXLXLXLXLXLXLXLXLXA   O N >.m m m M O   > LXLXLXLXLXLXLXLXLXLXLXLXLXLXLXLXLXLXLXLXLXLXLXLXLXLXLX",
"LXLXLXLXLXLXLXLXLXLXLXLXLXLXLXLXLXLXLX( # > B 3.a.3.7.2.1.4.4.9.1.e.2.9.2.3.a.B > # R LXLXLXLXLXLXLXLXLXLXLXLXLXLXLXLXLXLXLXLXLX",
"LXLXLXLXLXLXLXLXLXLXLXLXLXLXLXLXLXLXLXT     d ;.c 5.r.r.r.r.r.t.t.t.t.u.5.m ;.c     < LXLXLXLXLXLXLXLXLXLXLXLXLXLXLXLXLXLXLXLXLX",
"LXLXLXLXLXLXLXLXLXLXLXLXLXLXLXLXLX2X8Xz - ; N b b <.<.<.<.<.<.<.<.<.<.<.<.m m v a - x 6X6XLXLXLXLXLXLXLXLXLXLXLXLXLXLXLXLXLXLXLX",
"LXLXLXLXLXLXLXLXLXLXLXLXLXLXLXLXT     d ,.;.;.M m b n b b n n n n m N n n n m ;.:.,.h     , LXLXLXLXLXLXLXLXLXLXLXLXLXLXLXLXLXLX",
"LXLXLXLXLXLXLXLXLXLXLXLXLXLXLXLXT X O c >.M M :.m :.m m m :.:.:.m :.:.m :.:.:.M m >.N O X z LXLXLXLXLXLXLXLXLXLXLXLXLXLXLXLXLXLX",
"LXLXLXLXLXLXLXLXLXLXLXLXLX) $ & l n n 5.r.5.e.5.e.4.1.4.4.e.5.5.e.5.5.4.5.e.4.4.1.5.5.M b l # @ R LXLXLXLXLXLXLXLXLXLXLXLXLXLXLX",
"LXLXLXLXLXLXLXLXLXLXLXLXLXT     a ,.b <.u.5.2.5.2.4.6.5.4.2.2.2.2.2.5.r.5.2.2.5.5.6.5.b :.h     , LXLXLXLXLXLXLXLXLXLXLXLXLXLXLX",
"LXLXLXLXLXLXLXLXLXLXLXLXLX/     k 5.<.0.h.q.m.Z.C.h.q.w.A.Z.Z.Z.Z.Z.h.w.h.A.Z.C.q.q.w.<.5.k     P LXLXLXLXLXLXLXLXLXLXLXLXLXLXLX",
"LXLXLXLXLXLXLXLXLXLXLXLXLX/     k u.5.q.$.$.H.U.U.x.+.%.Y.U.U.U.U.Y.!.+.k.Y.U.P.k.*. .e.6.7.    P LXLXLXLXLXLXLXLXLXLXLXLXLXLXLX",
"LXLXLXLXLXLXLXLXLXLXLXwXqXE O = J i.i.h.c.j.G.H.F.N.x.c.F.H.H.U.U.Y.N.x.b.D.H.F.b.c.n.w.p.0.O = z LXLXLXLXLXLXLXLXLXLXLXLXLXLXLX",
"LXLXLXLXLXLXLXLXLXLXR   . d ;.n G !...K.U.Y.b.+.k.J.U.Y.l.+...P.U.U.U.U.P.x.+.j.P.U.T.}.XXn.m :.h .   , LXLXLXLXLXLXLXLXLXLXLXLX",
"LXLXLXLXLXLXLXLXLXLXT     d ,.n w.$.@.F.U.Y.j.+.%.J.U.Y.l.+.%.P.U.U.U.U.I.l.+.l.I.U.T..X.Xn.b ;.c X   z LXLXLXLXLXLXLXLXLXLXLXLX",
"LXLXLXLXjX^.^.rXkXkX+.8 w S S 7 g.I.H.B.z.x.[.{.{.c.l.c.J.P.L.Y.U.U.U.U.P.k.$.%.l.l.b.L.Y.D. .| [ 7 8 [ kXkXrX/./.sXLXLXLXLXLXLX",
"LXLXLXLXtX .| /.uXuX+.t q r r r M.U.U.b.+.@.[..X X!.@.%.I.U.U.U.U.U.U.U.Y.k.| X.@.@.x.Y.U.R.$.&.} D 0 { tXuXoX|  .+XLXLXLXLXLXLX",
"LXLXLXLXsX] } oXkXkX'.+.=.{ F D M.Y.Y.B.*.(.B.E.V.z.$...I.U.U.U.U.Y.F.F.D./././.%.%.l.D.D.D.c.N.j.' C +.kXkXoX} ] `.JXLXLXLXLXLX",
"LXLXLXLXeX9 9 OXAXVXZXZXAX+XX.&.D.U.U.E. X|.I.U.Y.j.+...I.U.U.U.U.Y.k.+.&.yXhXtX!.%.@.@.+.x.U.U.L.%...(.AXAXaXw 0 6XHXLXLXLXLXLX",
"LXLXLXLXeXq w OXZXmXcXmXVXOX} $.D.U.Y.E.}. XL.U.Y.c.+.k.I.U.U.U.U.Y.z.@.!.+XpX+X%.%.%.k.$.c.U.U.J.&.| ).bXZXyXS 0 '.HXLXLXLXLXLX",
"LXLXLXLXLXLXBXeX[ [ 2X5X5X2Xo.%.D.U.Y.B.*.l.J.U.U.P.H.L.Y.U.Y.c.k.l.+X+XiXxXmXmXlXMXgX&.X...z.j.].3X3X<X-.[ _.BXBXDXLXLXLXLXLXLX",
"LXLXLXLXLXLXLX_.8 t <X4X4X2XX.%.D.U.U.b.+...K.U.U.U.U.U.U.U.Y.k.+.&.tXyXaXnXVXVXVXSXMX!.X.&.+.@.d.4X4X3X7 2 #.GXLXLXLXLXLXLXLXLX",
"LXLXLXLXLXLXLXfX_.`.:X=X=X!  .] N.T.W.v.' ] B.T.R.R.R.R.R.R.W.z.| !.hXkXhXbXnXbXhXvXiX} ]  .B.M.n.=X=X;X`._.0XLXLXLXLXLXLXLXLXLX",
"LXLXLXLXLXLXLXLXLXLXT X   8 r 9 &.@X X{ 9 D ~..X}.}. X}. X X X..| %.MXZXVXVXZXnXiXdX+Xe t ` U.U.S.X X , LXLXLXLXLXLXLXLXLXLXLXLX",
"LXLXLXLXLXLXLXLXLXLXT     V ` F z.|.{.{ 7 w ~..X}. X}. X{.{.{.^.&.!.lXnXvXlXzXkXrX9X`.D q ` Y.U.S.X   y LXLXLXLXLXLXLXLXLXLXLXLX",
"LXLXLXLXLXLXLXLXLXLXT     f.Y.L.v.q ' %   o { ~.$.[. X}.{ e D OXpXtXaXpXrXW F S # @ : | | v.U.U.M.X   , LXLXLXLXLXLXLXLXLXLXLXLX",
"LXLXLXLXLXLXLXLXLXLXT     g.U.U.` 0 S o   X ] ~.&. X@X X' t 0 OXuXtXyXdXtXD 0 6     % X.&.j.U.U.Z.X   y LXLXLXLXLXLXLXLXLXLXLXLX",
"LXLXLXLXLXLXLXLXLXLXT     ` #XE. .0 w _.wX8X,X:X^ @.o.} ^.^.).kXxXlX*.*.#.~ ~ ^ 8XwX8X[ D o.E.#Xj.X   y LXLXLXLXLXLXLXLXLXLXLXLX",
"LXLXLXLXLXLXLXLXLXLXR     k.$X.Xo.0 D jXGXGX1X%X&Xy t 9 OXhXpXbXZXcXi 2 7 *X&X>XHXGXBX[ 0 { .X@X~.    < LXLXLXLXLXLXLXLXLXLXLXLX",
"LXLXLXLXLXLXLXLXLXLXLX1 , G ~.(.' 8 w 0XGXJX1X&X*X! +.#.sXpXpXxXVXcX=.#.#.*X&X>XNXGXjXS 8 S l.~.| , 1 / LXLXLXLXLXLXLXLXLXLXLXLX",
"LXLXLXLXLXLXLXLXLXLXLXLXLXT   . X   $ 7XAXnX1X&X-XKXGXHXZXbXbXbXbXVXHXGXFX>X%X>XzXSX9X@ X X .   , HXLXLXLXLXLXLXLXLXLXLXLXLXLXLX",
"LXLXLXLXLXLXLXLXLXLXLXLXLXT         . 7XAXVX>X%X-XKXGXGXVXbXbXbXbXVXHXGXFX>X%X>XzXAX0X@         L HXLXLXLXLXLXLXLXLXLXLXLXLXLXLX",
"LXLXLXLXLXLXLXLXLXLXLXLXLXLXLXqXE   . -.+X/.0XqXqXBXZXDXVXbXbXbXbXbXCXZXCXfXqX0X).OX*.* * % X   , LXLXLXLXLXLXLXLXLXLXLXLXLXLXLX",
"LXLXLXLXLXLXLXLXLXLXLXLXLXLXLXLX)   X F k.| xXAXZXnXbXVXbXVXVXVXVXVXVXbXnXZXAXnX!.| } 6 3 *     P LXLXLXLXLXLXLXLXLXLXLXLXLXLXLX",
"LXLXLXLXLXLXLXLXLXLXLXLXLXLXLXLX(   X S ..} `.pXaXlXxXxXxXxXxXxXxXxXxXxXlXaXaXrX} | { 5 4 4 % o < qXqXLXLXLXLXLXLXLXLXLXLXLXLXLX",
"LXLXLXLXLXLXLXLXLXLXLXLXLXLXLXLX(   . 5 ' 0 0 0 q `.pXyXyXyXyXyXyXyXtXpXOXG 0 q e e i 4 4 7 e ' 7 X   < LXLXLXLXLXLXLXLXLXLXLXLX",
"LXLXLXLXLXLXLXLXLXLXLXLXLXLXLXLX(     3 D e q i D oXhXiXtXtXtXsXtXyXrXaXtXG q e i D w 5 4 5 i D 7 +   y LXLXLXLXLXLXLXLXLXLXLXLX",
"LXLXLXLXLXLXLXLXLXLXLXLXLXLXLXLX/     L ~ ~ 0XzXfXW : 1 H H Q 0.9.Q s.Q 0.B k x % % o o o o % o y qXLXLXLXLXLXLXLXLXLXLXLXLXLXLX",
"LXLXLXLXLXLXLXLXLXLXLXLXLXLXLXLX(     U *X*XNXGXJX<   X h ;.n v v v n n n n ;.j X               , LXLXLXLXLXLXLXLXLXLXLXLXLXLXLX",
"LXLXLXLXLXLXLXLXLXLXLXLXLXLXLX8XE % : U I I 7XsX9X1 O = n ;.m b m m b b m m ;.N : & & X   # ( T 6XLXLXLXLXLXLXLXLXLXLXLXLXLXLXLX",
"LXLXLXLXLXLXLXLXLXLXLXLXLX/     8 ' C Y &XI A r w f p f v n n n n b b b ;.b b M S ' w .   Y LXLXLXLXLXLXLXLXLXLXLXLXLXLXLXLXLXLX",
"LXLXLXLXLXLXLXLXLXLXLXLXLX/     8 ' q ~ I ~ A i Z s f ; k 7.k 7.k 7.M M B M m k V F V O   z NXLXLXLXLXLXLXLXLXLXLXLXLXLXLXLXLXLX",
"LXLXLXLXLXLXLXLXLXLXLXLXLX/     3 ' i S S S * X o 7 S Z G.P.L.L.P.H.F V Z S Z G 9.i.9.c n l > $ R LXLXLXLXLXLXLXLXLXLXLXLXLXLXLX",
"LXLXLXLXLXLXLXLXLXLXLXLXLX/     4 r 0 9 0 w o   X q _ e I.U.U.U.U.U.O.i C C _ S 2.6.4.:.:.c     , LXLXLXLXLXLXLXLXLXLXLXLXLXLXLX",
"LXLXLXLXLXLXLXLXLXLXLXLXLX/     G '.*.).rX`.<   X g B g 8.8.8.8.8.8.K x K J 0.J 9.t.1.M ;.c .   Y LXLXLXLXLXLXLXLXLXLXLXLXLXLXLX",
"LXLXLXLXLXLXLXLXLXLXLXLXLXT     =.vXgXVXSXCXE   X j ;.n v v v v v v b n :.5.t.e.t.t.1.:.,.d     < LXLXLXLXLXLXLXLXLXLXLXLXLXLXLX",
"LXLXLXLXLXLXLXLXLXLXLXLXLXLX@ > #.rX`.aXzX0XA   O d :.b m >.>.>.>.:.m :.>.4.4.5.1.e.<.N n l > # R LXLXLXLXLXLXLXLXLXLXLXLXLXLXLX",
"LXLXLXLXLXLXLXLXLXLXLXLXLXLXLXLX)   @ $ + O - p ; v ;.m 1.e.9.e.e.e.e.e.e.4.4.1.m :.c O   Y LXLXLXLXLXLXLXLXLXLXLXLXLXLXLXLXLXLX",
"LXLXLXLXLXLXLXLXLXLXLXLXLXLXLXLX/           - p p ;.;.>.6.u.y.y.t.u.u.y.y.y.6.5.:.;.h     Y LXLXLXLXLXLXLXLXLXLXLXLXLXLXLXLXLXLX",
"LXLXLXLXLXLXLXLXLXLXLXLXLXLXLXLXLXLXLXLXLX8Xz O = - ; - s s s s s s s s s x A A g x g .   Y LXLXLXLXLXLXLXLXLXLXLXLXLXLXLXLXLXLX",
"LXLXLXLXLXLXLXLXLXLXLXLXLXLXLXLXLXLXLXLXLXLXE                           . * 5 4 5 5 4 X   E LXLXLXLXLXLXLXLXLXLXLXLXLXLXLXLXLXLX",
"LXLXLXLXLXLXLXLXLXLXLXLXLXLXLXLXLXLXLXLXLXLX) z Y A y L , , , , Y , .   $ 4 5 5 4 5 4 %   , LXLXLXLXLXLXLXLXLXLXLXLXLXLXLXLXLXLX",
"LXLXLXLXLXLXLXLXLXLXLXLXLXLXLXLXLXLXLXLXLXLXLXLXLXLXLXLXLXLXLXLXLXLX1   . * 5 5 e e q 4 3 * $   Y LXLXLXLXLXLXLXLXLXLXLXLXLXLXLX",
"LXLXLXLXLXLXLXLXLXLXLXLXLXLXLXLXLXLXLXLXLXLXLXLXLXLXLXLXLXLXLXLXLXLX>   . 4 4 4 i i w 5 5 *     , LXLXLXLXLXLXLXLXLXLXLXLXLXLXLX",
"LXLXLXLXLXLXLXLXLXLXLXLXLXLXLXLXLXLXLXLXLXLXLXLXLXLXLXLXLXLXLXLXLXLX>   $ 7 q q e e e w e 6 X   Y LXLXLXLXLXLXLXLXLXLXLXLXLXLXLX",
"LXLXLXLXLXLXLXLXLXLXLXLXLXLXLXLXLXLXLXLXLXLXLXLXLXLXLXLXLXLXLXLXLXLX>     q ' _ ' C D ' ' 7     < LXLXLXLXLXLXLXLXLXLXLXLXLXLXLX",
"LXLXLXLXLXLXLXLXLXLXLXLXLXLXLXLXLXLXLXLXLXLXLXLXLXLXLXLXLXLXLXLXLXLX6X( / u 4 3 3 3 3 3 8 y / T LXLXLXLXLXLXLXLXLXLXLXLXLXLXLXLX",
"LXLXLXLXLXLXLXLXLXLXLXLXLXLXLXLXLXLXLXLXLXLXLXLXLXLXLXLXLXLXLXLXLXLXLXLXLX>               P LXLXLXLXLXLXLXLXLXLXLXLXLXLXLXLXLXLX",
"LXLXLXLXLXLXLXLXLXLXLXLXLXLXLXLXLXLXLXLXLXLXLXLXLXLXLXLXLXLXLXLXLXLXLXLXLX, . @ @ @ @ @ X E LXLXLXLXLXLXLXLXLXLXLXLXLXLXLXLXLXLX",
"LXLXLXLXLXLXLXLXLXLXLXLXLXLXLXLXLXLXLXLXLXLXLXLXLXLXLXLXLXLXLXLXLXLXLXLXLXLXLXLXLXLXLXLXLXLXLXLXLXLXLXLXLXLXLXLXLXLXLXLXLXLXLXLX",
"LXLXLXLXLXLXLXLXLXLXLXLXLXLXLXLXLXLXLXLXLXLXLXLXLXLXLXLXLXLXLXLXLXLXLXLXLXLXLXLXLXLXLXLXLXLXLXLXLXLXLXLXLXLXLXLXLXLXLXLXLXLXLXLX",
"LXLXLXLXLXLXLXLXLXLXLXLXLXLXLXLXLXLXLXLXLXLXLXLXLXLXLXLXLXLXLXLXLXLXLXLXLXLXLXLXLXLXLXLXLXLXLXLXLXLXLXLXLXLXLXLXLXLXLXLXLXLXLXLX"
};
