/* XPM */
static char *_f821f45abf240abfc79ce9fba1ec40aJxcS9ya8yZwlXDuC[] = {
/* columns rows colors chars-per-pixel */
"64 64 250 2 ",
"   c #020201",
".  c #0A0101",
"X  c #000B01",
"o  c #0C0B01",
"O  c #020409",
"+  c #010A0A",
"@  c #090C0D",
"#  c #130500",
"$  c #140A00",
"%  c #1B0C01",
"&  c #190502",
"*  c #001401",
"=  c #001B01",
"-  c #01140C",
";  c #001B0C",
":  c #0D150A",
">  c #1B1405",
",  c #061A14",
"<  c #121614",
"1  c #220D03",
"2  c #231203",
"3  c #231309",
"4  c #251B0A",
"5  c #311A0F",
"6  c #002402",
"7  c #002B02",
"8  c #00250B",
"9  c #012A0B",
"0  c #0B2503",
"q  c #01320D",
"w  c #003909",
"e  c #062915",
"r  c #013313",
"t  c #063C17",
"y  c #173013",
"u  c #382717",
"i  c #39371A",
"p  c #2E2C13",
"a  c #0F3424",
"s  c #3A2922",
"d  c #48311E",
"f  c #442E21",
"g  c #483528",
"h  c #583C29",
"j  c #423F30",
"k  c #054517",
"l  c #054817",
"z  c #0E4B24",
"x  c #0C5527",
"c  c #175729",
"v  c #16512F",
"b  c #2D4439",
"n  c #32473D",
"m  c #324723",
"M  c #0A6628",
"N  c #146D2F",
"B  c #14792C",
"V  c #14762D",
"C  c #137C33",
"Z  c #197D38",
"A  c #107430",
"S  c #24783B",
"D  c #226E3D",
"F  c #0A631F",
"G  c #53442E",
"H  c #6D5338",
"J  c #4E6739",
"K  c #6F633B",
"L  c #354C4A",
"P  c #364B45",
"I  c #2C5447",
"U  c #36564B",
"Y  c #375A51",
"T  c #297B41",
"R  c #3C6956",
"E  c #3C775B",
"W  c #3C7C62",
"Q  c #3E7361",
"!  c #3F6861",
"~  c #1E7842",
"^  c #465348",
"/  c #745D43",
"(  c #44655C",
")  c #446B5D",
"_  c #47675A",
"`  c #44725C",
"'  c #43785E",
"]  c #4D744D",
"[  c #6D7050",
"{  c #436661",
"}  c #4B6762",
"|  c #447562",
" . c #447B64",
".. c #4B7A65",
"X. c #4C7C6C",
"o. c #487965",
"O. c #52796A",
"+. c #4B7C71",
"@. c #54776D",
"#. c #7E7566",
"$. c #8B6B4B",
"%. c #876B54",
"&. c #8D7558",
"*. c #877450",
"=. c #8D7461",
"-. c #1C833B",
";. c #16853A",
":. c #128C38",
">. c #25883C",
",. c #21983C",
"<. c #38993C",
"1. c #0DAC3D",
"2. c #0FA738",
"3. c #14A53C",
"4. c #1AA53C",
"5. c #13AB3E",
"6. c #18A639",
"7. c #17B13E",
"8. c #44A03D",
"9. c #1D8D42",
"0. c #1A8844",
"q. c #1D9947",
"w. c #238B43",
"e. c #298846",
"r. c #348948",
"t. c #249444",
"y. c #259C44",
"u. c #25944A",
"i. c #249D4C",
"p. c #299B4C",
"a. c #2B9547",
"s. c #369B46",
"d. c #2F8E5E",
"f. c #348D5E",
"g. c #398C5E",
"h. c #35875A",
"j. c #2D9656",
"k. c #33915D",
"l. c #339954",
"z. c #0EAD43",
"x. c #0FA541",
"c. c #14A544",
"v. c #1CA443",
"b. c #13AC43",
"n. c #1BAB44",
"m. c #15AB49",
"M. c #1BAC4B",
"N. c #19A64C",
"B. c #0EB043",
"V. c #12B043",
"C. c #1AB14A",
"Z. c #1AAC51",
"A. c #24A24D",
"S. c #22AB4C",
"D. c #23A646",
"F. c #3BA247",
"G. c #25A252",
"H. c #2AA652",
"J. c #31A559",
"K. c #2F8E62",
"L. c #2D8E68",
"P. c #3B8464",
"I. c #358D63",
"U. c #3A8B64",
"Y. c #3E8669",
"T. c #358D69",
"R. c #3C8B6A",
"E. c #368763",
"W. c #2E9164",
"Q. c #2F9168",
"!. c #339064",
"~. c #399165",
"^. c #3A916A",
"/. c #36906A",
"(. c #449848",
"). c #579648",
"_. c #5B9757",
"`. c #478E49",
"'. c #689C52",
"]. c #48A549",
"[. c #4DA754",
"{. c #56A955",
"}. c #6AB05C",
"|. c #428465",
" X c #418966",
".X c #44856B",
"XX c #4C836C",
"oX c #428B6B",
"OX c #4B866B",
"+X c #51806D",
"@X c #478472",
"#X c #57827B",
"$X c #68AF62",
"%X c #6BB365",
"&X c #A5825D",
"*X c #988862",
"=X c #8B9C6A",
"-X c #B89575",
";X c #AD9068",
":X c #91AD6D",
">X c #BDBE7B",
",X c #AFAC7B",
"<X c #899B5D",
"1X c #C59F79",
"2X c #CA9E79",
"3X c #CFA57C",
"4X c #A8C37C",
"5X c #C2C37B",
"6X c #B9B583",
"7X c #C89D85",
"8X c #CBA887",
"9X c #D3A683",
"0X c #D3A983",
"qX c #D8A888",
"wX c #DAB78C",
"eX c #CFB791",
"rX c #E7BA8C",
"tX c #FCBB86",
"yX c #F5BD8C",
"uX c #FCBD8C",
"iX c #F8B986",
"pX c #E8BB96",
"aX c #FDBD93",
"sX c #F5BD97",
"dX c #E4AE92",
"fX c #DCB8A4",
"gX c #E9BDA8",
"hX c #F2BCA0",
"jX c #BCC387",
"kX c #B4D08D",
"lX c #C8C888",
"zX c #D2CB8C",
"xX c #D5C689",
"cX c #CACD93",
"vX c #D8D193",
"bX c #D4D095",
"nX c #EAC58C",
"mX c #F4C28D",
"MX c #FDC28C",
"NX c #FCC88F",
"BX c #EBC395",
"VX c #E9C897",
"CX c #F4C493",
"ZX c #FDC394",
"AX c #F4C59B",
"SX c #FCC49A",
"DX c #F4CA9B",
"FX c #F9C996",
"GX c #F9C8A4",
"HX c #F2C2A9",
/* pixels */
"U.I.W.j.k.U.U.R.T.T.E.!.f.U.U.g.I.T.T.T.T.Y.|.] X                             - E oXU.U.!.W.K.I.U.U.I.I.U.I.U.I.T.L.T.I.I.I.f.f.",
"R.U.d.W.k.U.U.R.T.T.I.!.!.k.U.U.^.I.T.T.U.U.OX_ X                 X           - ' oXP.R.K.Q.f.I.I.I.I.U.U.I.T.T.I.T.T.I.I.I.f.g.",
"|.U.!.d.f.U.g.U.L.L.E.f.f.f.g.g.E.E.^.U.P. XXX` * X X       X   X   X X   O   ; E R.|. XI.^.~.f.g.U.I.I.I.g.I.I.I.I.T.U.I.I.I.g.",
" XU.I.!.U.g.U.f.I.L.I.I.!.I.U.I.^.U.U.|.E | ` R r r r r r r 9 q q 9 q r r r e t E  .o.E  Xh.g.I.I.!.U.~.I.g.I.U.I.U.U.U.U.I.I.!.",
"T.T.Q.K.I.U.g.k.I.I.I.I.U.I.f.I.I.R..XR , + - z k.i.i.v.i.i.i.p.i.i.i.N.v.i.p.h.8 + + ,  .T.U.U.I.U.I.I.K.I.I.!.U.U.U.U.I.U.!.!.",
"I.I.L.I.U.g.g.g.f.I.U.P.U.P.I.I.T.R..X( +     t N.m.b.5.B.m.n.n.b.V.m.z.b.M.M.9.6     +  .R.R.T.R.T.U.U.K.W.I.I.k.g.g.U.U.I.I.I.",
"I.T.I.I.U.U.f.k.k.I.R.R.Y.R.U./.Y.Y.+X) - X * w G.m.M.D.m.b.n.D.4.C.b.M.n.D.S.u.6     ; ' oXY.@X.XoXY.T.I.Q.~.~.f.U.f.U.U.I.L.I.",
"I.I.I.T.U.U.f.k.f.I.Y.+. .W E E W | | R r r w l Z C C V C C B B ;.B B C B B -.N k q q r E ' Q | | | ' W E.T.I.I.U.f.U.I.I.I.I.Q.",
"g.U.I.U.I.I.f.!.g. X..U - + * X - X * k j.p.l.N 6 * * * * = * = * = * * * * * 6 w.G.G.e.q * X - X * + ; E  XY.Y.U.f.!.I.g.I.I.I.",
"g.I.I.I./.!.d.I.U.|.O.U X     X     * k i.c.S.V *     O                       = 9.B.m.q.6 X     .       ) XX.X XU.I.!.k.I.I.I.L.",
"g.g.I.L.!.Q.Q.^.R.XXO.^ X   .       X k J.n.H.V * X X   X X     X X X X + X   6 q.M.Z.p.6 X O       X * ( XX.XoXU.I.!.d.I.U.I.I.",
"U.f.I.K.Q.I.R.W W | } ^ g f h 4     X e D V B F w q r r q q r r r r q r r r r w M C Z N *     . i d s G ^ ` ) W P.R.L.I.g.U.I.f.",
"I.I.~.I.I.R.o.U -   $ #.fXHXHX%.# .     * * 6 w l.q.p.i.q.i.p.p.p.i.i.i.i.p.p.a.7 = * *     . & -XhXgXfXG @ O - )  XI.L.U.I.I.I.",
"I.f.~.I.T..XX.P X   # %.HXhXHX%.#   . .     X k A.m.n.7.z.z.b.n.b.b.m.b.5.b.n.w.6 X           & 1XhXhXgXh .   X ( .XT.I.U.g.I.I.",
"I.E.~.f.I. X@.L +   $ %.AXsXGX$.o       X X X q A.B.5.5.1.z.z.z.z.m.z.5.2.V.n.t.6 X X + X     % ;XAXhXhXh # X + _ OXU.U.U.g.~.I.",
"U.g.~.I.T.Y.+.P +   # %.AXmXCX$.o X X - e r 9 F N.B.5.1.1.z.z.z.B.B.5.b.1.1.m.q.k 7 r e X     o -XSXsXsXh # . + ( XXY.I.U.U.U.I.",
"U.R.I.!.I. XO.L O . & %.sXyXDX&.#   X k j.G.y.4.B.B.5.5.1.B.z.z.b.V.c.5.B.B.b.b.N.q.G.r.8     $ -XFXaXsXh . . + { @XU.U.g.U.I.I.",
"U.U.Q.K.I.U.O.L @ O # %.SXyXDX%..   + l S.b.7.5.1.1.b.4.V.b.z.z.b.b.5.5.B.z.x.b.V.B.n.t.9     $ -XFXyXBXh . . + { @XY.I.g.U.U.I.",
"I.I.Q.Q.W.U.XXP O . & [ CXnXAX$.&   * l D.b.2.2.B.1.m.x.m.m.m.z.m.m.B.B.B.V.5.b.1.1.4.t.8     % -XSXmXBXh . . O ! Y.Y.I.f.k.L.Q.",
"T.L.T.I.W.U.X.L O . & %.AXmXDX$..   X l H.n.c.b.b.m.b.3.:.0.;.0.m.m.B.1.1.b.1.z.b.c.n.a.8     $ -XAXBXVXG . . O { @XT.I.f.I.K.L.",
"Y.U.U.R.!.T.X.L O   # %.NX3XNX*.o X * k i.z.c.m.c.m.N.:.7 = = w q.m.B.1.B.B.z.z.5.5.5.t.9   O o -XyXrXVXG   . @ { @XI.W.g. Xg.U.",
"U.U.R.U.I.U.X.L +   # %.FXNXVX[ o X X k i.m.m.m.c.M.M.C *     9 q.b.B.z.m.m.m.m.5.5.M.t.8     o -XAXmXBXG     . } XXT.L.U.U.P.U.",
"U.U.U.U.U.oXO.L X   # #.GXNXFX*.X X * k s.D.M.M.M.M.N.C = X   8 a.7.C.N.G.G.S.S.v.M.S.a.7 X X o -XAXyXBXG     @ } +.T.I.g.U.U.U.",
"U.I.T.I.I.R.X.P O   X [ kX5XkX[ 6 7 7 l >.Z C Z Z Z 0.N X     ; S ;.-.-.Z Z Z Z -.C Z >.w 7 7 0 =XlXjXjXm   . X } +.U.I.I.U.I.I.",
"I.I.f.I.Q.T.o.U O   X c [.s.s.s.a.p.a.N 6 * = * * * * * X       X * * * * = = * * * = 6 >.p.q.y.s.F.s.s.k     + ( .XU.I.I.g.I.I.",
"I.U.E.!.I.I. .L X   * c G.x.N.c.7.4.H.N X                     . . .                   = >.S.M.N.c.N.m.G.t X   X R .XT.I.T.I.I.W.",
"I.~.!.!.L.R. .L @ . - v J.Z.S.N.4.6.H.M X   X                 .                       * Z v.v.4.Z.Z.N.l.r +   + ( OXU.~.I.f.!.I.",
"U.I.I.f.U.R.@XR y a a v ~ -.Z a.{.{.{.] i u f 4     . > d u u s i u u s O O   . u f f m ).{.{.[.0.Z C T z a y e ) |.U.I.T.g.U.I.",
"I.E.f.!.U.U.oXW X.X.X.I = * = J cXcXzXxXrXsXpX*X$   . g eXsXpXrXwXpXAX7X4     3 8XpXpXdXvXzXzXcXi = * 6 R +.@X .|. XI.I.U.U.U.I.",
"I.f.I.U.U.P.R.R.R..X+.U * X   K VXnXmXCXMXyXFX;X& . . g hXaXMXMXMXaXaXqX2   . 1 0XFXsXsXyXmXyXrXi   X * { +.@XR. XU.I.K.I.T.U.U.",
"I.L.I.I.I.I.T.R.R.OX+.Y       / DXnXmXyXuXiXFX&X# .   g sXuXiXuXMXuXaXqX2   . 2 3XNXmXNXMXCXnXVXu     X } #X.XE.U.U.K.W.I.I.U.g.",
"I.I.I.f.I.I.E.Y.W | | Y 9 0 6 J cX5XxXwXmXiXFX&X&   . g pXaXuXuXuXtXZX3X2 . . 2 3XNXmXnXlX3XjXjXm 6 7 q ^ @.|  . XP.!.Q.I.I.U.g.",
"I.I.!.I.I.T.@XI - - 8 c l.y.9.F.F.8.`.=XnXmXNX&X& . # d pXZXuXtXtXuXZX0X2     2 9XZXyXxX'.<.F.s.y.y.y.a.y * - - R Y.I.I.K.!.f.g.",
"I.E.!.I.g.P.+.I   X * x H.b.b.5.1.D.y.%X5XnXFX&X& . # d sXMXuXuXuXtXCXqX3     > 9XZXuXxX].6.c.c.4.b.b.A.t     + { @XU.~.L.!.f.~.",
"I.I.~.I.U.|.+.I + X X c J.M.C.M.n.S.y.%XvXnXFX&X#   # d pXaXtXuXtXtXaXqX1 .   % 9XFXMXlX{.4.M.M.m.m.N.J.r X   + { +XoXU.T.T.U.I.",
"I.I.I.g.U.|.+.L O     z e.;.;.;.9.-.Z {.kX5XlX*Xu 5 5 H pXZXuXtXtXaXSXqXd 5 4 d ,XlXlX4X<.-.;.0.0.0.-.e.r X O + ( @.|.I.U.T.T.T.",
"U.g.I.I.I.R.+.L O .   + = 6 = = 6 = = l (.].).'.eXdXfXdXZXtXtXuXaXuXuXaX3XrXwXeX).8.(.(.w = = ; * * = 6 X     O _ +Xg.k.E.T.I.U.",
"I.I.I.I.U.oX+.L X   O           X   X k A.v.,.}.vXsXsXaXuXyXtXtXuXuXaXaXNXNXnXlX].,.D.u.=                   + + _ +Xg.k.I.I.U.U.",
"!.f.~.I.I.R.@.L             X       X k j.C.,.$XvXAXaXGXFXSXZXMXZXZXZXaXZXmXNXzX[.q.S.a.6 X   X     X   O     + _ O.g.k.f.!.f.I.",
"I.U.U.P.E  .@.P 5 p p 4 8 6 8 *   O   y 0.0.Z ).6X1X2X2X1X1X1X1X1X2X7X2X2X1X1X,X`.-.w.S = X     ; 6 7 9 X O + + _ O.g.k.I.U.f.!.",
"I.U.|.I ; * : =.VXeXeX=Xe.e.s.c X     X * = * * o > % % % % 1 % & > % % % % % % * = * *   X   X D l.u.r.r X X + _ +XP.I.U.T.I.I.",
"T.R...b   . o =.GXCXbX:Xa.N.S.F *       X X                                 .     X X     .   * S S.M.H.k X X + ( XXR.U.R.R.T.I.",
"L.R.X.n X . o =.BXnXlX:X<.n.H.M X O                           X   O     . .               .   * B 4.n.A.r X   O { @XU.I.R.R.I.I.",
"L.R.o.b o . # =.FXmXvX<XS >.e.z X     X 9 9 9 7 9 6 6 6 8 8 9 9 9 8 8 8       o 5 u u u u 5 u y >.5.n.D.w X   + { @XU.I.U.U.I.K.",
"!.^.o.b +   # =.sXyXBX/ * = * X     X y r.p.,.9.,.y.t.a.a.u.u.q.,.a.p.S =     > 7XdXdXdXrXwXrXlX[.n.b.i.k X   @ { .XU.f.E.U.d.j.",
"I.oXO.b O   # =.AXyXBXH       O   X X k J.Z.5.7.5.b.n.n.D.n.m.b.n.4.M.>.=     > qXhXaXuXMXmXZXvX{.v.b.A.t     + ) .XU.f.I.I.k.W.",
"!.T...b   . % =.GXZXGXH o       X X X t i.c.3.3.3.3.3.3.6.6.3.c.b.3.M.>.=     2 qXaXaXyXyXuXuXxX{.q.S.p.t o   + ) .XP.U.Y.R.U.K.",
"I.U...U , < < =.8X9X8XH X     + 8 6 6 c [.[.].].].].].].].].].].].F.[.`.=     2 9XaXaXuXuXaXuXxX_.w.e.e.k e , e R .XU.I.R.R.U.I.",
"g.U.g.|.P.o.@.j 3 & > .   O X t a.u.e.{.kXzXzXzXlXxX5XxXzXzXzXxXzXzXcX,X>     3 9XZXuXtXaXuXMXrXi * ; = _ ..' |. XY.U.I.I.I.I.U.",
"f.~.f.I.I.oXO.^ O O O       X c H.D.D.}.vXyXyXaXyXyXMXNXmXmXuXaXmXNXnX8X2   . 2 9XaXuXuXaXsXMXpXf     X ` OXoXI.U.U.I.I.!.I.I.f.",
"f.~.E.I.U.oX..P O O o .     X z J.D.D.%XvXaXSXCXZXZXNXFXnXVXmXmXmXmXDX8X2     % qXCXNXMXaXsXSXpXf     * ` |.R.U.I.I.I.K.I.!.U.I.",
"U.I.I.I.g.oX' U - , < @     + t r.e.>._.6XqXqX0X0X0X0X8XlXlXlX5X5X5XkX,Xy = = y -X9X0X3X9X9XqX8Xj < ; 8 R |.U.f.I.L.I.I.I.U.I.I.",
"U.U.I.I.E.U.R.h.P...@.n X     + ; = = = 4 2 > 2 3 2 2 i _.F.].].].8.8.].,.t.w.T 8 4 2 3 2 2 2 4 ] ` |.E  Xg.I.~.I.I.U.U.U.U.U.U.",
"R.E.U.U.I.I././.U..XO.^   .       X             . . X 9 l.c.3.3.7.6.6.5.5.V.b.u.6             X ' |.U.I.~.~.E.f.f.I.g.U. Xg.U.U.",
"R.T.U.I.E.I.I.I.R.oX+XY                     X         w l.M.C.n.M.M.C.M.V.C.M.u.6 X           + o.oXR.U.I.I.~.U.I.I.U.U. XP.U.I.",
"T.U.I.I.I.U.U.P.P.W | P O     * 6 = = 0 4 4 4 4 4 5 2 y r.:.9.0.>.9.9.9.0.9.w.S =   O         + )  .E g.U.h.T.I.I.I.U.g.U.U.I.I.",
"d.I.I.U.I.oX|.U - , @ @     + z a.t.e._.eXdXqXqXqXqXeX*X6 = = ; = 6 ; ; ; = = *             O   @ : - ; E OXT.I.I.I.I.I.!.I.I.!.",
"d.!.f.I.f..X..L O O . O .   X z H.M.y.$XVXuXaXZXaXSXGX;XX                               .     . .     X ) @XY.U.I.I.I.!.W.W.I.f.",
"d.k.f.I.I. Xo.L + O O O .   X z H.4.y.%XVXaXZXZXaXCXFX;X$   O .         .                         O   O ` XXY.T.T.U.I.I.W.W.k.I.",
"d.k.g.g.I.oX .Y - , , @   X X k r.>.>._.6X9X9X9X3X9XeX&.$   .       O       . .                 < , , e Q oXU.E.U.U.I.I.!.!.f.f.",
"!.f.U.U.I.U.Y.P.+.X.@.P .     X = = = * > > 2 2 2 1 2 %     O O O                             X { @X.XW R.E.T.T.P.g.U.U.f.f.U.I.",
"!.I.U.U.I.g.I.R.T.Y.O.L . .                     .       .   O O   O O           O O O         *  .oXY.R.I./.I.E.I.U.U.U.U.U.g.I.",
"I.I.R.g.g.E.I.Q.Q.Y.O.P O O     O       . O             . O O                   O . O         * '  XU.T.I.I.!.I.I.I.I.U.U.U.I.I.",
"T.~.R. Xg.~.d.K.K.Y.O.P . .     O         .           O                 .       . O O         X `  XU.I.I.f.I.!.f.!.I.U.U.U.I.I."
};
