/* XPM */
static char *_678901988575[] = {
/* columns rows colors chars-per-pixel */
"64 64 249 2 ",
"   c #010101",
".  c #0B0503",
"X  c #020B02",
"o  c #0B0A0C",
"O  c #150C08",
"+  c #031403",
"@  c #031C05",
"#  c #081909",
"$  c #1D130D",
"%  c #17180B",
"&  c #141313",
"*  c #191B19",
"=  c #091012",
"-  c #27160C",
";  c #341B0B",
":  c #251C19",
">  c #2D160F",
",  c #042306",
"<  c #062B0A",
"1  c #09290A",
"2  c #132D0E",
"3  c #043306",
"4  c #063209",
"5  c #09330A",
"6  c #053B09",
"7  c #0A3C0A",
"8  c #073803",
"9  c #123B0B",
"0  c #133B11",
"q  c #0E3011",
"w  c #253C0E",
"e  c #3A2815",
"r  c #302A0D",
"t  c #3B3C3C",
"y  c #363637",
"u  c #32302B",
"i  c #1A222C",
"p  c #4E1B05",
"a  c #57270D",
"s  c #492618",
"d  c #562C17",
"f  c #483517",
"g  c #553018",
"h  c #652B0C",
"j  c #632B18",
"k  c #673619",
"l  c #743D1D",
"z  c #7B3A1E",
"x  c #723716",
"c  c #453D38",
"v  c #4F3125",
"b  c #6B3B21",
"n  c #793E22",
"m  c #0C430D",
"M  c #0D490F",
"N  c #05460D",
"B  c #11450E",
"V  c #0C4C11",
"C  c #0A4714",
"Z  c #164713",
"A  c #0D5415",
"S  c #0C5C1A",
"D  c #095617",
"F  c #145513",
"G  c #165813",
"H  c #1A5A13",
"J  c #135718",
"K  c #2F4B13",
"L  c #0D641C",
"P  c #0C6A1E",
"I  c #046A1A",
"U  c #176A1D",
"Y  c #19771F",
"T  c #226A1D",
"R  c #29751D",
"E  c #3D631F",
"W  c #3A562E",
"Q  c #0D6E21",
"!  c #0B6421",
"~  c #0D7423",
"^  c #0D7A27",
"/  c #0E7B28",
"(  c #077926",
")  c #137C26",
"_  c #147D28",
"`  c #106E20",
"'  c #2E6D2F",
"]  c #094F39",
"[  c #4C4A05",
"{  c #5B570B",
"}  c #484719",
"|  c #46551C",
" . c #564E0F",
".. c #6B441E",
"X. c #71451F",
"o. c #7B441E",
"O. c #74541B",
"+. c #53740A",
"@. c #485C24",
"#. c #475220",
"$. c #544F38",
"%. c #6B4726",
"&. c #734422",
"*. c #7B4321",
"=. c #784B25",
"-. c #775328",
";. c #784D33",
":. c #6F4F36",
">. c #577825",
",. c #496F2B",
"<. c #717A37",
"1. c #607A1C",
"2. c #153F6C",
"3. c #294971",
"4. c #097376",
"5. c #257260",
"6. c #4A4847",
"7. c #5D5C5A",
"8. c #535753",
"9. c #545248",
"0. c #6E5A4B",
"q. c #4A7046",
"w. c #61615F",
"e. c #796946",
"r. c #5E6161",
"t. c #5B6C7E",
"y. c #636463",
"u. c #6C6C6B",
"i. c #777574",
"p. c #5F5F60",
"a. c #834925",
"s. c #87572B",
"d. c #8B5932",
"f. c #95652B",
"g. c #8A6737",
"h. c #9B6C35",
"j. c #986A38",
"k. c #9D7633",
"l. c #A3763D",
"z. c #A6793C",
"x. c #A06F36",
"c. c #92761E",
"v. c #916649",
"b. c #997645",
"n. c #926E54",
"m. c #A57B41",
"M. c #AA7D42",
"N. c #A57A48",
"B. c #A87D52",
"V. c #997966",
"C. c #857D7A",
"Z. c #0D822B",
"A. c #0B882B",
"S. c #12822A",
"D. c #118A2C",
"F. c #1B8526",
"G. c #109130",
"H. c #268C26",
"J. c #338C22",
"K. c #299428",
"L. c #349C28",
"P. c #379A26",
"I. c #3EA529",
"U. c #3DA628",
"Y. c #37B129",
"T. c #769114",
"R. c #439B27",
"E. c #469B29",
"W. c #77842C",
"Q. c #41A429",
"!. c #44AA2A",
"~. c #45A828",
"^. c #46B32C",
"/. c #4BB72D",
"(. c #499158",
"). c #67916F",
"_. c #97881B",
"`. c #909813",
"'. c #B7B705",
"]. c #ADB60F",
"[. c #89972C",
"{. c #AD8B34",
"}. c #A7A934",
"|. c #A69722",
" X c #C8AB2D",
".X c #BAD90D",
"XX c #B8D60E",
"oX c #B6CE0F",
"OX c #AFC122",
"+X c #D5C905",
"@X c #D4D914",
"#X c #E6DF0E",
"$X c #E5D915",
"%X c #E9E30D",
"&X c #FFFF01",
"*X c #F7F609",
"=X c #F1EC09",
"-X c #D8F126",
";X c #EEEF25",
":X c #DBD924",
">X c #AB8248",
",X c #B48646",
"<X c #AD865B",
"1X c #BF914C",
"2X c #A88468",
"3X c #BA9567",
"4X c #A6957C",
"5X c #AD8D74",
"6X c #BBA67A",
"7X c #8D806C",
"8X c #C3904B",
"9X c #EBAF53",
"0X c #CFAC79",
"qX c #E3B164",
"wX c #077987",
"eX c #0894B3",
"rX c #27A2BA",
"tX c #0EBCF0",
"yX c #1BA6D6",
"uX c #03C6FD",
"iX c #13C5F0",
"pX c #898888",
"aX c #939692",
"sX c #A99685",
"dX c #B49A85",
"fX c #ABA399",
"gX c #8999AC",
"hX c #B1B1AC",
"jX c #C9AD88",
"kX c #CAB186",
"lX c #D6B58B",
"zX c #CEB58F",
"xX c #C8BAA7",
"cX c #E4BE92",
"vX c #D6C398",
"bX c #D5CAAA",
"nX c #EAD6AC",
"mX c #E9DAB5",
"MX c #EDD3AC",
"NX c #F9E6BE",
"BX c #D1D1D1",
"VX c #FEF3CB",
"CX c #FFF4CB",
"ZX c #FFFDD7",
"AX c #FEEEC6",
"SX c #FEFEFD",
"DX c #F2F8E7",
"FX c #EEDFC0",
"GX c None",
/* pixels */
"GXGXGXGXGXGXGXGXGXGXGXGXGXGXGXGXGXGXGXGXGXGXGXGXGXGXGXGXGXGXGXGXGXGXGXGXGXGXGXGXGXGXGXGXGXGXGXGXGXGXGXGXGXGXGXGXGXGXGXGXGXGXGXGX",
"GXGXGXGXGXGXGXGXGXGXGXGXGXGXGXGXGXGXGXGXGXGXGXGXGXGXGXGXGXGXGXGXGXGXGXGXGXGXGXGXGXGXGXGXGXGXGXGXGXGXGXGXGXGXGXGXGXGXGXGXGXGXGXGX",
"GXGXGXGXGXGXGXGXGXGXGXGXGXGXGXGXGXGXGXGXGXGXaXaXfXxXxXGXGXGXGXGXGXGXGXGXGXhXGXGXGXGXGXGXGXGXGXGXGXGXGXGXGXGXGXGXGXGXGXGXGXGXGXGX",
"GXGXGXGXGXGXGXGXGXGXGXGXGXGXGXGXGXGXGXGXGXu.    - j.z.h.h.h.h.j.h.h.j.l a d 5XGXGXGXGXGXGXGXGXGXGXGXGXGXGXGXGXGXGXGXGXGXGXGXGXGX",
"GXGXGXGXGXGXGXGXGXGXGXGXGXGXGXGXGXGXGXGXGXu.. o e z.>Xm.>X{.b.{.b.N.b.d.=.b 5XGXGXGXGXGXGXGXGXGXGXGXGXGXGXGXGXGXGXGXGXGXGXGXGXGX",
"GXGXGXGXGXGXGXGXGXGXGXGXGXGXGXGXGXGXr.y 6.$.j.d.{.$X#X#X#X$X#X%X%X#X$X$X$X+X:XcXqX0X3X<X2XGXGXGXGXGXGXGXGXGXGXGXGXGXGXGXGXGXGXGX",
"GXGXGXGXGXGXGXGXGXGXGXGXGXGXGXGXGXGXy   . b 8XB. X&X&X&X&X&X&X&X&X&X&X&X&X&X;X9XqX9X{.z.l.GXGXGXGXGXGXGXGXGXGXGXGXGXGXGXGXGXGXGX",
"GXGXGXGXGXGXGXGXGXGXGXGXGXGXGXpXGXaXW < q @.[.W.[.XXXXXXXXXXXX.X.X.X.XXXXX.X].>X}.}.g.q.<.jXmXGXGXGXGXGXGXGXGXGXGXGXGXGXGXGXGXGX",
"GXGXGXGXGXGXGXGXGXGXGXGXGXGXGX    # P D._ K.!.U.U.U.K.U.L.L.L.L.L.U.K.U.L.L.P.U.U.K.) / _ -.m.f.dXGXGXGXGXGXGXGXGXGXGXGXGXGXGXGX",
"GXGXGXGXGXGXGXGXGXGXGXGXGXGXGX    + ` D._ K.^.~.U.!.!.!.!.^.!.!.!.!.Y.U.!.!.!.^.^.L.F.( _ [.>Xk.jXGXGXGXGXGXGXGXGXGXGXGXGXGXGXGX",
"GXGXGXGXGXGXGXGXGXGXGXGXGXGXGX    @ J.!.P.R F F G G J G J G G G G G H G G G G G G G V A M Z H F $.n.v.v.GXGXGXGXGXGXGXGXGXGXGXGX",
"GXGXGXGXGXGXGXGXGXGXGXGXGXGXGX    + P./.^.T , 3 5 3 3 3 3 5 5 5 3 4 4 4 3 4 4 4 3 5 6 7 m 6 5 8 r h j k GXGXGXGXGXGXGXGXGXGXGXGX",
"GXGXGXGXGXGXGXGXGXGXGXGXGXGX).. + < R P.J.R H H G H H H H H H H H H H H H H H H H H m m 7 V A N | a.=.=.GXGXGXGXGXGXGXGXGXGXGXGX",
"GXGXGXGXGXGXGXGXGXGXGXu     X Z m m m 8 5 R /.~.!.!.!.!.!.!.!.!.~.~.!.!.!.Q.!.!./.P.Z 7 7 P Z.( >.>Xz.b.GXGXGXGXGXGXGXGXGXGXGXGX",
"GXGXGXGXGXGXGXGXGXGXGXt   . # V m m m 7 7 R !.~.Q.Q.~.~.Q.Q.Q.Q.~.Q.I.Q.Q.Q.Q.Q.!.J.B 8 7 P Z.Z.,.M.,X>XGXGXGXGXGXGXGXGXGXGXGXGX",
"GXGXGXGXGXGXGXGXGXGXGXt     # V m m L Q L J.~.Q.I.Q.Q.I.Q.Q.Q.Q.I.~.Q.Q.Q.Q.Q.Q.~.P.U P P S A V K } | #.n.2XV.GXGXGXGXGXGXGXGXGX",
"GXGXGXGXGXGXGXGXGXGXGXt     + V 7 M _ D.Z.K.~.~.!.Q.Q.Q.Q.Q.Q.Q.Q.Q.Q.Q.Q.Q.Q.Q.~.L.S.Z.S.V 3 7 C 6 6 6 a h a V.GXGXGXGXGXGXGXGX",
"GXGXGXGXGXGXGXGXGXGXGXW   o , F V V P ~ ~ H.~.P.P.Q.Q.Q.Q.Q.Q.Q.Q.Q.Q.Q.Q.Q.Q.Q.~.P._ / _ A B V V M m 7 :.d.o.6XGXGXGXGXGXGXGXGX",
"GXGXGXGX0Xj.N.<XlXGXGXW 3 m S S.S.~ N 6 m S S.~ H.P.Q.Q.Q.Q.Q.Q.I.Q.Q.Q.Q.Q.I.I.~.P._ / / / ^ Z.L m m 0 6XcXlX3XM.j.<XGXGXGXGXGX",
"GXGXGXGX6Xf.f.>XlXlXlXW 6 m A Z./ ~ V m m P / / F.Q.!.Q.Q.Q.Q.Q.Q.Q.Q.Q.Q.Q.~.!.~.L._ ^ / Z.D.D.P m m 0 6XcXlX3Xh.f.<XGXGXGXGXGX",
"GXfXsXdXjXzXjXzXnXMXnXW 8 B A Z./ Q 4 @ , A Z.^ _ H.K.H.P.Q.I.Q.Q.Q.Q.Q.Q.~.L.F.K.H./ / / V 7 C m m m B zXMXnXvXkXzXlXdXdX4XGXGX",
"GX%.p a jXZXZXZXVXVXAXW 8 B A Z.Z.P +     C D.^ / / / ~ P.Q.Q.Q.Q.Q.Q.Q.Q.!.H.Q / / / S.D.,     + m 6 0 bXZXVXZXZXZXMX%.p d GXGX",
"GXV.;.e.jXnXnXmXmXmXmXW 8 m A / _ Q @   X V D./ / / / _ L.Q.I.I.Q.Q.Q.Q.~.!.K./ / / ~ ~ ` < X   , 7 7 0 vXFXmXmXnXnXvXv.:.v.GXGX",
"GXGXGXGX2X=.;.g.>X>X<XK 6 m C C m m +     V D.^ / / / _ _ _ _ H.Q.I.I.R.~.~.H.~ D.L @ X + 3 m 7 7 B m B >X>X>Xg.=.:.v.GXGXGXGXGX",
"GXGXGXGXn.a h a.l.z.z.K , 8 8 m m 6 +     A D./ / / ^ / / / ~ H.~.~.Q.Q.!.!.L./ D.L X     5 B m 8 8 8 9 g.M.z.s.h a ;.GXGXGXGXGX",
"GXGXGXGXGX5XsXV.s.d.b.5.4.eX] C m m +   X 5 P L P ^ / ) ^ / / F.K.K.K.H.K.K.F./ D.L +     3 B 8 ] eX4.wXe.f.s.b.sXGXGXGXGXGXGXGX",
"GXGXGXGXGXGXGXGXx x n yXuXuXeX8 m 6 X     < m 7 N ^ / / / / / ^ / ^ ^ ^ ~ / / / D.L +   X 5 m 8 4.uXuXuX0.x h 5XGXGXGXGXGXGXGXGX",
"GXGXGXGXGXGXGXGXk n %.rXiXiXeX8 B 7 +     1 V 7 A ^ Z./ / / / ^ / / / / / / / / D.L +     5 Z 8 4.iXiXyX9.l x 5XGXGXGXGXGXGXGXGX",
"GXGXGXGXGXGXGXGXO O $ OX-X-X}.h X...K 8 7 @ X X , m M M ~ / ^ / ~ / / / / / ! 7 A 7 X   . s =.d _.-X-X-Xr O . u.GXGXGXGXGXGXGXGX",
"GXGXGXGXGXGXGXGX      +X&X&X+Xd z k 2 3 6 +     + m m 7 ~ Z.^ / _ / / / / / D 6 B 4       s a.d _.&X&X&Xr     7.GXGXGXGXGXGXGXGX",
"GXGXGXGXGXGXGXGX6.6.9.`.'.'._.s.s.-.+.+.+.K @ # , 4 4 4 ! Z./ ^ / / / / / Z.D , 3 9 K [ [ O.s.a.c.].'.'.$.8.6.GXGXGXGXGXGXGXGXGX",
"GXGXGXGXGXGXGXGXGXGXGXt     e 1Xb.{.=X&X*XT.3 A 5       L Z./ / / / / / / Z.0     | #X&X&X Xb.1X%.      GXGXGXGXGXGXGXGXGXGXGXGX",
"GXGXGXGXGXGXGXGXGXGXGXt     f ,XM.{.$X&X=XT.q 7 <     X ! Z.( / / / / / Z.D.C     } @X&X*X{.l.8X%.    = GXGXGXGXGXGXGXGXGXGXGXGX",
"GXGXGXGXGXGXGXGXGXGXGXGXGXGXC.; e s  .{ { W.].oXT.%   X N D M S / / ^ D N A 1     % [ { { f e ; 0.GXGXGXGXGXGXGXGXGXGXGXGXGXGXGX",
"GXGXGXGXGXGXGXGXGXGXGXGXGXGXGX          o _.&X&X'.%     4 B 7 S Z.Z./ N 8 m ,                   y.GXGXGXGXGXGXGXGXGXGXGXGXGXGXGX",
"GXGXGXGXGXGXGXGXGXGXGXGXGXGXGX      # + # >..X.X`.2 , , < 7 4 C ~ Q P C m m ,     . $ - - . X   y.GXGXGXGXGXGXGXGXGXGXGXGXGXGXGX",
"GXGXGXGXGXGXGXGXGXGXGXGXGXGXGX    + 7 V 7 J F.Y ) / / / #     @ m 6 7 m m m <     O %.a.=.>     y.GXGXGXGXGXGXGXGXGXGXGXGXGXGXGX",
"GXGXGXGXGXGXGXGXGXGXGXGXGXGXGX    X 5 m 6 L Z.( / / Z._ #     # B M V C m m ,     O k l l $     w.GXGXGXGXGXGXGXGXGXGXGXGXGXGXGX",
"GXGXGXGXGXGXGXGXGXGXGXGXGXGXGX    + S ~ I L F A ! / / / S J S 7 + # , + @ + 4 J D q.fXbXxXt o   y.GXGXGXGXGXGXGXGXGXGXGXGXGXGXGX",
"GXGXGXGXGXGXGXGXGXGXGXGXGXGXGX    X I A.( D 3 6 N / Z./ Z.Z.G.D             6 G.A.(.DXSXSX9.  . 7.GXGXGXGXGXGXGXGXGXGXGXGXGXGXGX",
"GXGXGXGXGXGXGXGXGXGXGXGXGXGXpX  . % q.(.(.' w w Z ~ ^ ` ^ ~ / ! @ @ @ @ @ @ Z R U (.hXBXhXr.t i i.GXGXGXGXGXGXGXGXGXGXGXGXGXGXGX",
"GXGXGXGXGXGXGXGXGXGXGX6.  & : s s 9.BXSXDXaXj z } m m 7 Q S./ / ~ ^ / ~ ^ ^ E =.-.g - o & fXGXGXGXGXGXGXGXGXGXGXGXGXGXGXGXGXGXGX",
"GXGXGXGXGXGXGXGXGXGXGXt     . s - $.BXSXSXdXx a.} N 6 N ~ A.( Z.( A.Z.Z.Z.A.E x z d .   o hXGXGXGXGXGXGXGXGXGXGXGXGXGXGXGXGXGXGX",
"GXGXGXGXGXGXGXGXu.u.u.v s ; :.4X5XsXgXgXgX0.> ; e } } f | @.@.@.@.@.@.@.@.| ,.>.1.,.J C D 8.u.y.GXGXGXGXGXGXGXGXGXGXGXGXGXGXGXGX",
"GXGXGXGXGXGXGXGX      k a.x 2XZXZXFXt.2.3.i     $ n n z z z z z l z z z z z >.Y.!.U.F.D.A.@     u.GXGXGXGXGXGXGXGXGXGXGXGXGXGXGX",
"GXGXGXGXGXGXGXGX    X b o.j <XVXNXbXt.3.3.i .   - %.*.&.X.X.X.&.X.%.X.X.X.X.>.U.!.L./ / Z.< o   u.GXGXGXGXGXGXGXGXGXGXGXGXGXGXGX",
"GXGXGXGXGXGXGXGX  . X k n h B.VXAXvXu o = 1 M 5 G E.~.R.R.R.E.R.R.R.R.R.P.E.E.Q.Q.L._ / S.<     u.GXGXGXGXGXGXGXGXGXGXGXGXGXGXGX",
"GXGXGXGXGXGXGXGX      k a.x 2XZXZXmXc     , B 6 J I.!.!.U.U.I.Q.I.I.!.^.^.^.^.^./.I.D.D.Z.,     y.GXGXGXGXGXGXGXGXGXGXGXGXGXGXGX",
"GXGXGXGXGXGXGXGXr.r.7.v s s :.4X4XC.:   X 5 S A U I.~.P.Q.Q.Q.Q.E.~.E.R T T T T T T A D J 8.u.8.GXGXGXGXGXGXGXGXGXGXGXGXGXGXGXGX",
"GXGXGXGXGXGXGXGXGXGXGXy                   V G.Z.H.U.!.!.Q.!.Q.!.~.^.P.2                 & GXGXGXGXGXGXGXGXGXGXGXGXGXGXGXGXGXGXGX",
"GXGXGXGXGXGXGXGXGXGXGX6.  & & & & & & & * Z _ ^ F.U.!.~.!.I.!.I.Q.!.P.2 . . . X .       & GXGXGXGXGXGXGXGXGXGXGXGXGXGXGXGXGXGXGX",
"GXGXGXGXGXGXGXGXGXGXGXGXGXGXGXGXGXGXGXGXGXy., # 1 2 q 2 2 1 q 2 1 1 2 -.v.g.-.k %.g O   & GXGXGXGXGXGXGXGXGXGXGXGXGXGXGXGXGXGXGX",
"GXGXGXGXGXGXGXGXGXGXGXGXGXGXGXGXGXGXGXGXGXGX                          j.1X>Xf.k o.d O   & GXGXGXGXGXGXGXGXGXGXGXGXGXGXGXGXGXGXGX",
"GXGXGXGXGXGXGXGXGXGXGXGXGXGXGXGXGXGXGXGXGXGX8.7.7.7.7.r.y.r.y.t     X g.,Xl.f.o.s.%.; - : i.GXGXGXGXGXGXGXGXGXGXGXGXGXGXGXGXGXGX",
"GXGXGXGXGXGXGXGXGXGXGXGXGXGXGXGXGXGXGXGXGXGXGXGXGXGXGXGXGXGXGXGX    . g.,Xb.>Xz.,Xx.X.n b : X   y.GXGXGXGXGXGXGXGXGXGXGXGXGXGXGX",
"GXGXGXGXGXGXGXGXGXGXGXGXGXGXGXGXGXGXGXGXGXGXGXGXGXGXGXGXGXGXGXGX    . g.,Xl.m.M.M.h.*.z &.-     y.GXGXGXGXGXGXGXGXGXGXGXGXGXGXGX",
"GXGXGXGXGXGXGXGXGXGXGXGXGXGXGXGXGXGXGXGXGXGXGXGXGXGXGXGXGXGXGXGX    . g.,Xb.z.m.M.h.*.z &.-     w.GXGXGXGXGXGXGXGXGXGXGXGXGXGXGX",
"GXGXGXGXGXGXGXGXGXGXGXGXGXGXGXGXGXGXGXGXGXGXGXGXGXGXGXGXGXGXGXGX    X g.,Xm.M.M.M.x.a.n =.$     w.GXGXGXGXGXGXGXGXGXGXGXGXGXGXGX",
"GXGXGXGXGXGXGXGXGXGXGXGXGXGXGXGXGXGXGXGXGXGXGXGXGXGXGXGXGXGXGXGX    o g.m.h.x.j.N.f.n b b $ .   w.GXGXGXGXGXGXGXGXGXGXGXGXGXGXGX",
"GXGXGXGXGXGXGXGXGXGXGXGXGXGXGXGXGXGXGXGXGXGXGXGXGXGXGXGXGXGXGXGX    . k n l &.l n j s d s & o   y.GXGXGXGXGXGXGXGXGXGXGXGXGXGXGX",
"GXGXGXGXGXGXGXGXGXGXGXGXGXGXGXGXGXGXGXGXGXGXGXGXGXGXGXGXGXGXGXGX  .   k a.z *.*.a.l d v s       8.GXGXGXGXGXGXGXGXGXGXGXGXGXGXGX",
"GXGXGXGXGXGXGXGXGXGXGXGXGXGXGXGXGXGXGXGXGXGXGXGXGXGXGXGXGXGXGXGXpXpXpXc ; ; ; ; e > $ $ : u.pXpXGXGXGXGXGXGXGXGXGXGXGXGXGXGXGXGX",
"GXGXGXGXGXGXGXGXGXGXGXGXGXGXGXGXGXGXGXGXGXGXGXGXGXGXGXGXGXGXGXGXGXGXGXt                 O GXGXGXGXGXGXGXGXGXGXGXGXGXGXGXGXGXGXGX",
"GXGXGXGXGXGXGXGXGXGXGXGXGXGXGXGXGXGXGXGXGXGXGXGXGXGXGXGXGXGXGXGXGXGXGXc = : * * * * * * : GXGXGXGXGXGXGXGXGXGXGXGXGXGXGXGXGXGXGX"
};
