/* XPM */
static char *_678901948951[] = {
/* columns rows colors chars-per-pixel */
"64 64 255 2 ",
"   c #010101",
".  c #0B0504",
"X  c #0B0B0A",
"o  c #060A06",
"O  c #170B08",
"+  c #031403",
"@  c #051907",
"#  c #191818",
"$  c #16180B",
"%  c #23150B",
"&  c #2A1812",
"*  c #381D14",
"=  c #281208",
"-  c #032906",
";  c #073A0A",
":  c #093A13",
">  c #142A12",
",  c #382615",
"<  c #282827",
"1  c #3B3B3B",
"2  c #363635",
"3  c #322E29",
"4  c #15253B",
"5  c #4D1E08",
"6  c #462516",
"7  c #562C18",
"8  c #5C3119",
"9  c #502C10",
"0  c #6D3415",
"q  c #6B361B",
"w  c #67371B",
"e  c #743C1D",
"r  c #7A3C1D",
"t  c #713516",
"y  c #652B0F",
"u  c #542C21",
"i  c #433B37",
"p  c #513827",
"a  c #733D21",
"s  c #6A3B22",
"d  c #094613",
"f  c #194A16",
"g  c #0A571A",
"h  c #104911",
"j  c #204F13",
"k  c #235115",
"l  c #374116",
"z  c #0C641D",
"x  c #0C701D",
"c  c #315338",
"v  c #096F22",
"b  c #047323",
"n  c #0B7122",
"m  c #0D7A28",
"M  c #0B7827",
"N  c #117D29",
"B  c #147A26",
"V  c #126721",
"C  c #336825",
"Z  c #297223",
"A  c #2E6F25",
"S  c #29631F",
"D  c #4B4E1C",
"F  c #74421D",
"G  c #7A431C",
"H  c #6A4919",
"J  c #5C4922",
"K  c #4E4735",
"L  c #505729",
"P  c #7C4421",
"I  c #774525",
"U  c #674836",
"Y  c #714F2C",
"T  c #4C6C27",
"R  c #70652C",
"E  c #1A2F49",
"W  c #2E4973",
"Q  c #1C596C",
"!  c #494847",
"~  c #545454",
"^  c #595958",
"/  c #4C504B",
"(  c #625C58",
")  c #6F6553",
"_  c #676666",
"`  c #7B7A7A",
"'  c #73776E",
"]  c #4C634E",
"[  c #916519",
"{  c #834825",
"}  c #88572A",
"|  c #845734",
" . c #915E30",
".. c #976937",
"X. c #997738",
"o. c #8B672F",
"O. c #A47C3D",
"+. c #A3773A",
"@. c #AA7A2E",
"#. c #825513",
"$. c #976947",
"%. c #9C7144",
"&. c #9A7747",
"*. c #8E6B4F",
"=. c #A27543",
"-. c #A47942",
";. c #AA7C43",
":. c #A57B4A",
">. c #A57A57",
",. c #B27D44",
"<. c #8D7B6F",
"1. c #8A5E43",
"2. c #813B1F",
"3. c #0C822B",
"4. c #09862A",
"5. c #1A8427",
"6. c #13832A",
"7. c #18882A",
"8. c #10922F",
"9. c #278A26",
"0. c #2F9629",
"q. c #289629",
"w. c #369E27",
"e. c #319629",
"r. c #339A29",
"t. c #3A9D27",
"y. c #348331",
"u. c #3DA329",
"i. c #3AA428",
"p. c #3CB128",
"a. c #2C811E",
"s. c #63991C",
"d. c #6CA817",
"f. c #49892E",
"g. c #729532",
"h. c #43A52A",
"j. c #49A32A",
"k. c #44AB29",
"l. c #49AB29",
"z. c #4EA924",
"x. c #49B52C",
"c. c #48B22A",
"v. c #51971E",
"b. c #78985C",
"n. c #6A8B46",
"m. c #799B71",
"M. c #A28E13",
"N. c #B3AB09",
"B. c #9A843C",
"V. c #899236",
"C. c #A9853A",
"Z. c #B38B38",
"A. c #B69633",
"S. c #B1962E",
"D. c #BEA72A",
"F. c #C9B618",
"G. c #C5AC28",
"H. c #C9B423",
"J. c #D8B835",
"K. c #E0BF39",
"L. c #D9C919",
"P. c #CAC61C",
"I. c #E4D619",
"U. c #E5DB07",
"Y. c #ECE50B",
"T. c #ECE909",
"R. c #F2EC09",
"E. c #ECF705",
"W. c #FEFE01",
"Q. c #F8F607",
"!. c #F6EB16",
"~. c #D8C32A",
"^. c #E8C834",
"/. c #EBD228",
"(. c #AA8345",
"). c #B58849",
"_. c #AB8154",
"`. c #B18B59",
"'. c #B99355",
"]. c #8C8472",
"[. c #B69368",
"{. c #B18E6B",
"}. c #979950",
"|. c #CA9A4A",
" X c #CB984E",
".X c #DBA655",
"XX c #D6AA49",
"oX c #E6BB46",
"OX c #E3AD57",
"+X c #EBB558",
"@X c #C89B6B",
"#X c #C7A578",
"$X c #D2AC77",
"%X c #FBBF61",
"&X c #ABEA57",
"*X c #A8DF5D",
"=X c #F2C549",
"-X c #AAC426",
";X c #264B95",
":X c #32518E",
">X c #036B8F",
",X c #3157A4",
"<X c #1F4A9B",
"1X c #4F698E",
"2X c #4E6DAD",
"3X c #425F9E",
"4X c #779A91",
"5X c #07BDF8",
"6X c #01C5FF",
"7X c #858786",
"8X c #989897",
"9X c #89958A",
"0X c #8ABB90",
"qX c #88B991",
"wX c #82B98E",
"eX c #B5A58B",
"rX c #BABBA6",
"tX c #B8B9B7",
"yX c #AEADA9",
"uX c #9A9DA1",
"iX c #CBAC85",
"pX c #D4B38A",
"aX c #D9B589",
"sX c #DDBC92",
"dX c #D7BA91",
"fX c #CFAF88",
"gX c #E2BC93",
"hX c #E9BF97",
"jX c #E5BC8E",
"kX c #CABBA6",
"lX c #DDC198",
"zX c #E6C69B",
"xX c #D3CAAE",
"cX c #E6CCA3",
"vX c #EBD2A8",
"bX c #F4DEB5",
"nX c #FBDDB1",
"mX c #EED5AC",
"MX c #FEE5BB",
"NX c #FFE9BE",
"BX c #F6E1B7",
"VX c #EEE0BB",
"CX c #AED6E5",
"ZX c #C7CBCB",
"AX c #FEECC3",
"SX c #FCEDCB",
"DX c #FEF4CB",
"FX c #FFF4C8",
"GX c #FEF9D6",
"HX c #F9EFD9",
"JX c #FEFEFD",
"KX c #F5F7F4",
"LX c #F6F4EA",
"PX c #DCDDDB",
"IX c None",
/* pixels */
"IXIXIXIXIXIXIXIXIXIXIXIXIXIXIXIXIXIXIXIXIXIXIXIXIXIXIXIXIXIXIXIXIXIXIXIXIXIXIXIXIXIXIXIXIXIXIXIXIXIXIXIXIXIXIXIXIXIXIXIXIXIXIXIX",
"IXIXIXIXIXIXIXIXIXIXIXIXIXIXIXIXIXIXIXIXIXIXIXIXIXIXIXIXIXIXIXIXIXIXIXIXIXIXIXIXIXIXIXIXIXIXIXIXIXIXIXIXIXIXIXIXIXIXIXIXIXIXIXIX",
"IXIXIXIXIXIXIXIXIXIXIXIXIXIXIXIXIXIXIXIXIXIXIX7Xm.9X0X0X0X0X0X0X0X0X0X0X0X0X0X7X` IXIXIXIXIXIXIXIXIXIXIXIXIXIXIXIXIXIXIXIXIXIXIX",
"IXIXIXIXIXIXIXIXIXIXIXIXIXIXIXIXIXIXIXIXIXIX#     d M n v v v n n n x n n n z +     IXIXIXIXIXIXIXIXIXIXIXIXIXIXIXIXIXIXIXIXIXIX",
"IXIXIXIXIXIXIXIXIXIXIXIXIXIXIXIXIXIXIXIXIXIX<   X g 7.6.N 6.N N N M x N 6.3.x -   X ' IXIXIXIXIXIXIXIXIXIXIXIXIXIXIXIXIXIXIXIXIX",
"IXIXIXIXIXIXIXIXIXIXIXIXIXIXIXIXIXIX7X# 2 3 z n n 9.u.r.w.w.w.w.w.i.i.i.w.i.e.Z x V k 2 < ^ IXIXIXIXIXIXIXIXIXIXIXIXIXIXIXIXIXIX",
"IXIXIXIXIXIXIXIXIXIXIXIXIXIXIXIXIXIX`     + 6.3.6.t.c.l.l.l.l.l.l.l.l.l.l.l.h.7.3.6.:     1 IXIXIXIXIXIXIXIXIXIXIXIXIXIXIXIXIXIX",
"IXIXIXIXIXIXIXIXIXIXIXIXIXIXIXIXIXIX] - : d m m N 9.r.0.0.0.0.0.0.0.0.0.0.e.q.5.m m g - - c 7XIXIXIXIXIXIXIXIXIXIXIXIXIXIXIXIXIX",
"IXIXIXIXIXIXIXIXIXIXIXIXIXIXIX      d 8.3.3.m N m M m m m m M M M M m m M m m m m m 3.N 8.z +     IXIXIXIXIXIXIXIXIXIXIXIXIXIXIX",
"IXIXIXIXIXIXIXIXIXIXIXIXIXIXIXX   o : 4.m m M m M m m m M m M M M M N M M M m m B M m m 3.z +   X IXIXIXIXIXIXIXIXIXIXIXIXIXIXIX",
"IXIXIXIXIXIXIXIXIXIXIXIX! ^ / g g g 5.i.e.e.r.e.r.e.r.r.e.e.r.r.r.e.e.e.e.e.e.w.e.r.e.e.w.9.z g z c ~ ! IXIXIXIXIXIXIXIXIXIXIXIX",
"IXIXIXIXIXIXIXIXIXIXIX^     o 3.3.3.0.l.h.h.u.u.t.h.u.u.u.h.u.k.k.h.h.h.h.i.i.h.h.k.h.h.l.t.5.3.3.-     1 IXIXIXIXIXIXIXIXIXIXIX",
"IXIXIXIXIXIXIXIXIXIXIX_     @ 6.6.N 0.l.j.k.c.z.z.l.z.l.l.j.j.h.j.j.j.l.c.z.l.h.j.j.h.j.j.t.5.3.7.: .   ! IXIXIXIXIXIXIXIXIXIXIX",
"IXIXIXIXIXIXIXIXIXIXIX_     > h.u.i.g.-.&.S.T.E.E.E.E.Q.P.X.X.(.B.X.X.G.E.E.T.S.&.B.(.B.(.V.h.i.k.h o   ! IXIXIXIXIXIXIXIXIXIXIX",
"IXIXIXIXIXIXIXIXIXIXIX(     @ i.p.p.g.;.%.A.Q.W.W.W.W.W.L.=.$.=.;.-.%.H.W.W.Q.).$.=.+.-.;.B.z.p.l.:     / IXIXIXIXIXIXIXIXIXIXIX",
"IXIXIXIXIXIXIXIXIX<.7Xc ; : f V.g.g.B.(.%.A.Q.W.Q.I.F.~.L.H.H.G.(.+.%.G.W.W.W.L.G.H.A.;.;.B.g.g.V.S : ; c 9XIX7XIXIXIXIXIXIXIXIX",
"IXIXIXIXIXIXIXIX#     g 8.4.y.(.(.;.-.=.$.A.Q.W.R.A.*.*.G.W.W.Q.Z.%.$.G.W.W.W.W.W.W.~.%.=.;.;.;.).f.3.8.V       IXIXIXIXIXIXIXIX",
"IXIXIXIXIXIXIXIX< . . f N N Z -.;.;.O.C.-.D.T.W.E.D.O.O.G.R.W.Y.A.O.O.H.W.Q.W.Q.Q.Q.H.C.O.O.O.O.(.T B 6.g . .   IXIXIXIXIXIXIXIX",
"IXeX`.`.@XIXIXIX( 9 s J Y J R XX.X.X^.Y.R.I.^.J.~.I.Y.Y.L.A.Z.S.I.Y.Y.I.K.K.K.A.Z.S.F.Y.Y.L.C.:.Z.Y J J J w w 7 #XvXzXfX`.`.{.IX",
"IX{...+.[.fXpX#XI y t q t q 2.OX.X.X/.W.W.!.+X@XOXR.W.W.L.%.$.-.R.W.W./..XOX.X;...$.H.W.W.T.C.$.=.{ r a e t e y {.fXpX@XO...-.IX",
"IX{.{ ..[.cXzXlX>.>.>.o.P { [ ^.^.^.~.L.L.I./.^.^.L.L.L.G.+.=.O.R.W.W.I. X X X'.`.{.XXL.L.L.G.D.G...} } | &.>.>.pXzXcXfX.. .$.IX",
"IX*.y e [.DXAXAXAXDXGX$XO.=.Z.Q.W.W.F.$.%.A.Q.W.R.D.%.+.=.;.=.;.R.W.W.H.%.-.(.fXsXsX{.&.$.A.Y.W.W.G.:.+.[.SXDXAXAXNXDXzXa 0 I kX",
"IX*.9 q {.DXDXAXAXAXDX$XO.-.A.Q.W.W.H.$.%.A.Q.W.Q.G.$.=.%.-.+.+.R.W.W.L.=...O.#XaXpX{.X.$.A.R.W.W.G.$...'.AXSXAXAXDXGXcXs y a IX",
"IXIXIXIXeX$.$.>.dXlXcX_.P { } A.A.A.|..X XOXQ.W.Q.Y.I.U.^. X X|.@.[ [ (.#X#X#XvXbXnX#X+.=.C.oXoXoX|.=.+.).lXlXzX{.1.*.{.IXIXIXIX",
"IXIXIXIXyXy 5 I $XaXaX$.y 0 H -.:.=. X+XOX+XW.W.W.W.W.W.!.OXOX+XG 5 y 1.hXpXdXMXAXAXfX@...,..XOX+X).O..._.$XaXjX} 5 5  .IXIXIXIX",
"IXIXIXIXIX1.| 1.eXrXrX:.G G [ ..+...|.+X.XJ.!.Q.!.R.Y.R.^. X X|...P P >.sXdXdXbXNXAXfXO.:.`.|.XX|.).Z.C.'.rXrXrX>.| ) {.IXIXIXIX",
"IXIXIXIXIXIXIXIX5X6X5X*XW.W.U.G a t Z.+X.XOX.X.X.X).%.O. .e 0 I #XgXfXcXAXAXAXbXMXAXcXpXsX#XY 0 w F.Q.W.&X5X5X5XCXIXIXIXIXIXIXIX",
"IXIXIXIXIXIXIXIX6X6X6X&XW.W.U.t q r ,.=X+X+XOXOXOX).=.;.o.0 0 r #XsXiXcXSXAXAXSXFXGXnXgXzX$X{ q w N.W.W.&X6X6X6XCXIXIXIXIXIXIXIX",
"IXIXIXIXIXIXIXIXQ >X>X-XQ.Q.Y.} }  .R | o.1. X X)... . ..._.>.>.sXmXcXvXvXvXcX#X{.[.>.) ) *.| } Y H.W.W.-XQ >X>XIXIXIXIXIXIXIXIX",
"IXIXIXIXIXIXIXIX* .   M.Q.W.Y.C.:.,.6     $ X.;.@.} q y $.lXsXsXAXAXAXmXfXaXiXs y 0 &     O ..).&.L.W.W.N.  o o IXIXIXIXIXIXIXIX",
"IXIXIXIXIXIXIXIX<     N.Q.Q.Y.X.:.+.J # # < *.).&.} r 0 $.sXaXfXbXAXAXvXfXhXiXY U Y 6 % $ 3 o.-...L.Q.W.N.X     IXIXIXIXIXIXIXIX",
"IXIXIXIXIXIXIXIX<     o.=X=XXXF a G {.ZXkXtX3X:X:XU G q _.VXAXbXAXnXSXiXI | | W ;X;X4XZXZXyX1.e e A.oX=XC.X   . IXIXIXIXIXIXIXIX",
"IXIXIXIXIXIXIXIX#     ..=X+X.XG t t iXJXJXPX,X<X;Xi y y >.AXDXMXnXAXDX[.y y y W <X;XyXJXJXPX) 0 t |.OX%X(.      IXIXIXIXIXIXIXIX",
"IXIXIXIXIXIXIXIX_ ^ ^ ) X.X.o.7 6 6 8XJXLXZX3X:X:X<.`.<.eXMXNXMXAXnXAXkX<.{.<.:X,X:XuXLXJXxXU 6 7 o.X.X.R ~ ^ / IXIXIXIXIXIXIXIX",
"IXIXIXIXIXIXIXIXIXIXIX_   o         ].GXNXxX,X;X3XZXJXJXLXNXMXMXAXnXAXHXJXJXKX2X<X;X8XNXDXrX<           / IXIXIXIXIXIXIXIXIXIXIX",
"IXIXIXIXIXIXIXIXIXIXIX(   X X       ].LXSXtX,X;X,XZXJXJXGXNXMXMXnXAXnXHXJXJXKX2X<X<X9XNXGXxX<       X   ~ IXIXIXIXIXIXIXIXIXIXIX",
"IXIXIXIXIXIXIXIXIXIXIXIXIXIX9XX     Y $X'.[.tXrXtXVXGXSXAXMXMXMXMXMXMXAXSXSXSXxXtXtXeX'.#X_.&   o ` tXyXIXIXIXIXIXIXIXIXIXIXIXIX",
"IXIXIXIXIXIXIXIXIXIXIXIXIXIXIXX     J )...[.FXGXGXAXMXAXNXNXNXNXMXMXAXNXMXMXAXSXDXGXaXX.C.| O   X tXIXIXIXIXIXIXIXIXIXIXIXIXIXIX",
"IXIXIXIXIXIXIXIXIXIXIXIXIXIXIX> @ @ J ;..._.xXcXxXmXbXbXBXBXbXbXBXMXbXbXbXMXbXxXcXcX@X..O.R > @ - 9XZXIXIXIXIXIXIXIXIXIXIXIXIXIX",
"IXIXIXIXIXIXIXIXIXIXIX_   X @ n 4.m L r F F G t I {.sXfXiXpXpXfXfXpXfXfXpXsXfX| q a I I 2.J Z 4.N : .   / IXIXIXIXIXIXIXIXIXIXIX",
"IXIXIXIXIXIXIXIXIXIXIX^     + b b b C 2.t t t t e @XzXsXsXhXzXgXgXgXhXgXlXzXpX{ q t r G G L x 4.4.-     ~ IXIXIXIXIXIXIXIXIXIXIX",
"IXIXIXIXIXIXIXIX7X` 7X/ E E c 4XwXwX) , D D T D T n.}.b.b.b.b.b.b.b.b.b.b.}.b.T c L l D , L m.0X4X/ & % i ` 7Xm.IXIXIXIXIXIXIXIX",
"IXIXIXIXIXIXIXIX#     E :XQ 1XIXIXIX9X- d h M 4.M b b b b b b b b b b b b b b M 4.4.g d - ] PXJXJX].6 u *       IXIXIXIXIXIXIXIX",
"IXIXIXIXIXIXIXIX<   o E W W 1XIXIXIXm.- d h M M M N N N m N N N M N N N m N N m M x g h - ] PXKXKX].* u * .     IXIXIXIXIXIXIXIX",
"IXIXIXIXIX1 1 i u w 8 U U U U 1 1 1 D H H L 5.m M N N M N N N m N N N m B N M m M 3.S H H J i 1 1 p s I e 8 w w i 1 3 _ IXIXIXIX",
"IXIXIXIX7X    . w r q t y 0 y       * 2.t J B 4.m 3.3.m m b b b M b b n M 4.3.3.3.4.C G { 7 .     * 0 0 0 0 w G =     2 IXIXIXIX",
"IXIXIXIX7XX   % | $.| $.&.:.) $ + + l R R T C Z Z Z C C f.j.z.z.z.z.z.f.C Z A Z Z Z T H R D O + X U :.&.$.$.1.=.,     i IXIXIXIX",
"IXIXIXIX]..   < #XzXdXbXFXDXxXf ; ; a.c.i.f.H G F e F 8 M.E.W.Q.Q.W.Q.N.w F F F t F T i.k.r.f d ; eXHXDXBXgXgXzXi     i IXIXIXIX",
"IXIXIXIX` X   3 eXcXlXbXSXDXxXh d ; a.c.l.f.Y I a a P s M.Q.W.Q.Q.Q.Q.F.q e e I I G R k.c.t.f ; > eXHXSXVXsXsXzXK     1 IXIXIXIX",
"IXIXIXIXIXIXIX9XU K K K / ^ ! - + + g q.9.9.T f.f.C C C T d.d.s.s.s.d.v.C A C T f.T y.7.9.V - + + K ~ ~ ~ K K K ].IX8XIXIXIXIXIX",
"IXIXIXIXIXIXIXIX#                   d 8.m 7.k.x.p.9.M m M b v b v b b M M m 3.i.c.p.q.6.4.x +                   IXIXIXIXIXIXIXIX",
"IXIXIXIXIXIXIXIX~ 2 1 1 1 ! 1       : n V n i.r.r.9.m 6.6.5.5.5.5.5.7.5.6.6.5.r.t.u.Z V x g +     < 1 2 2 1 2 3 IXIXIXIXIXIXIXIX",
"IXIXIXIXIXIXIXIXIXIXIXIXIXIXIXX       o   - m m N 9.h.i.i.t.i.t.u.i.t.t.u.t.t.9.m 6.d   o       o IXIXIXIXIXIXIXIXIXIXIXIXIXIXIX",
"IXIXIXIXIXIXIXIXIXIXIXIXIXIXIXX           @ 6.8.6.i.x.c.x.x.x.x.c.c.x.x.x.x.c.7.4.8.d           o IXIXIXIXIXIXIXIXIXIXIXIXIXIXIX",
"IXIXIXIXIXIXIXIXIXIXIXIX_ ' _ 6 6 6 * & & & : : : f f j j j k j k j k j f k k : : : > * & * * 6 6 ( _ _ 8XIXIXIXIXIXIXIXIXIXIXIX",
"IXIXIXIXIXIXIXIXIXIXIX~     . G P P s u 7 * .                                       % 7 7 7 G P P %     ! IXIXIXIXIXIXIXIXIXIXIX",
"IXIXIXIXIXIXIXIXIXIXIX_   o O a e r 7 6 7 * .           o o X o o o X         o   o & u u 6 w r I & X   ~ IXIXIXIXIXIXIXIXIXIXIX",
"IXIXIXIXIXIXIXIXIXIXIX_     O I e r e q a w , * , %     ^ IXIXIXIXIXIX`     X * 6 * u s q s e r I &     ~ IXIXIXIXIXIXIXIXIXIXIX",
"IXIXIXIXIXIXIXIXIXIXIX^     . { { { G { { G 7 u 6 O     _ IXIXIXIXIXIXIX      * 8 7 q { { { P 2.{ %     ! IXIXIXIXIXIXIXIXIXIXIX",
"IXIXIXIXIXIXIXIXIXIXIXIX2 ! K 7 9 7 8 7 8 7 * * * i ! 2 7XIXIXIXIXIXIXIX1 ! ! , * * 6 8 7 7 8 8 7 ! / 3 ' IXIXIXIXIXIXIXIXIXIXIX",
"IXIXIXIXIXIXIXIXIXIXIXIXIXIXIXX                 # IXIXIXIXIXIXIXIXIXIXIXIXIXIX1                 o IXIXIXIXIXIXIXIXIXIXIXIXIXIXIX",
"IXIXIXIXIXIXIXIXIXIXIXIXIXIXIXX             o . # IXIXIXIXIXIXIXIXIXIXIXIXIXIX3                 o 8XIXIXIXIXIXIXIXIXIXIXIXIXIXIX",
"IXIXIXIXIXIXIXIXIXIXIXIXIXIXIXIXIXIXIXIXIXIXIXIXIXIXIXIXIXIXIXIXIXIXIXIXIXIXIXIX8XIXIXIXIXIXIX8X8XIXIXIXIXIXIXIXIXIXIXIXIXIXIXIX",
"IXIXIXIXIXIXIXIXIXIXIXIXIXIXIXIXIXIXIXIXIXIXIXIXIXIXIXIXIXIXIXIXIXIXIXIXIXIXIXIXIXIXIXIXIXIXIXIXIXIXIXIXIXIXIXIXIXIXIXIXIXIXIXIX"
};
