/* XPM */
static char *_678901942188[] = {
/* columns rows colors chars-per-pixel */
"64 64 249 2 ",
"   c #010100",
".  c #020A02",
"X  c #0C0C0B",
"o  c #0A0605",
"O  c #160C07",
"+  c #031C04",
"@  c #041605",
"#  c #19130A",
"$  c #1A1918",
"%  c #101215",
"&  c #27160D",
"*  c #351B0D",
"=  c #281B13",
"-  c #341D13",
";  c #391E16",
":  c #052305",
">  c #072809",
",  c #132A0D",
"<  c #0A3B0A",
"1  c #073608",
"2  c #142B17",
"3  c #083A12",
"4  c #10350F",
"5  c #382316",
"6  c #302A17",
"7  c #0E1A24",
"8  c #1A3639",
"9  c #282929",
"0  c #393A3A",
"q  c #303124",
"w  c #4D291E",
"e  c #492519",
"r  c #522A1E",
"t  c #5A2C19",
"y  c #49341A",
"u  c #5C351A",
"i  c #5A220A",
"p  c #632A15",
"a  c #6C381D",
"s  c #693317",
"d  c #773C1C",
"f  c #622B0F",
"g  c #4A2A21",
"h  c #552C20",
"j  c #483B2C",
"k  c #4B3C32",
"l  c #6E3C22",
"z  c #703F20",
"x  c #0C420C",
"c  c #0E4B0F",
"v  c #0C4C11",
"b  c #0A4813",
"n  c #194A11",
"m  c #0A5719",
"M  c #185817",
"N  c #16450F",
"B  c #294F19",
"V  c #0B631D",
"C  c #06681B",
"Z  c #1B6618",
"A  c #0F751F",
"S  c #216918",
"D  c #29781B",
"F  c #2F422E",
"G  c #156B22",
"H  c #0E7323",
"J  c #0D7A27",
"K  c #0E7B28",
"L  c #057926",
"P  c #137A27",
"I  c #14742A",
"U  c #2C6B26",
"Y  c #386625",
"T  c #277527",
"R  c #337234",
"E  c #78431F",
"W  c #765317",
"Q  c #6E7908",
"!  c #564837",
"~  c #525229",
"^  c #6F4625",
"/  c #7C4421",
"(  c #734322",
")  c #745624",
"_  c #476826",
"`  c #595E27",
"'  c #2E394D",
"]  c #223656",
"[  c #3D454F",
"{  c #284D76",
"}  c #2F496B",
"|  c #4D4D4C",
" . c #444545",
".. c #565656",
"X. c #5A5446",
"o. c #6B594A",
"O. c #4A764C",
"+. c #435069",
"@. c #576F6F",
"#. c #676766",
"$. c #747572",
"%. c #767167",
"&. c #756753",
"*. c #94751A",
"=. c #854823",
"-. c #865728",
";. c #885536",
":. c #936228",
">. c #976836",
",. c #9C7338",
"<. c #806024",
"1. c #A87A3A",
"2. c #AA7931",
"3. c #815C1E",
"4. c #966A44",
"5. c #9C7644",
"6. c #927050",
"7. c #A67A45",
"8. c #A77C5A",
"9. c #877864",
"0. c #31831E",
"q. c #0D832B",
"w. c #09862B",
"e. c #188429",
"r. c #258A24",
"t. c #368E24",
"y. c #2C9528",
"u. c #399423",
"i. c #369C27",
"p. c #34873D",
"a. c #3DA329",
"s. c #3AA829",
"d. c #37A92B",
"f. c #568B1B",
"g. c #5DAA1D",
"h. c #4E922A",
"j. c #41A429",
"k. c #45AA2A",
"l. c #48AF2B",
"z. c #49B42C",
"x. c #6DA523",
"c. c #528B56",
"v. c #6D8D6D",
"b. c #5B905E",
"n. c #AD9C18",
"m. c #AEA60B",
"M. c #AF843C",
"N. c #A7AD28",
"B. c #C7B10F",
"V. c #C59D39",
"C. c #CDB136",
"Z. c #E1BD3D",
"A. c #93C717",
"S. c #B0D511",
"D. c #B6CA20",
"F. c #D8CA18",
"G. c #D1CE0A",
"H. c #EADB18",
"J. c #E7DF0D",
"K. c #C8E60C",
"L. c #EBE60B",
"P. c #F1EC0A",
"I. c #FEFF00",
"U. c #FAF60A",
"Y. c #F8EA19",
"T. c #FFF615",
"R. c #E7EA0C",
"E. c #D8D328",
"W. c #EAD825",
"Q. c #E5C537",
"!. c #EED32E",
"~. c #F8EA26",
"^. c #93825C",
"/. c #AA8343",
"(. c #B68747",
"). c #AE8659",
"_. c #B78E51",
"`. c #9DA245",
"'. c #978D6E",
"]. c #B79467",
"[. c #B08F6B",
"{. c #93AA75",
"}. c #BDAB7C",
"|. c #C9994B",
" X c #C7934E",
".X c #D9A64D",
"XX c #DAB447",
"oX c #DCA657",
"OX c #CBA848",
"+X c #E4B946",
"@X c #E3AC59",
"#X c #E3AA59",
"$X c #E9B457",
"%X c #F1B653",
"&X c #CAA779",
"*X c #D2A86A",
"=X c #C19D74",
"-X c #EAC347",
";X c #FFC760",
":X c #17429A",
">X c #234A95",
",X c #33598E",
"<X c #6F7988",
"1X c #546F8C",
"2X c #817C83",
"3X c #349EB0",
"4X c #459FAB",
"5X c #01B7F5",
"6X c #00C4FF",
"7X c #61CFE7",
"8X c #878687",
"9X c #969699",
"0X c #8F8D8F",
"qX c #9BBA8C",
"wX c #B0A883",
"eX c #AFB3AF",
"rX c #89BFB8",
"tX c #D4B48B",
"yX c #D8B88A",
"uX c #DCBC92",
"iX c #D5B990",
"pX c #CBB08A",
"aX c #E2BD93",
"sX c #E3BC8B",
"dX c #C6BCAC",
"fX c #9BC294",
"gX c #AFC4B2",
"hX c #DCC193",
"jX c #E8C79C",
"kX c #F5CE9B",
"lX c #DBCEB6",
"zX c #EFD5AA",
"xX c #FDE6BC",
"cX c #FFE9BE",
"vX c #F5E5B9",
"bX c #F3E4AF",
"nX c #FAE29D",
"mX c #8A9EC3",
"MX c #8DA2C6",
"NX c #CBD1CB",
"BX c #FCEBC4",
"VX c #FFF5CB",
"CX c #FEF9D5",
"ZX c #FAEED4",
"AX c #FFF9E0",
"SX c #FDFEFE",
"DX c #EAEFFB",
"FX c #D8E7D6",
"GX c None",
/* pixels */
"GXGXGXGXGXGXGXGXGXGXGXGXGXGXGXGXGXGXGXGXGXGXGXGXGXGXGXGXGXGXGXGXGXGXGXGXGXGXGXGXGXGXGXGXGXGXGXGXGXGXGXGXGXGXGXGXGXGXGXGXGXGXGXGX",
"GXGXGXGXGXGXGXGXGXGXGXGXGXGXGXGXGXGXGXGXGXGXGXGXGXGXGXGXGXGXGXGXGXGXGXGXGXGXGXGXGXGXGXGXGXGXGXGXGXGXGXGXGXGXGXGXGXGXGXGXGXGXGXGX",
"GXGXGXGXGXGXGXGXGXGXGXGXGXGXGXGXGXGXGXGXGXGXGXGXGXGXGXGXGXGXGXGXGXGXGXGXGXGXGXGXGXGXGXGXGXGXGXGXGXGXGXGXGXGXGXGXGXGXGXGXGXGXGXGX",
"GXGXGXGXGXGXGXGXGXGXGXGXGXGXGXGXGXGXGXGXGXGXGXGXGXGXGXGXGXGXGXGXGXGXGXGXGXGXGXGXGXGXGXGXGXGXGXGXGXGXGXGXGXGXGXGXGXGXGXGXGXGXGXGX",
"GXGXGXGXGXGXGXGXGXGXGXGXGXGXGXGXGXGXGXGXGXGXGXGXGXGXGXGXGXGXGXGXGXGXGXGXGXGXGXGXGXGXGXGXGXGXGXGXGXGXGXGXGXGXGXGXGXGXGXGXGXGXGXGX",
"GXGXGXGXGXGXGXGXGXGXGXGXGXGXGXGXGXGXGXGXGXG C H L J r.i.y.i.i.i.i.a.r.< : x C L B s p -.1.:.GXGXGXGXGXGXGXGXGXGXGXGXGXGXGXGXGXGX",
"GXGXGXGXGXGXGXGXGXGXGXGXGXGXGXGXGXGXGXGXGXI L P I K y.k.j.j.j.j.j.z.a.v 1 b H q.Y l s -.7.>.dXGXGXGXGXGXGXGXGXGXGXGXGXGXGXGXGXGX",
"GXGXGXGXGXGXGXGXGXGXGXGXGXGXGXGXGXGXv.v.b.i.i.i.y.y.d.a.j.j.j.j.Z Z M D r.f.A.S.S.B.B.V..X|.&XaXyX}.}.GXGXGXGXGXGXGXGXGXGXGXGXGX",
"GXGXGXGXGXGXGXGXGXGXGXGXGXGXGXGXGXGXR C P j.k.j.j.k.j.j.a.a.k.k.n : 1 a.d.x.I.I.I.I.I.!.oX#XoX.X.XM.:.,.GXGXGXGXGXGXGXGXGXGXGXGX",
"GXGXGXGXGXGXGXGXGXGXGXGXGXGXGXGXGXGXp.P r.j.j.j.j.j.j.j.j.h.u.u.Z n M j.h.x.R.P.P.P.P.W.+X+XZ.+XZ._.7.).GXGXGXGXGXGXGXGXGXGXGXGX",
"GXGXGXGXGXGXGXGXGXGXGXGX@.4 F G P e.i.j.a.j.j.j.j.j.j.j.k.S < x u.s.h.C.$XXX+XXXXX+XoXW.I.U.I.U.I.Q.#XoX/.,.[.GXGXGXGXGXGXGXGXGX",
"GXGXGXGXGXGXGXGXGXGXGXGXO.: < C K P a.k.j.j.j.j.j.j.j.j.k.Z 1 < u.s.h.OX#XoXoX#XoX@X*XW.I.I.I.I.I.Q.oXoX7.>.).GXGXGXGXGXGXGXGXGX",
"GXGXGXGXGXGXGXGXGXGXb.v.T m V P P e.a.j.j.j.j.j.j.j.j.j.k.M < < u.s.g.E.W.W.W.~.Z.M.(..XQ.Q.!.Q.Q.Q.~.H.F.F.XX&XGXGXGXGXGXGXGXGX",
"GXGXGXGXGXGXGXGXGXO.+ 1 A q.q.K J P a.k.j.j.j.j.j.j.j.j.k.Z 1 < u.s.g.R.I.I.I.I.F.1.4. X@X#X#X#XoXY.I.I.I.I.R.M.:.].GXGXGXGXGXGX",
"GXGXGXGXGXGXGXGXGXv.x x H K J J J e.i.a.i.k.j.j.j.j.j.j.k.Z 1 < u.s.g.R.T.U.I.I.F.7.7.(..X.X.X#X#XW.Y.U.I.I.L./.,.].GXGXGXGXGXGX",
"GXGXGXGXGXGXGXX % n K J P K J J J P q.J r.j.j.j.j.j.j.u.k.Z 1 < u.s.h.C.#XQ.P.I.F.5.7.:.E E M.$X#X$X.X+XP.I.L./.>.].GXGXGXGXGXGX",
"GXGXGXGXGXGX8X    m q.K K K K K K K K J P j.k.j.j.j.k.k.l.Z > 1 r.d.i.OX#XQ.I.I.F.>.1.-.s i 1.$X#X#X#X$XY.I.L.M.:.).GXGXGXGXGXGX",
"GXGXGXGXGXGX8X    m q.K K K I K K K K K e.y.y.i.j.k.t.D D S S S x.A.A.XX#X+XB.F.C.].].8.4.4._.|. X|.|.V.B.B.V.GXGXGXGXGXGXGXGXGX",
"GXGXGXGXGXGXGX    m q.K K K K K K K K K K K I e.k.l.Z > 1 0.z.k.K.I.U.+X#XoX7.>.).aXuXuXaXjX].1.5.5.1.>.a f &.GXGXGXGXGXGXGXGXGX",
"GXGXGXGXGXGXGX    m q.P K K K K K I q.K K K K r.s.l.D < x 0.k.j.K.I.T.+X@X|.1.,.).tXtXtXpXaX_.1.1.1.1.1.=.s ;.GXGXGXGXGXGXGXGXGX",
"GXGXGXGX|  .q 3 1 m q.K K K K K K K K K K K K P e.r.Z x < H e.P S.I.U.+X#X*X&X&XyXzXvXjXpXjXo.& = GXGXGXGXGXGXGXGXGXGXGXGXGXGXGX",
"GXGXGXGX.   + v < V q.K K K K K K K K K K K K K J q.m 1 < V J H S.I.U.+XoX*XyXyXjXCXCXzXiXjX! o   GXGXGXGXGXGXGXGXGXGXGXGXGXGXGX",
"GXGXGXGX%   : x < V q.K P K K K P K K K K K P J C H V c c R h.p.D.H.H.Q.+XZ.hXjXuXpXiXwX].&X!     GXGXGXGXGXGXGXGXGXGXGXGXGXGXGX",
"GXGXGXGXX   : x < V q.K K K K P K K K K K K K V < < V q.P `.$XoX(.5./.L.I.Y.nXCX0XX o ; a d *     GXGXGXGXGXGXGXGXGXGXGXGXGXGXGX",
"GXGXGXGXX   > x < V q.P K K K q.K K q.K I I I V 2 > m K H `.%X#X(.4.M.L.I.~.nXCX'.o o e z =.-   o GXGXGXGXGXGXGXGXGXGXGXGXGXGXGX",
"GXGXGXGXX   : x < V q.K K P K m m m m v R qXqXqXwXqX{.{.{.5.:.>. X|.OXV.n.C.xXBXlX9X9X<X} +.$.6.9.#...#.GXGXGXGXGXGXGXGXGXGXGXGX",
"GXGXGXGXX   : c < V q.K P K q.v 1 x x 1 ` AXCXVXVXCXzXuXjX4.i d  X%XoX7.>.).BXcXZXSXSXMX>X:X9XkXjXk   X GXGXGXGXGXGXGXGXGXGXGXGX",
"GXGXGXGXX   : x < V q.K H H H 3 < < < 1 ~ lXzXzXxXBXjXtXaX4.s / V.Q.XX1.>.).vXcXZXSXSXmX>X>X0XyXuX!   2 GXGXGXGXGXGXGXGXGXGXGXGX",
"GXGXGXGXX   : x < V q.K v x x @   .     - 5.1.=XBXxXxXvXBX8.p / G.I.J.3.p 4.vXBXZXSXSXmX:X>X0XyXaX!   $ GXGXGXGXGXGXGXGXGXGXGXGX",
"GXGXGXGXX   : x < V q.q.m x x .         6 (.M.=XVXBXBXcXVX6.i s B.I.L.) t 4.vXxXZXSXSXmX:X:X9XkXjXj   X GXGXGXGXGXGXGXGXGXGXGXGX",
"GXGXGXGXX   : x 1 V q.K 3 + > $.9X$.$   # ~ u 6.tX&XrX7X7X{.2.7.H.I.L.) i 4.BXvXBXZXAXdX2X0X%.o.X.'.GXGXGXGXGXGXGXGXGXGXGXGXGXGX",
"GXGXGXGXX   : c < V q.q.>   o GXGXGX9         5 1.2.3X5X6XqX%X#XY.I.L.W t 4.BXBXxXxXBXzXsXkX!     GXGXGXGXGXGXGXGXGXGXGXGXGXGXGX",
"GXGXGXGX$ % , x < m q.K >   o GXGXGXq . # # # y /./.4X5X5XqX+X@XH.I.J.<.s 4.vXBXxXBXBXjXpXaXX.X O GXGXGXGXGXGXGXGXGXGXGXGXGXGXGX",
"GXGXGXGXGXGX$.. X 1 c v @   X GXGXGXE.J.G.(.OX) # # % 7 7 m.U.Y.*.d -.=X&XpXiXpXiXtXjX&.$ $ 0XGXGXGXGXGXGXGXGXGXGXGXGXGXGXGXGXGX",
"GXGXGXGXGXGXGX    : v x .     GXGXGX~.I.U.-X;X>.          m.I.I.*.p -.aXkXjXaXaXaXaXkXX.    GXGXGXGXGXGXGXGXGXGXGXGXGXGXGXGXGXGX",
"GXGXGXGXGXGXGX .| q 1 , F ....GXGXGXN.m.m.M./.^ @ + .     n.T.H.W e u ^.'.'.'.'.'.^.[.%.| 0 GXGXGXGXGXGXGXGXGXGXGXGXGXGXGXGXGXGX",
"GXGXGXGXGXGXGXGXGX...   GXGXGXGXGXGX9 .       + c v : o   ,.%XoXy     1 x 1 1 x @     0XGXGXGXGXGXGXGXGXGXGXGXGXGXGXGXGXGXGXGXGX",
"GXGXGXGXGXGXGXGXGX#.    GXGXGXGXGXGX9         + < x +     ,.;X@Xy   . < x x x x , o   8XGXGXGXGXGXGXGXGXGXGXGXGXGXGXGXGXGXGXGXGX",
"GXGXGXGXGXGXGXGXGXGXGXGXGXGXGXGXGXGX9   O u t B H G V m m R h.h.,   . V I A Z C _ m.m.) ..| GXGXGXGXGXGXGXGXGXGXGXGXGXGXGXGXGXGX",
"GXGXGXGXGXGXGXGXGXGXGXGXGXGXGXGXGXGXq   & -.=._ w.q.q.q.q.K I L :     C L L w.L A.I.I.Q     GXGXGXGXGXGXGXGXGXGXGXGXGXGXGXGXGXGX",
"GXGXGXGXGXGXGXGXGXGXGXGXGXGXGXGXGXGXq % 9 h p ~ T U I K K I T T 4 : , O.b.p.I m f.K.K.Q > : v.GXGXGXGXGXGXGXGXGXGXGXGXGXGXGXGXGX",
"GXGXGXGXGXGXGXGXGXGXGXGXGXGXGX .X $ } ,X' O   = E E Y L K ` E E U L p.NXSXeX$   2 P P r.j.l.B % % GXGXGXGXGXGXGXGXGXGXGXGXGXGXGX",
"GXGXGXGXGXGXGXGXGXGXGXGXGXGXGX0   o { ,X' o   * =.d Y q.q.` =.E U C R FXSXNX$ o 3 q.K y.k.z.N     GXGXGXGXGXGXGXGXGXGXGXGXGXGXGX",
"GXGXGXGXGXGXGXGXGXGXGXGXGX..#.9.9.&.9 7 2 m v M Y Y Y ~ ` 6 & * 8XgXfX0X9X<X' ' 8 3 1 Z j.l.n      ...#.GXGXGXGXGXGXGXGXGXGXGXGX",
"GXGXGXGXGXGXGXGXGXGXGXGX .    wXxXpX=   , q.w.q.K w.~ d / &     eXSXDX+.{ { { ,X]     Z z.z.N o       X GXGXGXGXGXGXGXGXGXGXGXGX",
"GXGXGXGXGXGXGXGXGXGXGXGX#.9 9 '.yX[.$   > I K P P e._ W ) 6 @ + 9XFXNX1X{ } } } ' O o B h.j.N o o O o 6 GXGXGXGXGXGXGXGXGXGXGXGX",
"GXGXGXGXGXGXGXGXGXGXGXGXGXGXGXk . # o   @ x < Z j.i.j.j.j.r.K K 2 X $ } { | ^ z E E E e   . - r 5 s d l = . ' GXGXGXGXGXGXGXGXGX",
"GXGXGXGXGXGXGXGXGXGXGXGXGXGXGX[         @ v x Z l.l.j.j.j.e.K K :   o } ,X} ^ l s f d *     = r g l / l O   k GXGXGXGXGXGXGXGXGX",
"GXGXGXGXGXGXGXGXGXGXGXGXGX8X0Xj ; e & & # > : N D S t.k.j.y.r.r.m 3 4 8 8 ' d d ;.).=X!     * h g p d l #    .GXGXGXGXGXGXGXGXGX",
"GXGXGXGXGXGXGXGXGXGXGXGX .    t =.d t r 5     @ x 1 D l.j.j.k.k.r.q.P +   O E s ).CXAX%.    - r h l =.l O   0 GXGXGXGXGXGXGXGXGX",
"GXGXGXGXGXGXGXGXGXGXGXGX|   . s d a g h ; o   : c < D z.s.k.l.j.e.q.H +   # d s 8.BXVX%.    = r e l / l #   0 GXGXGXGXGXGXGXGXGX",
"GXGXGXGXGXGXGXGXGXGXGXGX|     u / a w g ;     . @ @ + 4 4 , , , > 2 +     o # O = 0 j q - ; e r e * O q GXGXGXGXGXGXGXGXGXGXGXGX",
"GXGXGXGXGXGXGXGXGXGXGXGX|     l =.d h g ; .                                           & h h h r g O   X GXGXGXGXGXGXGXGXGXGXGXGX",
"GXGXGXGXGXGXGXGXGXGXGXGX|     w z s g h ;     9 ..| | | | | | | | | | | | 0 %     .   & - - - - & k | | GXGXGXGXGXGXGXGXGXGXGXGX",
"GXGXGXGXGXGXGXGXGXGXGXGX|     5 r e r r ; o   $.GXGXGXGXGXGXGXGXGXGXGXGXGXGX$                   o GXGXGXGXGXGXGXGXGXGXGXGXGXGXGX",
"GXGXGXGXGXGXGXGXGXGXGXGX|   . ; h g w g - o   $.GXGXGXGXGXGXGXGXGXGXGXGXGXGX$ o X o X X X X X X   GXGXGXGXGXGXGXGXGXGXGXGXGXGXGX",
"GXGXGXGXGXGXGXGXGXGXGXGX|   . ; h g g g ; o   $.GXGXGXGXGXGXGXGXGXGXGXGXGXGXGXGXGXGXGXGXGXGXGXGXGXGXGXGXGXGXGXGXGXGXGXGXGXGXGXGX",
"GXGXGXGXGXGXGXGXGXGXGXGX .    ; h h g h ;     #.GXGXGXGXGXGXGXGXGXGXGXGXGXGXGXGXGXGXGXGXGXGXGXGXGXGXGXGXGXGXGXGXGXGXGXGXGXGXGXGX",
"GXGXGXGXGXGXGXGXGXGXGXGX$.0  .- ; ; ; ; 5 | [ GXGXGXGXGXGXGXGXGXGXGXGXGXGXGXGXGXGXGXGXGXGXGXGXGXGXGXGXGXGXGXGXGXGXGXGXGXGXGXGXGX",
"GXGXGXGXGXGXGXGXGXGXGXGXGXGXGX0   X X    .GXGXGXGXGXGXGXGXGXGXGXGXGXGXGXGXGXGXGXGXGXGXGXGXGXGXGXGXGXGXGXGXGXGXGXGXGXGXGXGXGXGXGX",
"GXGXGXGXGXGXGXGXGXGXGXGXGXGXGXq          .GXGXGXGXGXGXGXGXGXGXGXGXGXGXGXGXGXGXGXGXGXGXGXGXGXGXGXGXGXGXGXGXGXGXGXGXGXGXGXGXGXGXGX",
"GXGXGXGXGXGXGXGXGXGXGXGXGXGXGXGXGXGXGXGXGXGXGXGXGXGXGXGXGXGXGXGXGXGXGXGXGXGXGXGXGXGXGXGXGXGXGXGXGXGXGXGXGXGXGXGXGXGXGXGXGXGXGXGX",
"GXGXGXGXGXGXGXGXGXGXGXGXGXGXGXGXGXGXGXGXGXGXGXGXGXGXGXGXGXGXGXGXGXGXGXGXGXGXGXGXGXGXGXGXGXGXGXGXGXGXGXGXGXGXGXGXGXGXGXGXGXGXGXGX",
"GXGXGXGXGXGXGXGXGXGXGXGXGXGXGXGXGXGXGXGXGXGXGXGXGXGXGXGXGXGXGXGXGXGXGXGXGXGXGXGXGXGXGXGXGXGXGXGXGXGXGXGXGXGXGXGXGXGXGXGXGXGXGXGX"
};
