/* XPM */
static char *_678983388179[] = {
/* columns rows colors chars-per-pixel */
"64 64 204 2 ",
"   c #000000",
".  c #0D0204",
"X  c #060A07",
"o  c #130104",
"O  c #19070A",
"+  c #0E1410",
"@  c #071A12",
"#  c #0B1D14",
"$  c #2D010A",
"%  c #320005",
"&  c #3A0006",
"*  c #360009",
"=  c #3C010C",
"-  c #390B12",
";  c #3D0B13",
":  c #3A191B",
">  c #0D251A",
",  c #102B1E",
"<  c #3C1F20",
"1  c #163928",
"2  c #3C2321",
"3  c #392925",
"4  c #303229",
"5  c #43010E",
"6  c #48010F",
"7  c #56000D",
"8  c #460713",
"9  c #4C0311",
"0  c #540213",
"q  c #5C0214",
"w  c #5C0C1B",
"e  c #4A131D",
"r  c #5D101E",
"t  c #610316",
"y  c #680317",
"u  c #630618",
"i  c #6C0318",
"p  c #64091A",
"a  c #690C1F",
"s  c #74031A",
"d  c #7B041C",
"f  c #4D1420",
"g  c #5A1A23",
"h  c #6B0E20",
"j  c #7B0E24",
"k  c #691123",
"l  c #691E2D",
"z  c #741024",
"x  c #7A182B",
"c  c #4B2026",
"v  c #572126",
"b  c #56282B",
"n  c #4D3D36",
"m  c #742636",
"M  c #752835",
"N  c #19402D",
"B  c #1A4631",
"V  c #1B4A34",
"C  c #384335",
"Z  c #3A4939",
"A  c #22593E",
"S  c #37503C",
"D  c #39513E",
"F  c #4C443A",
"G  c #375B44",
"H  c #276748",
"J  c #296D4C",
"K  c #3A684D",
"L  c #2B704F",
"P  c #2E7854",
"I  c #3C7757",
"U  c #377856",
"Y  c #357E59",
"T  c #544C46",
"R  c #6F444C",
"E  c #754851",
"W  c #83051E",
"Q  c #88041F",
"!  c #870721",
"~  c #8E0420",
"^  c #8D0E27",
"/  c #920522",
"(  c #970925",
")  c #88142B",
"_  c #93152D",
"`  c #8E1B32",
"'  c #931C33",
"]  c #9B1B34",
"[  c #AB0729",
"{  c #A30828",
"}  c #AD082A",
"|  c #B2072A",
" . c #B4082B",
".. c #BC082D",
"X. c #A51E39",
"o. c #8C273B",
"O. c #93263C",
"+. c #A2243C",
"@. c #AA213C",
"#. c #B3233F",
"$. c #C5072E",
"%. c #C6082F",
"&. c #C70930",
"*. c #CA0A31",
"=. c #D10A33",
"-. c #D80B35",
";. c #CF1138",
":. c #C81438",
">. c #D2143A",
",. c #D9163E",
"<. c #D7193F",
"1. c #942E43",
"2. c #9C3147",
"3. c #B7364E",
"4. c #D51F43",
"5. c #DC1D43",
"6. c #C62746",
"7. c #CB2B4A",
"8. c #DF2147",
"9. c #DB2B4D",
"0. c #C33C56",
"q. c #D13957",
"w. c #E02147",
"e. c #E32349",
"r. c #E9294F",
"t. c #E42E53",
"y. c #EC2D53",
"u. c #E53255",
"i. c #ED3659",
"p. c #F13257",
"a. c #F6365B",
"s. c #FC355C",
"d. c #F6395E",
"f. c #FC395F",
"g. c #F63D61",
"h. c #FE3A61",
"j. c #845C64",
"k. c #BB4F65",
"l. c #887072",
"z. c #A6737D",
"x. c #D94864",
"c. c #F64366",
"v. c #FE4266",
"b. c #F64669",
"n. c #F9476A",
"m. c #F74A6C",
"M. c #FC4A6D",
"N. c #E7506D",
"B. c #EA516F",
"V. c #FA4E70",
"C. c #EE5371",
"Z. c #F45574",
"A. c #FD5677",
"S. c #F65877",
"D. c #F65B7B",
"F. c #FE5C7C",
"G. c #C46678",
"H. c #36835C",
"J. c #3A805C",
"K. c #368D63",
"L. c #369166",
"P. c #389367",
"I. c #339668",
"U. c #3A976A",
"Y. c #389A6C",
"T. c #DF6C85",
"R. c #E46E86",
"E. c #F66381",
"W. c #FA6583",
"Q. c #F66D8A",
"!. c #F6718D",
"~. c #ED7891",
"^. c #F67591",
"/. c #F67B96",
"(. c #F97A94",
"). c #F67F99",
"_. c #B28990",
"`. c #B5969C",
"'. c #B59DA1",
"]. c #C6949D",
"[. c #E78B9D",
"{. c #F6819A",
"}. c #FB829B",
"|. c #FA899F",
" X c #FD8AA0",
".X c #E79FAB",
"XX c #C8B9BC",
"oX c #E9ACB8",
"OX c #FEA2B3",
"+X c #E8B1BB",
"@X c #E8BAC3",
"#X c #FEB9C5",
"$X c #DED5D7",
"%X c #E8C4CB",
"&X c #E9CBD1",
"*X c #FFCAD4",
"=X c #E7DADD",
"-X c #FFD8DF",
";X c #EADEE1",
":X c #EAE0E2",
">X c #FFE3E8",
",X c #FFE8ED",
"<X c #FFF2F4",
"1X c #FFFFFF",
/* pixels */
"K.K.K.K.K.K.K.K.K.K.K.K.K.K.K.K.K.K.K.K.K.K.K.K.K.K.K.K.K.K.K.K.K.K.K.K.K.K.K.K.K.K.K.K.K.K.K.K.K.K.K.K.K.K.K.K.K.K.K.K.K.K.K.K.",
"K.K.K.K.K.K.K.K.K.K.K.K.K.K.K.K.K.K.K.K.K.K.K.K.K.K.K.K.K.K.K.K.K.K.K.K.K.K.K.K.K.K.K.K.K.K.K.K.K.K.K.K.K.K.K.K.K.K.K.K.K.K.K.K.",
"K.K.K.K.K.K.K.K.K.K.K.K.K.K.K.K.K.K.K.K.K.K.K.K.K.K.K.K.K.K.K.L.K.K.K.K.K.K.K.K.K.K.K.K.K.K.K.K.K.K.K.K.K.K.K.K.K.K.K.K.K.K.K.K.",
"K.K.K.K.K.K.K.K.K.K.K.K.K.K.K.K.K.K.K.K.K.K.K.K.K.K.K.P.L.I.L.Y.L.I.L.K.K.K.K.K.K.K.K.K.K.K.K.K.K.K.K.K.K.K.K.K.H.L.K.K.K.K.K.K.",
"K.K.K.K.K.K.K.K.K.K.K.K.K.K.K.K.K.K.K.K.K.K.K.K.K.K.L.G Z Z Z Z Z Z D K.K.K.K.K.K.K.K.K.K.K.K.K.K.K.K.K.K.K.K.K.K.K.K.K.K.K.K.K.",
"K.K.K.K.K.K.K.K.K.K.K.K.K.K.K.K.K.K.K.K.K.K.K.P.K.K.Y.: = = = * = = ; K.K.K.K.K.K.K.K.K.K.K.K.K.K.K.K.K.K.K.K.K.K.K.K.K.K.K.K.K.",
"K.K.K.K.K.K.K.K.K.K.K.K.K.K.K.K.K.K.K.K.K.K.P.J.U U Y e 9 0 9 f f f c Y U U H.K.K.K.K.K.K.K.K.K.K.K.K.K.K.K.K.K.K.K.K.K.K.K.K.K.",
"K.K.K.K.K.K.K.K.K.K.K.K.K.K.K.K.K.K.K.K.K.K.U.4 8 ; - #.u.u.i.&X:X:XXX; ; 8 3 I.K.K.K.K.K.K.K.K.K.K.K.K.K.K.K.K.K.K.K.K.K.K.K.K.",
"K.K.K.K.K.K.K.K.K.K.K.K.K.K.K.K.K.K.K.K.L.L.Y.4 = = * 7.h.h.v.<X1X1X$X& * = 2 I.L.L.K.K.K.K.K.K.K.K.K.K.K.K.K.K.K.K.K.K.K.K.K.K.",
"K.K.K.K.K.K.K.K.K.K.K.K.K.K.K.K.K.K.L.K 2 2 2 M #.#.@.u.h.h.h.(.|.|.[.`.`.'.l.< 3 2 G L.K.K.K.K.K.K.K.K.K.K.K.K.K.K.K.K.K.K.K.K.",
"K.K.K.K.K.K.K.K.K.K.K.K.K.K.K.K.P.L.I.G * = * ] h.h.h.h.f.f.h.s.s.s.F.1X1X1X`.% & & C Y.I.L.K.K.K.K.K.K.K.K.K.K.K.K.K.K.K.K.K.K.",
"K.K.K.K.K.K.K.K.K.K.K.K.K.K.K.H.D D D n z z h #.h.h.f.f.f.h.h.v.v.v.F.*X*X*X].R E E T S D D H.K.K.K.K.K.K.K.K.K.K.K.K.K.K.K.K.K.",
"K.K.K.K.K.K.K.K.K.K.K.K.K.K.K.Y ; = = a h.h.f.f.h.f.h.f.h.h.h.S.F.F.A.h.h.s. X1X1X1XE ; 5 = K K.K.K.K.K.K.K.K.K.K.K.K.K.K.K.K.K.",
"K.K.K.K.K.K.K.K.K.K.K.K.H.Y U I 8 8 6 z h.f.f.h.f.f.h.a.a.p.i.Z.Z.Z.V.h.h.s.}.1X<X1Xj.8 e e K J.Y J.K.K.K.K.K.K.K.K.K.K.K.K.K.K.",
"K.K.K.K.K.K.K.K.K.K.K.K.< ; ; e 7.9.9.u.f.f.f.f.d.h.h._ w w w r r w x A.S.A.A.A.A.A.oX=X$X$XM w r r H.P.K.K.K.K.K.K.K.K.K.K.K.K.",
"K.K.K.K.K.K.K.K.P.P.P.P.: = = 9 a.f.d.f.f.f.f.h.h.h.h.z % = = = * * g W.F.F.V.f.f.s.#X1X1X1Xm q q w K.P.L.L.K.K.K.K.K.K.K.K.K.K.",
"K.K.K.K.K.K.K.K.V > , , w i i i _ _ _ @.d.f.f.7.` ' ' X.X.X.X./ ~ / ^ O.O.o.0.M.V.V.G.z.z.z._.`.`._.b b b F L.K.K.K.K.K.K.K.K.K.",
"K.K.K.K.K.K.K.U.,       i / / Q = * * a f.d.h.] % * % 6.h.h.h.=.*.*. .* * % o.W.F.F.' 7 q t ;X1X1X;Xp q t g I.K.K.K.K.K.K.K.K.K.",
"K.K.K.K.K.K.K.U.,       i / Q Q 0 0 0 a 7.7.7.] a h a q.M.M.n.5.,.,.:.q t q ' x.x.x.+.) ^ ) :X1X1X;Xp t t v I.K.K.K.K.K.K.K.K.K.",
"K.K.K.K.K.K.K.U.,       i Q / Q Q Q Q d = 5 = ' d.a.i.Q.}.)./.g.a.d.y.$.&.&.( w p q 6.f.d.f.>X1X1X=Xp t t v I.K.K.K.K.K.K.K.K.K.",
"K.K.K.K.K.K.K.U.,       i ~ Q ~ Q Q Q d 5 5 = ] f.p.a.E.).).(.g.d.g.p.&.*.*.{ q y q 6.a.f.d.>X1X1X=Xp q t v I.K.K.K.K.K.K.K.K.K.",
"K.K.K.K.K.K.K.U.,       i ~ / Q 0 9 9 y } } } ..>.;.;.i.b.b.b.Q.!.!.E.y.y.y.8.} |  .^ ) j j &X,X,X%Xp t t v I.K.K.K.K.K.K.K.K.K.",
"K.K.K.K.K.K.K.U.,       i ~ ~ Q 5 = = q &.&.&.&.$.&.$.r.a.a.g.(.{.{.^.a.a.d.w.*.*.*.W 7 q p %X>X>X%Xp t t v I.K.K.K.L.K.K.K.K.K.",
"K.K.K.K.K.K.K.U.,       i ~ Q Q 5 = = p e.w.w.>.$.&.$.5.8.5.w.Z.D.D.D.D.D.D.c.5.w.e.^ q t p @X-X-X@Xp q t v I.K.K.K.L.H.K.K.K.K.",
"K.K.K.K.K.K.K.U.,       i / Q Q 5 5 * h f.a.f.8.$.$.$.$.&.&.&.p.a.f.n.{.{.|.E.a.a.f._ q t p +X*X*X+Xp t t v I.K.K.K.K.K.K.K.K.K.",
"K.K.K.K.K.K.K.U.,       i Q / Q 5 = = k n.b.b.t.;.>.>.*.&.&.&.t.y.t.i.Q.!.!.D.c.b.n.' t t p oX*X*XoXp q t v I.K.K.K.K.K.K.K.K.K.",
"K.K.K.K.K.K.K.U.,       i / / Q 5 = = l {.).{.D.a.a.d.>.&.&.&.*.&.&.>.d.a.a.Z.{.{.}.O.q q p .X#X#X.Xp t t v I.K.K.K.K.K.K.K.K.K.",
"K.K.K.K.K.K.K.U.,       i / Q Q 5 = = l }.{.{.D.a.d.d.<.&.&.&.*.&.&.>.a.a.a.Z.{./.|.1.q t p .X+X#X.Xt t t v I.K.K.K.K.K.K.K.K.K.",
"K.K.K.K.K.K.K.U.,       i ~ Q Q 5 5 = l }.).).^.Q.Q.!.c.r.t.y.*.&.&.*.>.>.>.9.n.n.M.' q t u [.OXOX[.p q t v I.L.K.K.K.K.K.K.K.K.",
"K.K.K.K.K.K.K.U.,       i / Q Q 5 = = l }.).).{.{.{.{.m.a.a.a.*.&.$.&.$.&.$.5.f.a.f._ q t t [.OXOX[.p t t v I.H.K.K.K.K.K.K.K.K.",
"K.K.K.K.K.K.K.U.,       i / Q Q 5 5 * l {.).).).{.).{.E.S.S.S.w.5.5.5.&.&.&.;.w.w.e.^ q t u R.}.}.R.t t t v I.K.K.K.K.K.K.K.K.K.",
"K.K.K.K.K.K.K.U.,       i Q / Q 5 = = l }.{.{.).).).).{.).{.).g.g.a.y.&.$.$.$.$.%.*.W q t u N.F.F.N.t t q v I.K.K.K.K.K.K.K.K.K.",
"K.K.K.K.K.K.K.U.,       i / Q Q 5 5 * l !.^.^.^.).).).).).).).m.c.c.i.;.;.;.*.&.&.*.Q q w t N.F.F.N.p q p v I.K.K.K.K.K.K.K.K.K.",
"K.K.K.K.K.K.K.U.,       i ~ ~ Q 5 = = k h.g.a.S.{.).).).).).)./.(.).Q.a.d.a.9.&.&.*.Q q q y N.F.F.N.p t q v I.K.K.K.K.K.K.K.K.K.",
"K.K.K.K.K.K.K.U.,       i ~ ~ Q 5 = = h a.a.a.S.{.).).).).).).).).).^.a.g.a.e.&.$.&.! q t p N.F.F.N.t t t g I.K.K.K.K.K.K.K.K.K.",
"K.K.K.K.K.K.K.U.,       i ~ ~ Q 5 = = u >.>.>.r.V.m.b.!.).).).).).).(.Q.Q.Q.C.y.y.y._ q t p N.F.F.N.p t t v I.K.K.K.K.K.K.K.K.K.",
"K.K.K.K.K.K.K.U.,       i ~ Q Q 5 5 = q &.&.$.5.a.d.a.Q.{.).{.).).).).)./.{.E.a.a.f._ q t t N.F.F.N.p q t g I.K.K.K.K.K.K.K.K.K.",
"K.K.K.K.K.K.K.U.,       i ~ ~ Q 5 = = q *.&.*.>.e.e.w.C.E.E.E./.).).).).).).Q.Z.Z.F.' q t p N.F.F.N.y q q v I.K.K.K.K.K.K.K.K.K.",
"K.K.K.K.K.K.K.U.,       i / / Q = = = q *.&.&.&.$.*.$.r.a.a.a./.).{.).).).).).).{.|.1.q q p N.F.F.N.t p t v I.K.K.K.K.K.K.K.K.K.",
"K.K.K.K.K.K.K.U.,       i / Q Q 9 9 9 p | | | ..&.&.&.e.p.y.i.Q.^.^.(.).).).~.R.T.R.2.z z j B.F.F.N.y q t v I.K.K.K.K.K.K.K.K.K.",
"K.K.K.K.K.K.K.U.,       i ~ / Q Q Q Q d 5 9 5 W *.&.&.*.*.*.;.a.g.g.c./.).}.k.p h p 0.S.Z.Z.S.F.F.N.t p q v I.K.K.K.K.K.K.K.K.K.",
"K.K.K.K.K.K.K.U.,       i ~ Q Q ~ ~ ~ d = = = d *.$.&.&.&.*.*.y.g.a.c.).{.}.k.q q q 0.F.F.F.F.F.F.N.t t t v I.K.K.K.K.K.K.K.K.K.",
"K.K.K.K.K.K.K.U.,       i Q / Q q 0 0 q s s s i p y y [ *.*.*.5.,.5.4.m m m ` [ [ [ ] ` ` O.C.F.F.N.t t t g I.K.K.K.K.K.K.K.K.K.",
"K.K.K.K.K.K.K.U.,       i ( / Q = = = 9 / / / y * = * { =.=.=.=.*.=.} % * % s =.&.*.j q q q B.F.W.B.t p q v I.K.K.K.K.K.K.K.K.K.",
"K.K.K.K.K.K.K.P.B # > > 8 q 0 q q t 7 y Q / Q d q q q Q ( ( ( ( / ( / s s i ( &.*.*.{ ! Q ! 3.0.0.3.v v v n I.K.K.K.K.K.K.K.K.K.",
"K.K.K.K.K.K.K.K.K.L.L.U.+     . Q Q / / / Q / Q Q / / 7 * = = = = = 0 &.*.&.&.&.$.$.&.&.&.&.i t t w K.L.K.K.K.K.K.K.K.K.K.K.K.K.",
"K.K.K.K.K.K.K.K.K.K.K.L.@ X X X s d d d / Q Q / / Q Q q 6 6 5 9 9 9 y &.&.&.&.&.&.&...[ | } a w w g K.K.K.K.K.K.K.K.K.K.K.K.K.K.",
"K.K.K.K.K.K.K.K.K.K.K.K.P P P H . . . $ / / Q Q Q / Q Q Q Q ! | ......&.&.&.&.&.&.*.0 . o o G U I I K.K.K.K.K.K.K.K.K.K.K.K.K.K.",
"K.K.K.K.K.K.K.K.K.K.K.K.K.K.K.Y       O Q / ~ ~ ~ ~ ~ ~ ~ ~ ~ &.&.*.*.*.&.&.&.&.*.*.5       H K.K.K.K.K.K.K.K.K.K.K.K.K.K.K.K.K.",
"K.K.K.K.K.K.K.K.K.K.K.K.K.K.L.H.V B V 4 $ % $ q ~ ~ ~ ~ ~ ~ ~ &.*.*.*.*.*.*.( = 5 5 4 B B B Y K.K.K.K.K.K.K.K.K.K.K.K.K.K.K.K.K.",
"K.K.K.K.K.K.K.K.K.K.K.K.K.K.K.K.P.P.Y.A       = / / ~ ~ ~ ~ / &.*.*.*.*.=.-.d       B Y.U.L.K.K.K.K.K.K.K.K.K.K.K.K.K.K.K.K.K.K.",
"K.K.K.K.K.K.K.K.K.K.K.K.K.K.K.K.K.K.P.H @ # # - t q q j ~ ~ ~ &.*.=.&.! ! ~ r @ # @ A P.K.K.K.K.K.K.K.K.K.K.K.K.K.K.K.K.K.K.K.K.",
"K.K.K.K.K.K.K.K.K.K.K.K.K.K.K.K.K.K.K.K.K.K.I.1       t / ~ ~ &.=.=.[       > Y.K.P.K.K.K.K.K.K.K.K.K.K.K.K.K.K.K.K.K.K.K.K.K.K.",
"K.K.K.K.K.K.K.K.K.K.K.K.K.K.K.K.K.K.K.K.K.K.P.1   X X q W W Q  .....( X X   , U.K.K.K.K.K.K.K.K.K.K.K.K.K.K.K.K.K.K.K.K.K.K.K.K.",
"K.K.K.K.K.K.K.K.K.K.K.K.K.K.K.K.K.K.K.K.K.K.K.Y J L P + . o . o O o O P L L Y K.K.K.K.K.K.K.K.K.K.K.K.K.K.K.K.K.K.K.K.K.K.K.K.K.",
"K.K.K.K.K.K.K.K.K.K.K.K.K.K.K.K.K.K.K.K.K.K.K.K.P.K.U.+             X L.K.K.K.K.K.K.K.K.K.K.K.K.K.K.K.K.K.K.K.K.K.K.K.K.K.K.K.K.",
"K.K.K.K.K.K.K.K.K.K.K.K.K.K.K.K.K.K.K.K.K.K.K.K.K.K.K.A N 1 N N 1 N V K.K.K.K.K.K.K.K.K.K.K.K.K.K.K.K.K.K.K.K.K.K.K.K.K.K.K.K.K.",
"K.K.K.K.K.K.K.K.K.K.K.K.K.K.K.K.K.K.K.K.K.K.K.K.K.K.K.P.U.U.P.P.P.U.P.K.K.K.K.K.K.K.K.K.K.K.K.K.K.K.K.K.K.K.K.K.K.K.K.K.K.K.K.K.",
"K.K.K.K.K.K.K.K.K.K.K.K.K.K.K.K.K.K.K.K.K.K.K.K.K.K.K.K.K.K.K.K.K.K.K.K.K.K.K.K.K.K.K.K.K.K.K.K.K.K.K.K.K.K.K.K.K.K.K.K.K.K.K.K.",
"K.K.K.K.K.K.K.K.K.K.K.K.K.K.K.K.K.K.K.K.K.K.K.K.K.K.K.K.K.K.K.K.K.K.K.K.K.K.K.K.K.K.K.K.K.K.K.K.K.K.K.K.K.K.K.K.K.K.K.K.K.K.K.K.",
"K.K.K.K.K.K.K.K.K.K.K.K.K.K.K.K.K.K.K.K.K.K.K.K.K.K.K.K.K.K.K.K.K.K.K.K.K.K.K.K.K.K.K.K.K.K.K.K.K.K.K.K.K.K.K.K.K.K.K.K.K.K.K.K.",
"K.K.K.K.K.K.K.K.K.K.K.K.K.K.K.K.K.K.K.K.K.K.K.K.K.K.K.K.K.K.K.K.K.K.K.K.K.K.K.K.K.K.K.K.K.K.K.K.K.K.K.K.K.K.K.K.K.K.K.K.K.K.K.K.",
"K.K.K.K.K.K.K.K.K.K.K.K.K.K.K.K.K.K.K.K.K.K.K.K.K.K.K.K.K.K.K.K.K.K.K.K.K.K.K.K.K.K.K.K.K.K.K.K.K.K.K.K.K.K.K.K.K.K.K.K.K.K.K.K.",
"K.K.K.K.K.K.K.K.K.K.K.K.K.K.K.K.K.K.K.K.K.K.K.K.K.K.K.K.K.K.K.K.K.K.K.K.K.K.K.K.K.K.K.K.K.K.K.K.K.K.K.K.K.K.K.K.K.K.K.K.K.K.K.K."
};
